999
libcadmapper 67c4e50
  0
SECTION
  2
HEADER
  9
$ACADVER
  1
AC1018
  9
$ACADMAINTVER
 70
104
  9
$DWGCODEPAGE
  3
ANSI_1252
  9
$LASTSAVEDBY
  1
unknown
  9
$INSBASE
 10
0.0
 20
0.0
 30
0.0
  9
$EXTMIN
 10
1e+20
 20
1e+20
 30
1e+20
  9
$EXTMAX
 10
-1e+20
 20
-1e+20
 30
-1e+20
  9
$LIMMIN
 10
0.0
 20
0.0
  9
$LIMMAX
 10
12.0
 20
9.0
  9
$ORTHOMODE
 70
0
  9
$REGENMODE
 70
1
  9
$FILLMODE
 70
1
  9
$QTEXTMODE
 70
0
  9
$MIRRTEXT
 70
0
  9
$LTSCALE
 40
1.0
  9
$ATTMODE
 70
1
  9
$TEXTSIZE
 40
0.2
  9
$TRACEWID
 40
0.05
  9
$TEXTSTYLE
  7
Notes
  9
$CLAYER
  8
0
  9
$CELTYPE
  6
ByLayer
  9
$CECOLOR
 62
256
  9
$CELTSCALE
 40
1.0
  9
$DISPSILH
 70
0
  9
$DIMSCALE
 40
1.0
  9
$DIMASZ
 40
3.0
  9
$DIMEXO
 40
1.5
  9
$DIMDLI
 40
6.0
  9
$DIMRND
 40
0.0
  9
$DIMDLE
 40
0.0
  9
$DIMEXE
 40
3.0
  9
$DIMTP
 40
0.0
  9
$DIMTM
 40
0.0
  9
$DIMTXT
 40
3.0
  9
$DIMCEN
 40
3.0
  9
$DIMTSZ
 40
0.0
  9
$DIMTOL
 70
0
  9
$DIMLIM
 70
0
  9
$DIMTIH
 70
0
  9
$DIMTOH
 70
0
  9
$DIMSE1
 70
0
  9
$DIMSE2
 70
0
  9
$DIMTAD
 70
1
  9
$DIMZIN
 70
3
  9
$DIMBLK
  1

  9
$DIMASO
 70
1
  9
$DIMSHO
 70
1
  9
$DIMPOST
  1

  9
$DIMAPOST
  1

  9
$DIMALT
 70
0
  9
$DIMALTD
 70
2
  9
$DIMALTF
 40
25.4
  9
$DIMLFAC
 40
1.0
  9
$DIMTOFL
 70
0
  9
$DIMTVP
 40
0.0
  9
$DIMTIX
 70
0
  9
$DIMSOXD
 70
0
  9
$DIMSAH
 70
0
  9
$DIMBLK1
  1

  9
$DIMBLK2
  1

  9
$DIMSTYLE
  2
Civil-Metric
  9
$DIMCLRD
 70
0
  9
$DIMCLRE
 70
0
  9
$DIMCLRT
 70
0
  9
$DIMTFAC
 40
1.0
  9
$DIMGAP
 40
2.0
  9
$DIMJUST
 70
0
  9
$DIMSD1
 70
0
  9
$DIMSD2
 70
0
  9
$DIMTOLJ
 70
1
  9
$DIMTZIN
 70
0
  9
$DIMALTZ
 70
0
  9
$DIMALTTZ
 70
0
  9
$DIMUPT
 70
0
  9
$DIMDEC
 70
2
  9
$DIMTDEC
 70
2
  9
$DIMALTU
 70
2
  9
$DIMALTTD
 70
2
  9
$DIMTXSTY
  7
Standard
  9
$DIMAUNIT
 70
0
  9
$DIMADEC
 70
2
  9
$DIMALTRND
 40
0.0
  9
$DIMAZIN
 70
2
  9
$DIMDSEP
 70
46
  9
$DIMATFIT
 70
3
  9
$DIMFRAC
 70
1
  9
$DIMLDRBLK
  1

  9
$DIMLUNIT
 70
2
  9
$DIMLWD
 70
-2
  9
$DIMLWE
 70
-2
  9
$DIMTMOVE
 70
0
  9
$LUNITS
 70
2
  9
$LUPREC
 70
4
  9
$SKETCHINC
 40
0.1
  9
$FILLETRAD
 40
0.0
  9
$AUNITS
 70
4
  9
$AUPREC
 70
5
  9
$MENU
  1
.
  9
$ELEVATION
 40
0.0
  9
$PELEVATION
 40
0.0
  9
$THICKNESS
 40
0.0
  9
$LIMCHECK
 70
0
  9
$CHAMFERA
 40
0.0
  9
$CHAMFERB
 40
0.0
  9
$CHAMFERC
 40
0.0
  9
$CHAMFERD
 40
0.0
  9
$SKPOLY
 70
0
  9
$TDCREATE
 40
2455631.34653463
  9
$TDUPDATE
 40
2458141.271863426
  9
$TDINDWG
 40
0.0
  9
$TDUSRTIMER
 40
0.0
  9
$USRTIMER
 70
1
  9
$ANGBASE
 50
0.0
  9
$ANGDIR
 70
0
  9
$PDMODE
 70
0
  9
$PDSIZE
 40
0.0
  9
$PLINEWID
 40
0.0
  9
$SPLFRAME
 70
0
  9
$SPLINETYPE
 70
6
  9
$SPLINESEGS
 70
8
  9
$HANDSEED
  5
14b4
  9
$SURFTAB1
 70
6
  9
$SURFTAB2
 70
6
  9
$SURFTYPE
 70
6
  9
$SURFU
 70
6
  9
$SURFV
 70
6
  9
$UCSBASE
  2

  9
$UCSNAME
  2

  9
$UCSORG
 10
0.0
 20
0.0
 30
0.0
  9
$UCSXDIR
 10
1.0
 20
0.0
 30
0.0
  9
$UCSYDIR
 10
0.0
 20
1.0
 30
0.0
  9
$UCSORTHOREF
  2

  9
$UCSORTHOVIEW
 70
0
  9
$UCSORGTOP
 10
0.0
 20
0.0
 30
0.0
  9
$UCSORGBOTTOM
 10
0.0
 20
0.0
 30
0.0
  9
$UCSORGLEFT
 10
0.0
 20
0.0
 30
0.0
  9
$UCSORGRIGHT
 10
0.0
 20
0.0
 30
0.0
  9
$UCSORGFRONT
 10
0.0
 20
0.0
 30
0.0
  9
$UCSORGBACK
 10
0.0
 20
0.0
 30
0.0
  9
$PUCSBASE
  2

  9
$PUCSNAME
  2

  9
$PUCSORG
 10
0.0
 20
0.0
 30
0.0
  9
$PUCSXDIR
 10
1.0
 20
0.0
 30
0.0
  9
$PUCSYDIR
 10
0.0
 20
1.0
 30
0.0
  9
$PUCSORTHOREF
  2

  9
$PUCSORTHOVIEW
 70
0
  9
$PUCSORGTOP
 10
0.0
 20
0.0
 30
0.0
  9
$PUCSORGBOTTOM
 10
0.0
 20
0.0
 30
0.0
  9
$PUCSORGLEFT
 10
0.0
 20
0.0
 30
0.0
  9
$PUCSORGRIGHT
 10
0.0
 20
0.0
 30
0.0
  9
$PUCSORGFRONT
 10
0.0
 20
0.0
 30
0.0
  9
$PUCSORGBACK
 10
0.0
 20
0.0
 30
0.0
  9
$USERI1
 70
0
  9
$USERI2
 70
0
  9
$USERI3
 70
0
  9
$USERI4
 70
0
  9
$USERI5
 70
0
  9
$USERR1
 40
0.0
  9
$USERR2
 40
0.0
  9
$USERR3
 40
0.0
  9
$USERR4
 40
0.0
  9
$USERR5
 40
0.0
  9
$WORLDVIEW
 70
1
  9
$SHADEDGE
 70
3
  9
$SHADEDIF
 70
70
  9
$TILEMODE
 70
1
  9
$MAXACTVP
 70
64
  9
$PINSBASE
 10
0.0
 20
0.0
 30
0.0
  9
$PLIMCHECK
 70
0
  9
$PEXTMIN
 10
0.62886676639706
 20
0.7999999523162842
 30
0.0
  9
$PEXTMAX
 10
9.028866384927335
 20
7.199999570846558
 30
0.0
  9
$PLIMMIN
 10
-0.7005418191744587
 20
-0.2281003861915408
  9
$PLIMMAX
 10
10.29945794052965
 20
8.27189937351257
  9
$UNITMODE
 70
0
  9
$VISRETAIN
 70
1
  9
$PLINEGEN
 70
0
  9
$PSLTSCALE
 70
1
  9
$TREEDEPTH
 70
3020
  9
$CMLSTYLE
  2
Standard
  9
$CMLJUST
 70
0
  9
$CMLSCALE
 40
1.0
  9
$PROXYGRAPHICS
 70
1
  9
$MEASUREMENT
 70
1
  9
$CELWEIGHT
370
-1
  9
$ENDCAPS
280
0
  9
$JOINSTYLE
280
0
  9
$LWDISPLAY
290
0
  9
$INSUNITS
 70
4
  9
$HYPERLINKBASE
  1

  9
$STYLESHEET
  1

  9
$XEDIT
290
1
  9
$CEPSNTYPE
380
0
  9
$PSTYLEMODE
290
1
  9
$FINGERPRINTGUID
  2
{39DB1BDD-BC6C-46D3-A333-DFCC0DC4782D}
  9
$VERSIONGUID
  2
{69EEBB2D-7039-498F-9366-3F994E4A07E7}
  9
$EXTNAMES
290
1
  9
$PSVPSCALE
 40
0.0
  9
$OLESTARTUP
290
0
  9
$SORTENTS
280
127
  9
$INDEXCTL
280
0
  9
$HIDETEXT
280
1
  9
$XCLIPFRAME
290
0
  9
$HALOGAP
280
0
  9
$OBSCOLOR
 70
257
  9
$OBSLTYPE
280
0
  9
$INTERSECTIONDISPLAY
280
0
  9
$INTERSECTIONCOLOR
 70
257
  9
$DIMASSOC
280
2
  9
$PROJECTNAME
  1

  0
ENDSEC
  0
SECTION
  2
CLASSES
  0
CLASS
  1
ACDBDICTIONARYWDFLT
  2
AcDbDictionaryWithDefault
  3
ObjectDBX Classes
 90
0
 91
0
280
0
281
0
  0
CLASS
  1
DICTIONARYVAR
  2
AcDbDictionaryVar
  3
ObjectDBX Classes
 90
0
 91
0
280
0
281
0
  0
CLASS
  1
TABLESTYLE
  2
AcDbTableStyle
  3
ObjectDBX Classes
 90
4095
 91
0
280
0
281
0
  0
CLASS
  1
MATERIAL
  2
AcDbMaterial
  3
ObjectDBX Classes
 90
1153
 91
0
280
0
281
0
  0
CLASS
  1
VISUALSTYLE
  2
AcDbVisualStyle
  3
ObjectDBX Classes
 90
4095
 91
0
280
0
281
0
  0
CLASS
  1
SCALE
  2
AcDbScale
  3
ObjectDBX Classes
 90
1153
 91
0
280
0
281
0
  0
CLASS
  1
MLEADERSTYLE
  2
AcDbMLeaderStyle
  3
ACDB_MLEADERSTYLE_CLASS
 90
4095
 91
0
280
0
281
0
  0
CLASS
  1
CELLSTYLEMAP
  2
AcDbCellStyleMap
  3
ObjectDBX Classes
 90
1152
 91
0
280
0
281
0
  0
CLASS
  1
EXACXREFPANELOBJECT
  2
ExAcXREFPanelObject
  3
EXAC_ESW
 90
1025
 91
0
280
0
281
0
  0
CLASS
  1
NPOCOLLECTION
  2
AcDbImpNonPersistentObjectsCollection
  3
ObjectDBX Classes
 90
1153
 91
0
280
0
281
0
  0
CLASS
  1
LAYER_INDEX
  2
AcDbLayerIndex
  3
ObjectDBX Classes
 90
0
 91
0
280
0
281
0
  0
CLASS
  1
SPATIAL_INDEX
  2
AcDbSpatialIndex
  3
ObjectDBX Classes
 90
0
 91
0
280
0
281
0
  0
CLASS
  1
IDBUFFER
  2
AcDbIdBuffer
  3
ObjectDBX Classes
 90
0
 91
0
280
0
281
0
  0
CLASS
  1
DIMASSOC
  2
AcDbDimAssoc
  3
"AcDbDimAssoc|Product Desc:     AcDim ARX App For Dimension|Company:          Autodesk, Inc.|WEB Address:      www.autodesk.com"
 90
0
 91
0
280
0
281
0
  0
CLASS
  1
IMAGEDEF
  2
AcDbRasterImageDef
  3
ISM
 90
0
 91
0
280
0
281
0
  0
CLASS
  1
RASTERVARIABLES
  2
AcDbRasterVariables
  3
ISM
 90
0
 91
0
280
0
281
0
  0
CLASS
  1
IMAGEDEF_REACTOR
  2
AcDbRasterImageDefReactor
  3
ISM
 90
1
 91
0
280
0
281
0
  0
CLASS
  1
IMAGE
  2
AcDbRasterImage
  3
ISM
 90
2175
 91
0
280
0
281
1
  0
CLASS
  1
PDFDEFINITION
  2
AcDbPdfDefinition
  3
ObjectDBX Classes
 90
1153
 91
0
280
0
281
0
  0
CLASS
  1
PDFUNDERLAY
  2
AcDbPdfReference
  3
ObjectDBX Classes
 90
4095
 91
0
280
0
281
1
  0
CLASS
  1
DWFDEFINITION
  2
AcDbDwfDefinition
  3
ObjectDBX Classes
 90
1153
 91
0
280
0
281
0
  0
CLASS
  1
DWFUNDERLAY
  2
AcDbDwfReference
  3
ObjectDBX Classes
 90
1153
 91
0
280
0
281
1
  0
CLASS
  1
DGNDEFINITION
  2
AcDbDgnDefinition
  3
ObjectDBX Classes
 90
1153
 91
0
280
0
281
0
  0
CLASS
  1
DGNUNDERLAY
  2
AcDbDgnReference
  3
ObjectDBX Classes
 90
1153
 91
0
280
0
281
1
  0
ENDSEC
  0
SECTION
  2
TABLES
  0
TABLE
  2
VPORT
  5
8
330
0
100
AcDbSymbolTable
 70
0
  0
ENDTAB
  0
TABLE
  2
LTYPE
  5
5
330
0
100
AcDbSymbolTable
 70
7
  0
LTYPE
  5
14
330
5
100
AcDbSymbolTableRecord
100
AcDbLinetypeTableRecord
  2
ByBlock
 70
0
  3

 72
65
 73
0
 40
0.0
  0
LTYPE
  5
15
330
5
100
AcDbSymbolTableRecord
100
AcDbLinetypeTableRecord
  2
ByLayer
 70
0
  3

 72
65
 73
0
 40
0.0
  0
LTYPE
  5
16
330
5
100
AcDbSymbolTableRecord
100
AcDbLinetypeTableRecord
  2
Continuous
 70
0
  3
Solid line
 72
65
 73
0
 40
0.0
  0
LTYPE
  5
1B1
330
5
100
AcDbSymbolTableRecord
100
AcDbLinetypeTableRecord
  2
CENTER
 70
0
  3
Center ____ _ ____ _ ____ _ ____ _ ____ _ ____
 72
65
 73
4
 40
2.0
 49
1.25
 74
0
 49
-0.25
 74
0
 49
0.25
 74
0
 49
-0.25
 74
0
  0
LTYPE
  5
1B2
330
5
100
AcDbSymbolTableRecord
100
AcDbLinetypeTableRecord
  2
DASHED
 70
0
  3
Dashed __ __ __ __ __ __ __ __ __ __ __ __ __ _
 72
65
 73
2
 40
0.75
 49
0.5
 74
0
 49
-0.25
 74
0
  0
LTYPE
  5
1B3
330
5
100
AcDbSymbolTableRecord
100
AcDbLinetypeTableRecord
  2
PHANTOM
 70
0
  3
Phantom ______  __  __  ______  __  __  ______
 72
65
 73
6
 40
2.5
 49
1.25
 74
0
 49
-0.25
 74
0
 49
0.25
 74
0
 49
-0.25
 74
0
 49
0.25
 74
0
 49
-0.25
 74
0
  0
LTYPE
  5
39E
330
5
100
AcDbSymbolTableRecord
100
AcDbLinetypeTableRecord
  2
HIDDEN
 70
0
  3
Hidden __ __ __ __ __ __ __ __ __ __ __ __ __ __
 72
65
 73
2
 40
9.525
 49
6.35
 74
0
 49
-3.175
 74
0
  0
ENDTAB
  0
TABLE
  2
LAYER
  5
2
330
0
100
AcDbSymbolTable
 70
3
  0
LAYER
  5
10
330
2
100
AcDbSymbolTableRecord
100
AcDbLayerTableRecord
  2
0
 70
0
 62
7
  6
Continuous
370
-3
390
4DA
  0
LAYER
  5
1B4
330
2
100
AcDbSymbolTableRecord
100
AcDbLayerTableRecord
  2
View Port
 70
0
 62
7
  6
Continuous
290
0
370
-3
390
4DA
  0
LAYER
  5
21D
330
2
100
AcDbSymbolTableRecord
100
AcDbLayerTableRecord
  2
Defpoints
 70
0
 62
7
  6
Continuous
290
0
370
-3
390
4DA
  0
ENDTAB
  0
TABLE
  2
STYLE
  5
3
330
0
100
AcDbSymbolTable
 70
3
  0
STYLE
  5
11
330
3
100
AcDbSymbolTableRecord
100
AcDbTextStyleTableRecord
  2
Standard
 70
0
 40
0.0
 41
1.0
 50
0.0
 71
0
 42
0.2
  3
arial.ttf
  4

  0
STYLE
  5
DC
330
3
100
AcDbSymbolTableRecord
100
AcDbTextStyleTableRecord
  2
Annotative
 70
0
 40
0.0
 41
1.0
 50
0.0
 71
0
 42
0.2
  3
arial.ttf
  4

  0
STYLE
  5
178
330
3
100
AcDbSymbolTableRecord
100
AcDbTextStyleTableRecord
  2
Notes
 70
0
 40
3.0
 41
1.0
 50
0.0
 71
0
 42
0.2
  3
arial.ttf
  4

  0
ENDTAB
  0
TABLE
  2
VIEW
  5
6
330
0
100
AcDbSymbolTable
 70
0
  0
ENDTAB
  0
TABLE
  2
UCS
  5
7
330
0
100
AcDbSymbolTable
 70
0
  0
ENDTAB
  0
TABLE
  2
APPID
  5
9
330
0
100
AcDbSymbolTable
 70
11
  0
APPID
  5
12
330
9
100
AcDbSymbolTableRecord
100
AcDbRegAppTableRecord
  2
ACAD
 70
0
  0
APPID
  5
DD
330
9
100
AcDbSymbolTableRecord
100
AcDbRegAppTableRecord
  2
AcadAnnoPO
 70
0
  0
APPID
  5
DE
330
9
100
AcDbSymbolTableRecord
100
AcDbRegAppTableRecord
  2
AcadAnnotative
 70
0
  0
APPID
  5
DF
330
9
100
AcDbSymbolTableRecord
100
AcDbRegAppTableRecord
  2
ACAD_DSTYLE_DIMJAG
 70
0
  0
APPID
  5
E0
330
9
100
AcDbSymbolTableRecord
100
AcDbRegAppTableRecord
  2
ACAD_DSTYLE_DIMTALN
 70
0
  0
APPID
  5
107
330
9
100
AcDbSymbolTableRecord
100
AcDbRegAppTableRecord
  2
ACAD_MLEADERVER
 70
0
  0
APPID
  5
1B5
330
9
100
AcDbSymbolTableRecord
100
AcDbRegAppTableRecord
  2
AcAecLayerStandard
 70
0
  0
APPID
  5
1BA
330
9
100
AcDbSymbolTableRecord
100
AcDbRegAppTableRecord
  2
ACAD_EXEMPT_FROM_CAD_STANDARDS
 70
0
  0
APPID
  5
237
330
9
100
AcDbSymbolTableRecord
100
AcDbRegAppTableRecord
  2
ACAD_DSTYLE_DIMBREAK
 70
0
  0
APPID
  5
28E
330
9
100
AcDbSymbolTableRecord
100
AcDbRegAppTableRecord
  2
ACAD_PSEXT
 70
0
  0
APPID
  5
49A
330
9
100
AcDbSymbolTableRecord
100
AcDbRegAppTableRecord
  2
HATCHBACKGROUNDCOLOR
 70
0
  0
ENDTAB
  0
TABLE
  2
DIMSTYLE
  5
A
330
0
100
AcDbSymbolTable
 70
3
100
AcDbDimStyleTable
 71
3
340
242
340
27
340
E1
  0
DIMSTYLE
105
27
330
A
100
AcDbSymbolTableRecord
100
AcDbDimStyleTableRecord
  2
Standard
 70
0
 41
3.0
 42
2.0
 43
9.0
 44
5.0
140
3.0
141
2.0
147
2.0
340
11
1001
ACAD_DSTYLE_DIMJAG
1070
388
1040
38.0
1001
ACAD_DSTYLE_DIMBREAK
1070
391
1040
90.0
1001
ACAD_DSTYLE_DIMTALN
1070
392
1070
0
  0
DIMSTYLE
105
E1
330
A
100
AcDbSymbolTableRecord
100
AcDbDimStyleTableRecord
  2
Annotative
 70
0
 40
0.0
 41
3.0
 42
2.5
 43
10.0
 44
5.0
140
3.0
141
2.0
147
2.0
340
11
1001
AcadAnnotative
1000
AnnotativeData
1002
{
1070
1
1070
1
1002
}
1001
ACAD_DSTYLE_DIMJAG
1070
388
1040
38.0
1001
ACAD_DSTYLE_DIMBREAK
1070
391
1040
90.0
1001
ACAD_DSTYLE_DIMTALN
1070
392
1070
0
  0
DIMSTYLE
105
242
330
A
100
AcDbSymbolTableRecord
100
AcDbDimStyleTableRecord
  2
Civil-Metric
 70
0
 41
3.0
 42
1.5
 43
6.0
 44
3.0
 73
0
 74
0
 77
1
 78
3
 79
2
140
3.0
141
3.0
147
2.0
179
2
271
2
272
2
276
1
340
11
1001
ACAD_DSTYLE_DIMBREAK
1070
391
1040
3.0
1001
ACAD_DSTYLE_DIMJAG
1070
388
1040
38.0
1001
ACAD_DSTYLE_DIMTALN
1070
392
1070
0
  0
ENDTAB
  0
TABLE
  2
BLOCK_RECORD
  5
1
330
0
100
AcDbSymbolTable
 70
4
  0
BLOCK_RECORD
  5
1F
330
1
100
AcDbSymbolTableRecord
100
AcDbBlockTableRecord
  2
*Model_Space
340
4DF
  0
BLOCK_RECORD
  5
58
330
1
100
AcDbSymbolTableRecord
100
AcDbBlockTableRecord
  2
*Paper_Space
340
4E0
  0
BLOCK_RECORD
  5
238
330
1
100
AcDbSymbolTableRecord
100
AcDbBlockTableRecord
  2
_ArchTick
340
0
  0
BLOCK_RECORD
  5
23C
330
1
100
AcDbSymbolTableRecord
100
AcDbBlockTableRecord
  2
_Open30
340
0
  0
ENDTAB
  0
ENDSEC
  0
SECTION
  2
BLOCKS
  0
BLOCK
  5
5A
330
58
100
AcDbEntity
 67
1
  8
0
100
AcDbBlockBegin
  2
*Paper_Space
 70
0
 10
0.0
 20
0.0
 30
0.0
  3
*Paper_Space
  1

  0
ENDBLK
  5
5B
330
58
100
AcDbEntity
 67
1
  8
0
100
AcDbBlockEnd
  0
BLOCK
  5
20
330
1F
100
AcDbEntity
  8
0
100
AcDbBlockBegin
  2
*Model_Space
 70
0
 10
0.0
 20
0.0
 30
0.0
  3
*Model_Space
  1

  0
ENDBLK
  5
21
330
1F
100
AcDbEntity
  8
0
100
AcDbBlockEnd
  0
BLOCK
  5
23A
330
238
100
AcDbEntity
  8
0
100
AcDbBlockBegin
  2
_ArchTick
 70
0
 10
0.0
 20
0.0
 30
0.0
  3
_ArchTick
  1

  0
LWPOLYLINE
  5
239
330
238
100
AcDbEntity
  8
0
  6
ByBlock
 62
0
100
AcDbPolyline
 90
2
 70
0
 43
0.15
 10
-0.5
 20
-0.5
 10
0.5
 20
0.5
  0
ENDBLK
  5
23B
330
238
100
AcDbEntity
  8
0
100
AcDbBlockEnd
  0
BLOCK
  5
240
330
23C
100
AcDbEntity
  8
0
100
AcDbBlockBegin
  2
_Open30
 70
0
 10
0.0
 20
0.0
 30
0.0
  3
_Open30
  1

  0
LINE
  5
23D
330
23C
100
AcDbEntity
  8
0
  6
ByBlock
 62
0
370
-2
100
AcDbLine
 10
-1.0
 20
0.26794919
 30
0.0
 11
0.0
 21
0.0
 31
0.0
  0
LINE
  5
23E
330
23C
100
AcDbEntity
  8
0
  6
ByBlock
 62
0
370
-2
100
AcDbLine
 10
0.0
 20
0.0
 30
0.0
 11
-1.0
 21
-0.26794919
 31
0.0
  0
LINE
  5
23F
330
23C
100
AcDbEntity
  8
0
  6
ByBlock
 62
0
370
-2
100
AcDbLine
 10
0.0
 20
0.0
 30
0.0
 11
-1.0
 21
0.0
 31
0.0
  0
ENDBLK
  5
241
330
23C
100
AcDbEntity
  8
0
100
AcDbBlockEnd
  0
ENDSEC
  0
SECTION
  2
ENTITIES
  0
MESH
  5
1389
330
1F
  100
AcDbEntity
8
buildings
  100
AcDbSubDMesh
71
2
72
0
91
0
92
18
10
167.6779
20
161.5478
30
4.0000
10
165.2069
20
157.9813
30
4.0000
10
196.7271
20
136.3292
30
4.0000
10
199.2542
20
134.5886
30
4.0000
10
214.8101
20
156.9956
30
4.0000
10
212.9731
20
158.2594
30
4.0000
10
216.3976
20
163.1994
30
4.0000
10
177.7142
20
189.7738
30
4.0000
10
161.2048
20
165.9935
30
4.0000
10
167.6779
20
161.5478
30
0.0000
10
165.2069
20
157.9813
30
0.0000
10
196.7271
20
136.3292
30
0.0000
10
199.2542
20
134.5886
30
0.0000
10
214.8101
20
156.9956
30
0.0000
10
212.9731
20
158.2594
30
0.0000
10
216.3976
20
163.1994
30
0.0000
10
177.7142
20
189.7738
30
0.0000
10
161.2048
20
165.9935
30
0.0000
93
101
90
3
90
0
90
1
90
2
90
3
90
9
90
11
90
10
90
3
90
7
90
8
90
0
90
3
90
16
90
9
90
17
90
3
90
0
90
5
90
7
90
3
90
9
90
16
90
14
90
3
90
2
90
3
90
5
90
3
90
11
90
14
90
12
90
3
90
4
90
5
90
3
90
3
90
13
90
12
90
14
90
3
90
6
90
7
90
5
90
3
90
15
90
14
90
16
90
3
90
5
90
0
90
2
90
3
90
14
90
11
90
9
90
4
90
1
90
0
90
9
90
10
90
4
90
2
90
1
90
10
90
11
90
4
90
3
90
2
90
11
90
12
90
4
90
4
90
3
90
12
90
13
90
4
90
5
90
4
90
13
90
14
90
4
90
6
90
5
90
14
90
15
90
4
90
7
90
6
90
15
90
16
90
4
90
8
90
7
90
16
90
17
90
4
90
0
90
8
90
17
90
9
94
0
95
0
0
LWPOLYLINE
  5
138a
330
1F
  100
AcDbEntity
8
minor_roads
  100
AcDbPolyline
70
0
38
0.0000
90
6
10
542.5488
20
162.5946
10
538.1192
20
171.2795
10
535.6944
20
180.1864
10
527.4020
20
188.6964
10
517.7368
20
188.1061
10
510.5057
20
181.3112
0
LWPOLYLINE
  5
138b
330
1F
  100
AcDbEntity
8
parks
  100
AcDbPolyline
70
0
38
0.0000
90
8
10
630.2169
20
714.0460
10
714.2915
20
714.0103
10
714.2678
20
653.8930
10
708.0410
20
653.1350
10
698.5654
20
657.1785
10
694.0438
20
659.6505
10
678.9240
20
670.8934
10
630.2169
20
714.0460
0
LWPOLYLINE
  5
138c
330
1F
  100
AcDbEntity
8
paths
  100
AcDbPolyline
70
0
38
0.0000
90
2
10
264.6354
20
668.9944
10
268.0087
20
714.2000
0
LWPOLYLINE
  5
138d
330
1F
  100
AcDbEntity
8
paths
  100
AcDbPolyline
70
0
38
0.0000
90
2
10
587.8094
20
714.0641
10
588.0810
20
712.2092
0
LWPOLYLINE
  5
138e
330
1F
  100
AcDbEntity
8
paths
  100
AcDbPolyline
70
0
38
0.0000
90
2
10
94.3645
20
667.8250
10
90.2072
20
664.7159
0
LWPOLYLINE
  5
138f
330
1F
  100
AcDbEntity
8
paths
  100
AcDbPolyline
70
0
38
0.0000
90
2
10
22.5860
20
714.2631
10
22.6521
20
714.3043
0
LWPOLYLINE
  5
1390
330
1F
  100
AcDbEntity
8
paths
  100
AcDbPolyline
70
0
38
0.0000
90
3
10
95.8319
20
714.2732
10
92.8120
20
712.9684
10
88.4405
20
714.2763
0
LWPOLYLINE
  5
1391
330
1F
  100
AcDbEntity
8
minor_roads
  100
AcDbPolyline
70
0
38
0.0000
90
6
10
510.5057
20
181.3112
10
511.4621
20
168.7830
10
523.4961
20
162.8996
10
534.0502
20
165.0312
10
542.5488
20
162.5946
10
555.0809
20
139.1870
  0
MESH
  5
1392
330
1F
  100
AcDbEntity
8
buildings
  100
AcDbSubDMesh
71
2
72
0
91
0
92
12
10
300.0145
20
471.9990
30
4.0000
10
318.7606
20
499.1267
30
4.0000
10
298.5734
20
512.9261
30
4.0000
10
292.6047
20
504.3106
30
4.0000
10
294.8938
20
502.7495
30
4.0000
10
282.1001
20
484.2466
30
4.0000
10
300.0145
20
471.9990
30
0.0000
10
318.7606
20
499.1267
30
0.0000
10
298.5734
20
512.9261
30
0.0000
10
292.6047
20
504.3106
30
0.0000
10
294.8938
20
502.7495
30
0.0000
10
282.1001
20
484.2466
30
0.0000
93
62
90
3
90
4
90
5
90
0
90
3
90
10
90
6
90
11
90
3
90
3
90
4
90
2
90
3
90
9
90
8
90
10
90
3
90
4
90
1
90
2
90
3
90
10
90
8
90
7
90
3
90
1
90
4
90
0
90
3
90
7
90
6
90
10
90
4
90
1
90
0
90
6
90
7
90
4
90
2
90
1
90
7
90
8
90
4
90
3
90
2
90
8
90
9
90
4
90
4
90
3
90
9
90
10
90
4
90
5
90
4
90
10
90
11
90
4
90
0
90
5
90
11
90
6
94
0
95
0
0
LWPOLYLINE
  5
1393
330
1F
  100
AcDbEntity
8
paths
  100
AcDbPolyline
70
0
38
0.0000
90
2
10
483.5267
20
523.2956
10
488.0601
20
529.5437
0
LWPOLYLINE
  5
1394
330
1F
  100
AcDbEntity
8
minor_roads
  100
AcDbPolyline
70
0
38
0.0000
90
7
10
25.2678
20
572.6397
10
30.4162
20
568.6626
10
32.2246
20
567.2688
10
49.8099
20
567.0380
10
52.7610
20
569.6276
10
53.7924
20
579.9075
10
54.4284
20
634.9867
0
LWPOLYLINE
  5
1395
330
1F
  100
AcDbEntity
8
major_roads
  100
AcDbPolyline
70
0
38
0.0000
90
7
10
714.1817
20
435.1820
10
697.9199
20
446.5936
10
666.4742
20
470.2500
10
659.6718
20
475.3697
10
646.6209
20
484.8287
10
633.5617
20
493.8978
10
435.3219
20
631.5335
0
LWPOLYLINE
  5
1396
330
1F
  100
AcDbEntity
8
minor_roads
  100
AcDbPolyline
70
0
38
0.0000
90
14
10
714.2275
20
551.6860
10
691.0729
20
524.3352
10
683.2870
20
515.1073
10
662.2558
20
497.7403
10
646.6209
20
484.8287
10
632.6566
20
472.2694
10
606.8639
20
449.0816
10
605.5188
20
447.8935
10
603.0488
20
445.7028
10
597.5299
20
440.8202
10
590.8290
20
434.8980
10
541.9172
20
391.6884
10
523.2980
20
375.2492
10
517.5265
20
370.3668
0
LWPOLYLINE
  5
1397
330
1F
  100
AcDbEntity
8
minor_roads
  100
AcDbPolyline
70
0
38
0.0000
90
2
10
403.7195
20
493.5279
10
449.9841
20
559.0169
0
LWPOLYLINE
  5
1398
330
1F
  100
AcDbEntity
8
minor_roads
  100
AcDbPolyline
70
0
38
0.0000
90
2
10
388.7537
20
579.9376
10
353.5205
20
528.8664
0
LWPOLYLINE
  5
1399
330
1F
  100
AcDbEntity
8
paths
  100
AcDbPolyline
70
0
38
0.0000
90
8
10
436.0350
20
446.4122
10
443.3656
20
457.5810
10
443.3665
20
459.6241
10
441.7700
20
461.4450
10
390.2665
20
495.7252
10
375.3422
20
506.6434
10
326.2755
20
540.8207
10
292.5089
20
565.6772
0
LWPOLYLINE
  5
139a
330
1F
  100
AcDbEntity
8
parks
  100
AcDbPolyline
70
0
38
0.0000
90
22
10
714.2502
20
609.3354
10
714.2408
20
585.2615
10
693.3753
20
555.8720
10
672.5687
20
570.4975
10
670.3110
20
569.3747
10
666.2447
20
569.3763
10
653.3706
20
572.5296
10
641.4189
20
579.2765
10
634.8692
20
584.4333
10
631.4892
20
588.9387
10
636.4221
20
595.9667
10
618.1085
20
608.6504
10
616.9099
20
606.9514
10
615.3458
20
608.0479
10
619.7079
20
614.2497
10
622.0053
20
612.6421
10
648.1291
20
649.7135
10
645.5711
20
651.4975
10
650.3653
20
658.2749
10
652.5894
20
656.7138
10
650.6733
20
654.0122
10
714.2502
20
609.3354
0
LWPOLYLINE
  5
139b
330
1F
  100
AcDbEntity
8
water
  100
AcDbPolyline
70
0
38
0.0000
90
33
10
478.3793
20
687.3844
10
480.3289
20
692.2498
10
484.2490
20
693.4647
10
497.7012
20
689.8002
10
504.5437
20
683.4732
10
508.7054
20
677.8809
10
510.4128
20
668.3799
10
513.3388
20
650.1210
10
517.7430
20
639.4209
10
525.0740
20
632.1093
10
571.7943
20
598.7417
10
582.3112
20
590.7044
10
589.8941
20
581.4518
10
616.7920
20
556.8590
10
649.3198
20
529.5895
10
654.7047
20
525.6870
10
655.4370
20
523.0121
10
654.2057
20
521.0624
10
650.5467
20
520.5810
10
645.8944
20
522.5330
10
616.0612
20
543.2265
10
602.3590
20
553.9488
10
580.8352
20
567.8319
10
565.6747
20
579.2699
10
545.3734
20
593.6447
10
526.7750
20
607.0438
10
519.9415
20
615.5625
10
508.1966
20
629.6831
10
497.9288
20
648.9201
10
490.8375
20
664.2554
10
484.9743
20
673.7395
10
479.1029
20
683.2422
10
478.3793
20
687.3844
  0
MESH
  5
139c
330
1F
  100
AcDbEntity
8
buildings
  100
AcDbSubDMesh
71
2
72
0
91
0
92
8
10
316.5933
20
461.7765
30
4.0000
10
321.2806
20
465.5542
30
4.0000
10
317.7051
20
469.9669
30
4.0000
10
313.0096
20
466.1985
30
4.0000
10
316.5933
20
461.7765
30
0.0000
10
321.2806
20
465.5542
30
0.0000
10
317.7051
20
469.9669
30
0.0000
10
313.0096
20
466.1985
30
0.0000
93
36
90
3
90
3
90
0
90
2
90
3
90
7
90
6
90
4
90
3
90
1
90
2
90
0
90
3
90
5
90
4
90
6
90
4
90
1
90
0
90
4
90
5
90
4
90
2
90
1
90
5
90
6
90
4
90
3
90
2
90
6
90
7
90
4
90
0
90
3
90
7
90
4
94
0
95
0
  0
MESH
  5
139d
330
1F
  100
AcDbEntity
8
buildings
  100
AcDbSubDMesh
71
2
72
0
91
0
92
8
10
320.4158
20
501.3548
30
4.0000
10
329.6493
20
502.9017
30
4.0000
10
328.3487
20
510.5731
30
4.0000
10
319.1153
20
509.0262
30
4.0000
10
320.4158
20
501.3548
30
0.0000
10
329.6493
20
502.9017
30
0.0000
10
328.3487
20
510.5731
30
0.0000
10
319.1153
20
509.0262
30
0.0000
93
36
90
3
90
3
90
0
90
2
90
3
90
7
90
6
90
4
90
3
90
1
90
2
90
0
90
3
90
5
90
4
90
6
90
4
90
1
90
0
90
4
90
5
90
4
90
2
90
1
90
5
90
6
90
4
90
3
90
2
90
6
90
7
90
4
90
0
90
3
90
7
90
4
94
0
95
0
  0
MESH
  5
139e
330
1F
  100
AcDbEntity
8
buildings
  100
AcDbSubDMesh
71
2
72
0
91
0
92
8
10
328.7561
20
453.1440
30
4.0000
10
332.1645
20
458.0923
30
4.0000
10
324.6044
20
463.2497
30
4.0000
10
321.1878
20
458.2828
30
4.0000
10
328.7561
20
453.1440
30
0.0000
10
332.1645
20
458.0923
30
0.0000
10
324.6044
20
463.2497
30
0.0000
10
321.1878
20
458.2828
30
0.0000
93
36
90
3
90
2
90
3
90
0
90
3
90
6
90
4
90
7
90
3
90
0
90
1
90
2
90
3
90
4
90
6
90
5
90
4
90
1
90
0
90
4
90
5
90
4
90
2
90
1
90
5
90
6
90
4
90
3
90
2
90
6
90
7
90
4
90
0
90
3
90
7
90
4
94
0
95
0
0
LWPOLYLINE
  5
139f
330
1F
  100
AcDbEntity
8
water
  100
AcDbPolyline
70
0
38
0.0000
90
11
10
55.7064
20
451.3788
10
56.4739
20
454.7216
10
59.8394
20
454.7201
10
81.5252
20
439.2851
10
83.5847
20
434.4087
10
80.2249
20
429.0146
10
71.9601
20
425.4244
10
67.5758
20
425.1664
10
64.7248
20
427.7401
10
56.4708
20
447.7752
10
55.7064
20
451.3788
0
LWPOLYLINE
  5
13a0
330
1F
  100
AcDbEntity
8
paths
  100
AcDbPolyline
70
0
38
0.0000
90
6
10
93.3291
20
339.4572
10
107.4215
20
345.1715
10
117.6749
20
349.3273
10
144.6043
20
360.2272
10
118.4323
20
421.5775
10
138.2468
20
430.9947
0
LWPOLYLINE
  5
13a1
330
1F
  100
AcDbEntity
8
minor_roads
  100
AcDbPolyline
70
0
38
0.0000
90
5
10
125.4045
20
249.1669
10
131.1181
20
251.5881
10
144.3222
20
257.1729
10
191.9790
20
276.8675
10
220.0415
20
288.4728
0
LWPOLYLINE
  5
13a2
330
1F
  100
AcDbEntity
8
minor_roads
  100
AcDbPolyline
70
0
38
0.0000
90
2
10
120.2589
20
314.5382
10
264.7362
20
375.0425
0
LWPOLYLINE
  5
13a3
330
1F
  100
AcDbEntity
8
minor_roads
  100
AcDbPolyline
70
0
38
0.0000
90
4
10
109.1155
20
288.2990
10
113.8754
20
290.1728
10
128.1226
20
295.8034
10
285.7875
20
361.3077
0
LWPOLYLINE
  5
13a4
330
1F
  100
AcDbEntity
8
minor_roads
  100
AcDbPolyline
70
0
38
0.0000
90
4
10
51.9119
20
367.6145
10
59.0018
20
350.0316
10
72.7179
20
316.5654
10
84.0084
20
288.9974
0
LWPOLYLINE
  5
13a5
330
1F
  100
AcDbEntity
8
paths
  100
AcDbPolyline
70
0
38
0.0000
90
4
10
91.4691
20
316.7149
10
72.7179
20
316.5654
10
58.5603
20
310.6747
10
48.9711
20
333.7844
0
LWPOLYLINE
  5
13a6
330
1F
  100
AcDbEntity
8
paths
  100
AcDbPolyline
70
0
38
0.0000
90
10
10
226.4294
20
304.7403
10
233.5285
20
288.9034
10
233.5270
20
285.4395
10
232.0423
20
281.9669
10
230.8031
20
280.6395
10
229.0502
20
278.7550
10
227.0588
20
271.8280
10
223.5764
20
265.6446
10
205.3515
20
239.1948
10
185.7894
20
211.3526
  0
MESH
  5
13a7
330
1F
  100
AcDbEntity
8
buildings
  100
AcDbSubDMesh
71
2
72
0
91
0
92
30
10
223.8037
20
226.2875
30
4.0000
10
224.0548
20
222.8234
30
4.0000
10
222.3098
20
220.2982
30
4.0000
10
249.8866
20
201.4621
30
4.0000
10
253.6620
20
206.9303
30
4.0000
10
262.3546
20
200.9738
30
4.0000
10
272.8166
20
216.1158
30
4.0000
10
264.8490
20
221.5706
30
4.0000
10
263.0606
20
231.6381
30
4.0000
10
261.3778
20
241.1206
30
4.0000
10
266.8085
20
248.8262
30
4.0000
10
256.2015
20
256.2323
30
4.0000
10
250.6648
20
248.3874
30
4.0000
10
240.3837
20
255.5798
30
4.0000
10
221.0664
20
228.1925
30
4.0000
10
223.8037
20
226.2875
30
0.0000
10
224.0548
20
222.8234
30
0.0000
10
222.3098
20
220.2982
30
0.0000
10
249.8866
20
201.4621
30
0.0000
10
253.6620
20
206.9303
30
0.0000
10
262.3546
20
200.9738
30
0.0000
10
272.8166
20
216.1158
30
0.0000
10
264.8490
20
221.5706
30
0.0000
10
263.0606
20
231.6381
30
0.0000
10
261.3778
20
241.1206
30
0.0000
10
266.8085
20
248.8262
30
0.0000
10
256.2015
20
256.2323
30
0.0000
10
250.6648
20
248.3874
30
0.0000
10
240.3837
20
255.5798
30
0.0000
10
221.0664
20
228.1925
30
0.0000
93
179
90
3
90
2
90
3
90
1
90
3
90
17
90
16
90
18
90
3
90
8
90
0
90
1
90
3
90
23
90
16
90
15
90
3
90
14
90
0
90
13
90
3
90
29
90
28
90
15
90
3
90
12
90
13
90
0
90
3
90
27
90
15
90
28
90
3
90
12
90
0
90
8
90
3
90
27
90
23
90
15
90
3
90
1
90
3
90
4
90
3
90
16
90
19
90
18
90
3
90
4
90
5
90
7
90
3
90
19
90
22
90
20
90
3
90
6
90
7
90
5
90
3
90
21
90
20
90
22
90
3
90
4
90
7
90
8
90
3
90
19
90
23
90
22
90
3
90
11
90
9
90
10
90
3
90
26
90
25
90
24
90
3
90
12
90
9
90
11
90
3
90
27
90
26
90
24
90
3
90
8
90
9
90
12
90
3
90
23
90
27
90
24
90
3
90
1
90
4
90
8
90
3
90
16
90
23
90
19
90
4
90
1
90
0
90
15
90
16
90
4
90
2
90
1
90
16
90
17
90
4
90
3
90
2
90
17
90
18
90
4
90
4
90
3
90
18
90
19
90
4
90
5
90
4
90
19
90
20
90
4
90
6
90
5
90
20
90
21
90
4
90
7
90
6
90
21
90
22
90
4
90
8
90
7
90
22
90
23
90
4
90
9
90
8
90
23
90
24
90
4
90
10
90
9
90
24
90
25
90
4
90
11
90
10
90
25
90
26
90
4
90
12
90
11
90
26
90
27
90
4
90
13
90
12
90
27
90
28
90
4
90
14
90
13
90
28
90
29
90
4
90
0
90
14
90
29
90
15
94
0
95
0
  0
MESH
  5
13a8
330
1F
  100
AcDbEntity
8
buildings
  100
AcDbSubDMesh
71
2
72
0
91
0
92
36
10
264.7381
20
40.7030
30
4.0000
10
276.9924
20
35.4136
30
4.0000
10
295.8047
20
63.0426
30
4.0000
10
300.7090
20
59.3909
30
4.0000
10
318.6804
20
83.5564
30
4.0000
10
321.5588
20
87.4184
30
4.0000
10
316.7858
20
93.3361
30
4.0000
10
309.0794
20
99.7844
30
4.0000
10
305.5973
20
94.3439
30
4.0000
10
294.8923
20
101.5178
30
4.0000
10
292.6579
20
98.0548
30
4.0000
10
282.9548
20
104.2439
30
4.0000
10
277.4830
20
95.8419
30
4.0000
10
274.2432
20
85.4329
30
4.0000
10
273.7346
20
77.5301
30
4.0000
10
263.5336
20
63.1680
30
4.0000
10
267.7615
20
59.4608
30
4.0000
10
257.8376
20
45.2843
30
4.0000
10
264.7381
20
40.7030
30
0.0000
10
276.9924
20
35.4136
30
0.0000
10
295.8047
20
63.0426
30
0.0000
10
300.7090
20
59.3909
30
0.0000
10
318.6804
20
83.5564
30
0.0000
10
321.5588
20
87.4184
30
0.0000
10
316.7858
20
93.3361
30
0.0000
10
309.0794
20
99.7844
30
0.0000
10
305.5973
20
94.3439
30
0.0000
10
294.8923
20
101.5178
30
0.0000
10
292.6579
20
98.0548
30
0.0000
10
282.9548
20
104.2439
30
0.0000
10
277.4830
20
95.8419
30
0.0000
10
274.2432
20
85.4329
30
0.0000
10
273.7346
20
77.5301
30
0.0000
10
263.5336
20
63.1680
30
0.0000
10
267.7615
20
59.4608
30
0.0000
10
257.8376
20
45.2843
30
0.0000
93
218
90
3
90
17
90
0
90
16
90
3
90
35
90
34
90
18
90
3
90
14
90
16
90
2
90
3
90
32
90
20
90
34
90
3
90
1
90
16
90
0
90
3
90
19
90
18
90
34
90
3
90
14
90
15
90
16
90
3
90
32
90
34
90
33
90
3
90
12
90
10
90
11
90
3
90
30
90
29
90
28
90
3
90
13
90
10
90
12
90
3
90
31
90
30
90
28
90
3
90
10
90
13
90
14
90
3
90
28
90
32
90
31
90
3
90
2
90
16
90
1
90
3
90
20
90
19
90
34
90
3
90
2
90
3
90
4
90
3
90
20
90
22
90
21
90
3
90
2
90
4
90
8
90
3
90
20
90
26
90
22
90
3
90
6
90
4
90
5
90
3
90
24
90
23
90
22
90
3
90
9
90
10
90
8
90
3
90
27
90
26
90
28
90
3
90
8
90
6
90
7
90
3
90
26
90
25
90
24
90
3
90
6
90
8
90
4
90
3
90
24
90
22
90
26
90
3
90
10
90
2
90
8
90
3
90
28
90
26
90
20
90
3
90
2
90
10
90
14
90
3
90
20
90
32
90
28
90
4
90
1
90
0
90
18
90
19
90
4
90
2
90
1
90
19
90
20
90
4
90
3
90
2
90
20
90
21
90
4
90
4
90
3
90
21
90
22
90
4
90
5
90
4
90
22
90
23
90
4
90
6
90
5
90
23
90
24
90
4
90
7
90
6
90
24
90
25
90
4
90
8
90
7
90
25
90
26
90
4
90
9
90
8
90
26
90
27
90
4
90
10
90
9
90
27
90
28
90
4
90
11
90
10
90
28
90
29
90
4
90
12
90
11
90
29
90
30
90
4
90
13
90
12
90
30
90
31
90
4
90
14
90
13
90
31
90
32
90
4
90
15
90
14
90
32
90
33
90
4
90
16
90
15
90
33
90
34
90
4
90
17
90
16
90
34
90
35
90
4
90
0
90
17
90
35
90
18
94
0
95
0
0
LWPOLYLINE
  5
13a9
330
1F
  100
AcDbEntity
8
paths
  100
AcDbPolyline
70
0
38
0.0000
90
20
10
441.0585
20
84.6191
10
509.2482
20
115.8312
10
524.6615
20
123.3192
10
550.0431
20
135.1680
10
537.0801
20
161.0181
10
527.8782
20
157.5672
10
515.1902
20
158.5383
10
506.2786
20
167.1693
10
504.4083
20
177.0789
10
499.2851
20
183.4610
10
506.5994
20
194.3420
10
513.2562
20
191.7018
10
525.7008
20
193.4798
10
537.2947
20
187.5966
10
551.1445
20
158.3750
10
560.7532
20
140.2713
10
593.6578
20
155.3767
10
600.3577
20
158.4200
10
609.0055
20
162.0848
10
608.4355
20
163.1344
0
LWPOLYLINE
  5
13aa
330
1F
  100
AcDbEntity
8
paths
  100
AcDbPolyline
70
0
38
0.0000
90
13
10
496.8109
20
507.0291
10
471.8036
20
472.2700
10
467.8658
20
467.8976
10
463.9284
20
464.4353
10
458.3680
20
457.7698
10
451.1925
20
447.1860
10
445.6419
20
444.6437
10
443.5455
20
439.5833
10
443.7800
20
435.2092
10
446.3209
20
431.2892
10
479.3229
20
407.8823
10
504.7079
20
389.8649
10
518.7528
20
379.9130
0
LWPOLYLINE
  5
13ab
330
1F
  100
AcDbEntity
8
paths
  100
AcDbPolyline
70
0
38
0.0000
90
6
10
407.1365
20
305.8423
10
433.7395
20
315.9908
10
450.2275
20
321.6859
10
470.4491
20
330.5370
10
481.4116
20
335.3337
10
523.5418
20
353.7597
0
LWPOLYLINE
  5
13ac
330
1F
  100
AcDbEntity
8
minor_roads
  100
AcDbPolyline
70
0
38
0.0000
90
6
10
489.7982
20
515.7243
10
585.2935
20
449.3225
10
591.2408
20
445.6704
10
593.2041
20
444.1652
10
597.5299
20
440.8202
10
608.7711
20
429.7645
0
LWPOLYLINE
  5
13ad
330
1F
  100
AcDbEntity
8
minor_roads
  100
AcDbPolyline
70
0
38
0.0000
90
11
10
635.0003
20
179.4590
10
613.8586
20
172.7811
10
611.1860
20
173.5901
10
579.2335
20
195.2317
10
591.2686
20
212.2401
10
600.5885
20
225.4327
10
603.6208
20
227.4467
10
607.4180
20
226.6929
10
650.9133
20
193.9584
10
652.9333
20
191.4409
10
655.4258
20
188.4032
0
LWPOLYLINE
  5
13ae
330
1F
  100
AcDbEntity
8
minor_roads
  100
AcDbPolyline
70
0
38
0.0000
90
2
10
605.2276
20
331.9678
10
571.7688
20
355.6067
0
LWPOLYLINE
  5
13af
330
1F
  100
AcDbEntity
8
paths
  100
AcDbPolyline
70
0
38
0.0000
90
14
10
292.6362
20
142.3524
10
360.9766
20
240.4556
10
363.8711
20
244.0484
10
367.5082
20
250.2317
10
373.4603
20
257.7422
10
383.8078
20
272.5315
10
389.4261
20
280.9707
10
396.2427
20
290.2917
10
407.1365
20
305.8423
10
413.7331
20
315.2563
10
428.3859
20
336.4795
10
452.1707
20
369.7902
10
463.9040
20
386.2321
10
468.5191
20
392.6937
0
LWPOLYLINE
  5
13b0
330
1F
  100
AcDbEntity
8
paths
  100
AcDbPolyline
70
0
38
0.0000
90
2
10
494.1104
20
282.3107
10
452.6044
20
276.2452
0
LWPOLYLINE
  5
13b1
330
1F
  100
AcDbEntity
8
paths
  100
AcDbPolyline
70
0
38
0.0000
90
4
10
468.5191
20
392.6937
10
474.0474
20
400.4272
10
479.3229
20
407.8823
10
486.3842
20
418.0947
0
LWPOLYLINE
  5
13b2
330
1F
  100
AcDbEntity
8
paths
  100
AcDbPolyline
70
0
38
0.0000
90
5
10
55.9807
20
499.5023
10
61.9945
20
499.0074
10
61.9850
20
477.9637
10
100.7576
20
477.3891
10
133.8328
20
455.4113
0
LWPOLYLINE
  5
13b3
330
1F
  100
AcDbEntity
8
minor_roads
  100
AcDbPolyline
70
0
38
0.0000
90
2
10
48.9711
20
333.7844
10
44.8033
20
343.9738
0
LWPOLYLINE
  5
13b4
330
1F
  100
AcDbEntity
8
paths
  100
AcDbPolyline
70
0
38
0.0000
90
3
10
101.0788
20
320.8989
10
96.3921
20
318.8486
10
91.4691
20
316.7149
  0
MESH
  5
13b5
330
1F
  100
AcDbEntity
8
buildings
  100
AcDbSubDMesh
71
2
72
0
91
0
92
8
10
52.1519
20
520.2041
30
3.0000
10
52.2255
20
538.8425
30
3.0000
10
37.7693
20
538.9047
30
3.0000
10
37.6794
20
520.2664
30
3.0000
10
52.1519
20
520.2041
30
0.0000
10
52.2255
20
538.8425
30
0.0000
10
37.7693
20
538.9047
30
0.0000
10
37.6794
20
520.2664
30
0.0000
93
36
90
3
90
2
90
3
90
0
90
3
90
6
90
4
90
7
90
3
90
0
90
1
90
2
90
3
90
4
90
6
90
5
90
4
90
1
90
0
90
4
90
5
90
4
90
2
90
1
90
5
90
6
90
4
90
3
90
2
90
6
90
7
90
4
90
0
90
3
90
7
90
4
94
0
95
0
0
LWPOLYLINE
  5
13b6
330
1F
  100
AcDbEntity
8
minor_roads
  100
AcDbPolyline
70
0
38
0.0000
90
20
10
90.4475
20
400.9828
10
88.0020
20
399.3587
10
85.1495
20
398.6171
10
82.2160
20
398.8227
10
79.5110
20
399.9940
10
77.3361
20
401.9638
10
75.9275
20
404.5461
10
75.4317
20
407.4345
10
75.9056
20
410.2946
10
77.2840
20
412.8478
10
79.4199
20
414.8249
10
82.0770
20
416.0124
10
84.9700
20
416.2712
10
87.8137
20
415.6012
10
90.2741
20
414.0493
10
92.0984
20
411.7918
10
93.0995
20
409.0332
10
93.1471
20
406.1079
10
92.2332
20
403.3223
10
90.4475
20
400.9828
0
LWPOLYLINE
  5
13b7
330
1F
  100
AcDbEntity
8
parks
  100
AcDbPolyline
70
0
38
0.0000
90
5
10
140.6626
20
512.7072
10
157.0196
20
535.5453
10
182.1596
20
518.1587
10
165.8513
20
494.8006
10
140.6626
20
512.7072
0
LWPOLYLINE
  5
13b8
330
1F
  100
AcDbEntity
8
paths
  100
AcDbPolyline
70
0
38
0.0000
90
2
10
135.9934
20
457.8992
10
150.7995
20
474.8873
0
LWPOLYLINE
  5
13b9
330
1F
  100
AcDbEntity
8
minor_roads
  100
AcDbPolyline
70
0
38
0.0000
90
9
10
401.9635
20
58.2520
10
399.3121
20
51.5016
10
397.0782
20
48.9952
10
388.1368
20
45.1264
10
384.7955
20
45.1278
10
382.2864
20
47.0698
10
378.9326
20
55.9493
10
378.9338
20
58.7353
10
382.3513
20
65.6710
0
LWPOLYLINE
  5
13ba
330
1F
  100
AcDbEntity
8
paths
  100
AcDbPolyline
70
0
38
0.0000
90
8
10
407.2221
20
160.7098
10
395.7510
20
186.9960
10
393.7343
20
197.2401
10
389.5561
20
202.8046
10
383.7061
20
205.5559
10
377.5047
20
205.6885
10
371.9150
20
207.1675
10
360.9766
20
240.4556
0
LWPOLYLINE
  5
13bb
330
1F
  100
AcDbEntity
8
paths
  100
AcDbPolyline
70
0
38
0.0000
90
2
10
407.2221
20
160.7098
10
416.8945
20
139.5785
0
LWPOLYLINE
  5
13bc
330
1F
  100
AcDbEntity
8
minor_roads
  100
AcDbPolyline
70
0
38
0.0000
90
2
10
668.3544
20
157.3341
10
653.7627
20
186.9087
0
LWPOLYLINE
  5
13bd
330
1F
  100
AcDbEntity
8
water
  100
AcDbPolyline
70
0
38
0.0000
90
17
10
245.9729
20
290.3839
10
246.9698
20
296.5684
10
249.7094
20
300.0311
10
251.4552
20
304.4880
10
250.7079
20
309.9303
10
251.7034
20
313.1524
10
256.9366
20
316.3633
10
263.6436
20
317.1033
10
268.8749
20
316.1167
10
288.7689
20
302.0016
10
290.9994
20
296.5493
10
289.2621
20
292.8354
10
282.5379
20
290.1173
10
260.6478
20
286.6628
10
254.4294
20
285.1889
10
247.9591
20
285.4332
10
245.9729
20
290.3839
0
LWPOLYLINE
  5
13be
330
1F
  100
AcDbEntity
8
paths
  100
AcDbPolyline
70
0
38
0.0000
90
4
10
277.1679
20
271.9177
10
261.5215
20
271.7573
10
243.6208
20
278.5072
10
233.5270
20
285.4395
0
LWPOLYLINE
  5
13bf
330
1F
  100
AcDbEntity
8
paths
  100
AcDbPolyline
70
0
38
0.0000
90
5
10
335.1463
20
284.7084
10
361.6471
20
284.1400
10
378.7696
20
287.1044
10
388.2723
20
288.8370
10
396.2427
20
290.2917
0
LWPOLYLINE
  5
13c0
330
1F
  100
AcDbEntity
8
paths
  100
AcDbPolyline
70
0
38
0.0000
90
7
10
428.3859
20
336.4795
10
412.4123
20
333.2451
10
401.4319
20
324.6781
10
394.4521
20
314.8186
10
388.9866
20
301.4945
10
388.2723
20
288.8370
10
389.4261
20
280.9707
0
LWPOLYLINE
  5
13c1
330
1F
  100
AcDbEntity
8
paths
  100
AcDbPolyline
70
0
38
0.0000
90
2
10
385.2289
20
337.8999
10
367.2829
20
333.8864
0
LWPOLYLINE
  5
13c2
330
1F
  100
AcDbEntity
8
paths
  100
AcDbPolyline
70
0
38
0.0000
90
2
10
371.4571
20
319.0816
10
383.0711
20
322.6521
0
LWPOLYLINE
  5
13c3
330
1F
  100
AcDbEntity
8
paths
  100
AcDbPolyline
70
0
38
0.0000
90
2
10
345.2343
20
436.1609
10
358.1681
20
439.2293
0
LWPOLYLINE
  5
13c4
330
1F
  100
AcDbEntity
8
paths
  100
AcDbPolyline
70
0
38
0.0000
90
2
10
341.3196
20
428.7889
10
363.0055
20
431.8721
0
LWPOLYLINE
  5
13c5
330
1F
  100
AcDbEntity
8
paths
  100
AcDbPolyline
70
0
38
0.0000
90
10
10
356.0161
20
418.4187
10
362.7760
20
428.6869
10
363.0055
20
431.8721
10
361.4105
20
437.1198
10
358.1681
20
439.2293
10
354.0866
20
441.8963
10
349.4257
20
442.8641
10
347.4457
20
443.2735
10
336.8676
20
441.6343
10
326.9165
20
438.9547
0
LWPOLYLINE
  5
13c6
330
1F
  100
AcDbEntity
8
paths
  100
AcDbPolyline
70
0
38
0.0000
90
4
10
349.4257
20
442.8641
10
381.3481
20
487.6588
10
385.4653
20
492.2169
10
390.2665
20
495.7252
0
LWPOLYLINE
  5
13c7
330
1F
  100
AcDbEntity
8
paths
  100
AcDbPolyline
70
0
38
0.0000
90
5
10
468.5191
20
392.6937
10
523.5418
20
353.7597
10
537.0084
20
344.2446
10
539.8760
20
342.2097
10
581.2859
20
312.9119
0
LWPOLYLINE
  5
13c8
330
1F
  100
AcDbEntity
8
paths
  100
AcDbPolyline
70
0
38
0.0000
90
2
10
542.7039
20
362.4349
10
550.7855
20
356.8782
0
LWPOLYLINE
  5
13c9
330
1F
  100
AcDbEntity
8
paths
  100
AcDbPolyline
70
0
38
0.0000
90
5
10
683.4049
20
257.5408
10
687.3574
20
257.8643
10
691.9134
20
259.3669
10
703.5441
20
264.1450
10
705.1914
20
267.0510
0
LWPOLYLINE
  5
13ca
330
1F
  100
AcDbEntity
8
paths
  100
AcDbPolyline
70
0
38
0.0000
90
4
10
614.3874
20
352.7106
10
598.6070
20
363.6381
10
592.6682
20
368.3024
10
592.4198
20
378.7500
0
LWPOLYLINE
  5
13cb
330
1F
  100
AcDbEntity
8
paths
  100
AcDbPolyline
70
0
38
0.0000
90
2
10
608.3530
20
342.7205
10
614.3874
20
352.7106
0
LWPOLYLINE
  5
13cc
330
1F
  100
AcDbEntity
8
paths
  100
AcDbPolyline
70
0
38
0.0000
90
3
10
495.7437
20
507.7353
10
487.8984
20
512.9948
10
482.8230
20
516.3866
0
LWPOLYLINE
  5
13cd
330
1F
  100
AcDbEntity
8
paths
  100
AcDbPolyline
70
0
38
0.0000
90
3
10
482.8230
20
516.3866
10
479.9228
20
518.3194
10
480.4691
20
519.0807
0
LWPOLYLINE
  5
13ce
330
1F
  100
AcDbEntity
8
paths
  100
AcDbPolyline
70
0
38
0.0000
90
5
10
185.7894
20
211.3526
10
193.8319
20
209.7610
10
248.4238
20
173.3612
10
292.6362
20
142.3524
10
322.9900
20
118.3239
0
LWPOLYLINE
  5
13cf
330
1F
  100
AcDbEntity
8
paths
  100
AcDbPolyline
70
0
38
0.0000
90
4
10
563.8997
20
382.5970
10
576.7754
20
383.2604
10
592.4198
20
378.7500
10
603.6724
20
375.5044
0
LWPOLYLINE
  5
13d0
330
1F
  100
AcDbEntity
8
paths
  100
AcDbPolyline
70
0
38
0.0000
90
8
10
516.0007
20
207.2188
10
497.9925
20
210.7737
10
479.1384
20
218.3316
10
458.2244
20
230.1251
10
477.1498
20
257.1137
10
494.1104
20
282.3107
10
498.6767
20
288.8931
10
537.0084
20
344.2446
0
LWPOLYLINE
  5
13d1
330
1F
  100
AcDbEntity
8
paths
  100
AcDbPolyline
70
0
38
0.0000
90
6
10
383.8078
20
272.5315
10
379.0621
20
284.8755
10
378.7696
20
287.1044
10
377.3238
20
298.2398
10
377.8249
20
307.6470
10
383.0711
20
322.6521
0
LWPOLYLINE
  5
13d2
330
1F
  100
AcDbEntity
8
paths
  100
AcDbPolyline
70
0
38
0.0000
90
7
10
171.3546
20
500.8810
10
182.1596
20
518.1587
10
157.0196
20
535.5453
10
153.7579
20
530.9312
10
139.7329
20
511.0360
10
165.1577
20
492.6557
10
171.3546
20
500.8810
0
LWPOLYLINE
  5
13d3
330
1F
  100
AcDbEntity
8
paths
  100
AcDbPolyline
70
0
38
0.0000
90
2
10
457.6716
20
644.6092
10
464.2355
20
654.4039
0
LWPOLYLINE
  5
13d4
330
1F
  100
AcDbEntity
8
minor_roads
  100
AcDbPolyline
70
0
38
0.0000
90
3
10
558.2530
20
624.2763
10
584.1814
20
661.1525
10
610.1260
20
698.0474
0
LWPOLYLINE
  5
13d5
330
1F
  100
AcDbEntity
8
paths
  100
AcDbPolyline
70
0
38
0.0000
90
2
10
460.7105
20
642.9734
10
464.7793
20
649.1474
0
LWPOLYLINE
  5
13d6
330
1F
  100
AcDbEntity
8
minor_roads
  100
AcDbPolyline
70
0
38
0.0000
90
15
10
531.9788
20
360.3684
10
536.7640
20
364.4619
10
556.6714
20
382.5164
10
602.6652
20
424.2414
10
608.7711
20
429.7645
10
615.1215
20
435.5197
10
617.1758
20
437.3577
10
645.2429
20
462.4576
10
659.6718
20
475.3697
10
674.0604
20
489.4612
10
685.5467
20
500.7028
10
695.4927
20
511.2671
10
700.8899
20
517.9328
10
711.3342
20
531.7380
10
714.2216
20
536.5116
0
LWPOLYLINE
  5
13d7
330
1F
  100
AcDbEntity
8
minor_roads
  100
AcDbPolyline
70
0
38
0.0000
90
13
10
38.4626
20
714.2976
10
32.6786
20
705.9469
10
17.4303
20
683.9165
10
13.6527
20
673.6935
10
11.9350
20
659.3835
10
11.7605
20
634.2166
10
11.3333
20
572.9153
10
11.2025
20
554.0355
10
11.8715
20
519.9530
10
14.2700
20
508.0185
10
17.6791
20
496.4179
10
22.8243
20
485.5130
10
36.6176
20
460.9898
0
LWPOLYLINE
  5
13d8
330
1F
  100
AcDbEntity
8
minor_roads
  100
AcDbPolyline
70
0
38
0.0000
90
12
10
36.6176
20
460.9898
10
25.9094
20
496.0798
10
24.2040
20
509.0356
10
24.5565
20
531.5371
10
25.2678
20
572.6397
10
26.3470
20
634.1450
10
27.0162
20
672.3223
10
28.7324
20
683.2334
10
32.1662
20
690.0483
10
40.0261
20
699.9072
10
47.9105
20
709.7847
10
49.4355
20
714.2929
0
LWPOLYLINE
  5
13d9
330
1F
  100
AcDbEntity
8
paths
  100
AcDbPolyline
70
0
38
0.0000
90
20
10
161.8426
20
477.7892
10
175.6314
20
497.6659
10
188.4336
20
516.7073
10
193.4980
20
525.5924
10
194.6333
20
531.5168
10
191.9384
20
536.8857
10
189.7321
20
541.6600
10
194.3317
20
549.7467
10
197.5360
20
553.8872
10
200.8378
20
557.1454
10
207.4509
20
567.0050
10
215.3734
20
570.9391
10
220.4422
20
571.3826
10
224.6300
20
569.6163
10
242.5928
20
556.7278
10
264.0341
20
541.3490
10
266.0046
20
537.8378
10
266.4506
20
532.8042
10
265.3491
20
529.5172
10
255.8740
20
515.7120
0
LWPOLYLINE
  5
13da
330
1F
  100
AcDbEntity
8
minor_roads
  100
AcDbPolyline
70
0
38
0.0000
90
13
10
496.8676
20
525.9089
10
489.2994
20
531.2519
10
479.9064
20
537.8772
10
465.0715
20
548.3680
10
449.9841
20
559.0169
10
434.0658
20
570.2604
10
422.8886
20
577.7409
10
420.7539
20
578.5126
10
415.9462
20
578.7468
10
411.6020
20
576.9191
10
407.0204
20
572.3706
10
404.4601
20
568.7312
10
368.8360
20
518.0781
0
LWPOLYLINE
  5
13db
330
1F
  100
AcDbEntity
8
minor_roads
  100
AcDbPolyline
70
0
38
0.0000
90
3
10
465.0715
20
548.3680
10
457.5862
20
537.2828
10
418.8151
20
482.8976
0
LWPOLYLINE
  5
13dc
330
1F
  100
AcDbEntity
8
minor_roads
  100
AcDbPolyline
70
0
38
0.0000
90
2
10
388.1515
20
504.4927
10
434.0658
20
570.2604
0
LWPOLYLINE
  5
13dd
330
1F
  100
AcDbEntity
8
minor_roads
  100
AcDbPolyline
70
0
38
0.0000
90
2
10
337.2275
20
540.3332
10
373.1370
20
591.0976
0
LWPOLYLINE
  5
13de
330
1F
  100
AcDbEntity
8
minor_roads
  100
AcDbPolyline
70
0
38
0.0000
90
24
10
700.8899
20
517.9328
10
691.0729
20
524.3352
10
684.2377
20
528.7863
10
667.2434
20
539.8535
10
662.1923
20
543.0037
10
636.9695
20
558.7547
10
627.6335
20
565.5749
10
617.9397
20
573.8904
10
608.1325
20
584.1004
10
596.8344
20
595.1933
10
588.5010
20
602.4867
10
587.0266
20
603.7596
10
574.4646
20
612.7171
10
558.2530
20
624.2763
10
543.2227
20
635.0086
10
528.0378
20
646.2796
10
524.6497
20
650.5621
10
522.1588
20
657.0917
10
522.6197
20
668.3284
10
526.2421
20
678.6816
10
534.4444
20
689.8873
10
545.9406
20
705.4749
10
553.6030
20
711.4989
10
561.9826
20
714.0750
0
LWPOLYLINE
  5
13df
330
1F
  100
AcDbEntity
8
minor_roads
  100
AcDbPolyline
70
0
38
0.0000
90
9
10
584.3682
20
714.0655
10
588.0810
20
712.2092
10
594.0691
20
709.2351
10
610.1260
20
698.0474
10
625.7185
20
687.1664
10
641.4006
20
676.2482
10
661.8649
20
661.9757
10
673.5633
20
653.7338
10
714.2564
20
625.0658
0
LWPOLYLINE
  5
13e0
330
1F
  100
AcDbEntity
8
paths
  100
AcDbPolyline
70
0
38
0.0000
90
38
10
378.4999
20
708.9528
10
380.6080
20
703.1384
10
383.6621
20
698.9488
10
406.9364
20
682.6037
10
413.0540
20
677.2891
10
421.2554
20
666.6431
10
426.9737
20
661.3380
10
439.5684
20
653.1512
10
445.2969
20
652.7773
10
449.8777
20
655.4314
10
454.2800
20
660.2215
10
458.2829
20
664.5475
10
460.7629
20
671.0100
10
467.0743
20
700.6412
10
486.1461
20
709.3999
10
520.7762
20
683.5222
10
522.8128
20
682.1841
10
520.9449
20
677.6808
10
519.1830
20
673.4561
10
517.4611
20
667.3740
10
517.4579
20
659.5825
10
519.1744
20
652.3660
10
523.5145
20
644.4891
10
531.8719
20
636.3877
10
590.1769
20
595.6603
10
594.3557
20
591.6375
10
597.1904
20
588.9060
10
623.8511
20
562.1310
10
631.3053
20
556.9554
10
665.6690
20
535.7958
10
676.7403
20
527.6934
10
678.3195
20
523.6531
10
678.9054
20
521.5633
10
677.6419
20
520.5052
10
672.8894
20
516.2259
10
656.9197
20
501.5871
10
652.2741
20
499.6852
10
646.1057
20
500.7463
0
LWPOLYLINE
  5
13e1
330
1F
  100
AcDbEntity
8
minor_roads
  100
AcDbPolyline
70
0
38
0.0000
90
7
10
662.1923
20
543.0037
10
661.0460
20
549.8391
10
656.9837
20
559.9540
10
652.4795
20
565.1192
10
622.2306
20
585.3392
10
617.4883
20
586.2419
10
608.1325
20
584.1004
0
LWPOLYLINE
  5
13e2
330
1F
  100
AcDbEntity
8
paths
  100
AcDbPolyline
70
0
38
0.0000
90
9
10
607.6054
20
610.7256
10
632.4691
20
593.9995
10
628.1477
20
587.7792
10
677.7364
20
553.2129
10
685.5074
20
545.4833
10
686.5817
20
542.0468
10
686.5786
20
534.0323
10
684.2377
20
528.7863
10
678.9054
20
521.5633
0
LWPOLYLINE
  5
13e3
330
1F
  100
AcDbEntity
8
parks
  100
AcDbPolyline
70
0
38
0.0000
90
8
10
714.2678
20
653.8930
10
714.2629
20
641.5079
10
706.0067
20
639.8837
10
706.4565
20
643.9325
10
695.4001
20
648.1995
10
698.5654
20
657.1785
10
708.0410
20
653.1350
10
714.2678
20
653.8930
0
LWPOLYLINE
  5
13e4
330
1F
  100
AcDbEntity
8
water
  100
AcDbPolyline
70
0
38
0.0000
90
33
10
519.9415
20
615.5625
10
508.1966
20
629.6831
10
497.9288
20
648.9201
10
490.8375
20
664.2554
10
484.9743
20
673.7395
10
479.1029
20
683.2422
10
478.3793
20
687.3844
10
480.3289
20
692.2498
10
484.2490
20
693.4647
10
497.7012
20
689.8002
10
504.5437
20
683.4732
10
508.7054
20
677.8809
10
510.4128
20
668.3799
10
513.3388
20
650.1210
10
517.7430
20
639.4209
10
525.0740
20
632.1093
10
571.7943
20
598.7417
10
582.3112
20
590.7044
10
589.8941
20
581.4518
10
616.7920
20
556.8590
10
649.3198
20
529.5895
10
654.7047
20
525.6870
10
655.4370
20
523.0121
10
654.2057
20
521.0624
10
650.5467
20
520.5810
10
645.8944
20
522.5330
10
616.0612
20
543.2265
10
602.3590
20
553.9488
10
580.8352
20
567.8319
10
565.6747
20
579.2699
10
545.3734
20
593.6447
10
526.7750
20
607.0438
10
519.9415
20
615.5625
0
LWPOLYLINE
  5
13e5
330
1F
  100
AcDbEntity
8
paths
  100
AcDbPolyline
70
0
38
0.0000
90
2
10
714.2139
20
517.1140
10
712.8760
20
515.2257
  0
MESH
  5
13e6
330
1F
  100
AcDbEntity
8
buildings
  100
AcDbSubDMesh
71
2
72
0
91
0
92
44
10
68.6210
20
502.1155
30
15.0000
10
68.6714
20
505.4308
30
15.0000
10
77.0077
20
505.2970
30
15.0000
10
77.5540
20
542.2764
30
15.0000
10
96.4466
20
567.9364
30
15.0000
10
92.7319
20
570.6405
30
15.0000
10
96.1402
20
575.2730
30
15.0000
10
100.9566
20
576.1252
30
15.0000
10
104.8179
20
573.1796
30
15.0000
10
102.6898
20
570.4224
30
15.0000
10
133.9467
20
546.6438
30
15.0000
10
179.2792
20
546.6702
30
15.0000
10
179.2758
20
557.2756
30
15.0000
10
176.4073
20
557.2769
30
15.0000
10
176.3937
20
563.3782
30
15.0000
10
140.4162
20
563.3477
30
15.0000
10
103.9284
20
588.4659
30
15.0000
10
99.7697
20
582.4779
30
15.0000
10
94.4886
20
581.0686
30
15.0000
10
88.5908
20
585.4825
30
15.0000
10
59.3595
20
546.8258
30
15.0000
10
58.7037
20
502.2499
30
15.0000
10
68.6210
20
502.1155
30
0.0000
10
68.6714
20
505.4308
30
0.0000
10
77.0077
20
505.2970
30
0.0000
10
77.5540
20
542.2764
30
0.0000
10
96.4466
20
567.9364
30
0.0000
10
92.7319
20
570.6405
30
0.0000
10
96.1402
20
575.2730
30
0.0000
10
100.9566
20
576.1252
30
0.0000
10
104.8179
20
573.1796
30
0.0000
10
102.6898
20
570.4224
30
0.0000
10
133.9467
20
546.6438
30
0.0000
10
179.2792
20
546.6702
30
0.0000
10
179.2758
20
557.2756
30
0.0000
10
176.4073
20
557.2769
30
0.0000
10
176.3937
20
563.3782
30
0.0000
10
140.4162
20
563.3477
30
0.0000
10
103.9284
20
588.4659
30
0.0000
10
99.7697
20
582.4779
30
0.0000
10
94.4886
20
581.0686
30
0.0000
10
88.5908
20
585.4825
30
0.0000
10
59.3595
20
546.8258
30
0.0000
10
58.7037
20
502.2499
30
0.0000
93
270
90
3
90
21
90
0
90
1
90
3
90
43
90
23
90
22
90
3
90
1
90
2
90
3
90
3
90
23
90
25
90
24
90
3
90
21
90
1
90
20
90
3
90
43
90
42
90
23
90
3
90
20
90
1
90
3
90
3
90
42
90
25
90
23
90
3
90
20
90
5
90
19
90
3
90
42
90
41
90
27
90
3
90
20
90
3
90
5
90
3
90
42
90
27
90
25
90
3
90
19
90
5
90
18
90
3
90
41
90
40
90
27
90
3
90
5
90
6
90
18
90
3
90
27
90
40
90
28
90
3
90
18
90
6
90
17
90
3
90
40
90
39
90
28
90
3
90
3
90
4
90
5
90
3
90
25
90
27
90
26
90
3
90
10
90
15
90
8
90
3
90
32
90
30
90
37
90
3
90
15
90
10
90
13
90
3
90
37
90
35
90
32
90
3
90
13
90
11
90
12
90
3
90
35
90
34
90
33
90
3
90
11
90
13
90
10
90
3
90
33
90
32
90
35
90
3
90
15
90
13
90
14
90
3
90
37
90
36
90
35
90
3
90
8
90
17
90
7
90
3
90
30
90
29
90
39
90
3
90
7
90
17
90
6
90
3
90
29
90
28
90
39
90
3
90
8
90
15
90
16
90
3
90
30
90
38
90
37
90
3
90
8
90
16
90
17
90
3
90
30
90
39
90
38
90
3
90
8
90
9
90
10
90
3
90
30
90
32
90
31
90
4
90
1
90
0
90
22
90
23
90
4
90
2
90
1
90
23
90
24
90
4
90
3
90
2
90
24
90
25
90
4
90
4
90
3
90
25
90
26
90
4
90
5
90
4
90
26
90
27
90
4
90
6
90
5
90
27
90
28
90
4
90
7
90
6
90
28
90
29
90
4
90
8
90
7
90
29
90
30
90
4
90
9
90
8
90
30
90
31
90
4
90
10
90
9
90
31
90
32
90
4
90
11
90
10
90
32
90
33
90
4
90
12
90
11
90
33
90
34
90
4
90
13
90
12
90
34
90
35
90
4
90
14
90
13
90
35
90
36
90
4
90
15
90
14
90
36
90
37
90
4
90
16
90
15
90
37
90
38
90
4
90
17
90
16
90
38
90
39
90
4
90
18
90
17
90
39
90
40
90
4
90
19
90
18
90
40
90
41
90
4
90
20
90
19
90
41
90
42
90
4
90
21
90
20
90
42
90
43
90
4
90
0
90
21
90
43
90
22
94
0
95
0
0
LWPOLYLINE
  5
13e7
330
1F
  100
AcDbEntity
8
minor_roads
  100
AcDbPolyline
70
0
38
0.0000
90
33
10
451.1897
20
460.1130
10
434.5218
20
471.8398
10
418.8151
20
482.8976
10
403.7195
20
493.5279
10
388.1515
20
504.4927
10
378.5548
20
511.2389
10
368.8360
20
518.0781
10
353.5205
20
528.8664
10
337.2275
20
540.3332
10
329.5535
20
545.7320
10
321.7818
20
551.2052
10
305.5947
20
562.6069
10
295.7701
20
569.5297
10
287.1674
20
575.5884
10
276.5515
20
561.5422
10
265.2630
20
556.3929
10
255.1123
20
563.1766
10
238.5585
20
574.2629
10
221.9803
20
585.3398
10
218.7054
20
587.5329
10
212.1868
20
588.7338
10
207.1756
20
589.6461
10
193.4040
20
589.7728
10
172.5429
20
589.9585
10
153.1404
20
590.1342
10
134.0313
20
590.3098
10
124.6275
20
590.3883
10
118.5164
20
591.7933
10
115.6904
20
595.5371
10
115.0127
20
647.2551
10
110.7770
20
651.1109
10
97.0624
20
651.0521
10
90.3308
20
649.7085
0
LWPOLYLINE
  5
13e8
330
1F
  100
AcDbEntity
8
paths
  100
AcDbPolyline
70
0
38
0.0000
90
2
10
184.0831
20
555.9640
10
189.7321
20
541.6600
0
LWPOLYLINE
  5
13e9
330
1F
  100
AcDbEntity
8
paths
  100
AcDbPolyline
70
0
38
0.0000
90
39
10
46.2169
20
694.8153
10
53.7525
20
690.0385
10
67.4570
20
685.9462
10
86.6785
20
682.3250
10
89.9243
20
669.9073
10
90.2072
20
664.7159
10
90.7002
20
655.6425
10
90.3308
20
649.7085
10
88.0661
20
596.7475
10
87.5654
20
588.5382
10
93.4769
20
560.0626
10
100.4337
20
536.6198
10
110.3494
20
514.8288
10
121.7543
20
506.6143
10
131.2611
20
499.7565
10
155.2522
20
482.4726
10
161.8426
20
477.7892
10
196.8972
20
453.6283
10
217.3775
20
439.3921
10
240.8641
20
423.0651
10
277.0343
20
396.5916
10
318.8594
20
368.1564
10
342.3705
20
351.5974
10
367.2829
20
333.8864
10
383.0711
20
322.6521
10
394.4521
20
314.8186
10
401.6538
20
309.8658
10
407.1365
20
305.8423
10
442.4627
20
285.8704
10
452.6044
20
276.2452
10
457.6793
20
271.4233
10
477.1498
20
257.1137
10
502.2340
20
239.9693
10
506.2585
20
237.1910
10
527.2937
20
222.7136
10
532.5566
20
219.0897
10
570.4722
20
192.9786
10
570.6749
20
190.2668
10
608.4355
20
163.1344
0
LWPOLYLINE
  5
13ea
330
1F
  100
AcDbEntity
8
paths
  100
AcDbPolyline
70
0
38
0.0000
90
4
10
691.9134
20
259.3669
10
709.8433
20
284.6846
10
712.7216
20
288.7604
10
714.1248
20
290.7400
0
LWPOLYLINE
  5
13eb
330
1F
  100
AcDbEntity
8
paths
  100
AcDbPolyline
70
0
38
0.0000
90
9
10
86.6785
20
682.3250
10
110.9681
20
677.7451
10
132.5541
20
677.0483
10
163.7429
20
684.1945
10
195.2681
20
696.4576
10
210.8286
20
706.4990
10
214.4623
20
704.9744
10
224.7387
20
706.6694
10
237.4937
20
714.2130
0
LWPOLYLINE
  5
13ec
330
1F
  100
AcDbEntity
8
paths
  100
AcDbPolyline
70
0
38
0.0000
90
40
10
289.3175
20
714.1909
10
309.0836
20
698.1634
10
311.5194
20
696.4536
10
314.1105
20
695.8767
10
315.9763
20
695.4394
10
369.9212
20
655.9758
10
372.7886
20
653.6529
10
374.0914
20
651.0521
10
375.3933
20
646.6311
10
377.1524
20
644.1322
10
394.2270
20
631.1607
10
402.9596
20
624.1456
10
408.1641
20
617.9120
10
415.7220
20
607.5356
10
421.5950
20
602.0819
10
425.6764
20
599.1084
10
428.3158
20
597.1850
10
441.6607
20
590.0101
10
445.9707
20
588.1973
10
450.2651
20
587.8055
10
455.6433
20
587.6454
10
463.7509
20
586.2583
10
469.0711
20
583.7301
10
591.7110
20
500.0810
10
600.7371
20
492.7130
10
606.7484
20
486.0334
10
609.5177
20
482.8006
10
611.8316
20
481.6481
10
619.9395
20
480.9576
10
623.8666
20
479.1172
10
632.6566
20
472.2694
10
645.2429
20
462.4576
10
650.4811
20
458.3787
10
651.4091
20
455.8430
10
663.4415
20
446.6351
10
671.7754
20
440.4097
10
682.1876
20
434.6478
10
708.7942
20
414.1416
10
713.8861
20
410.9171
10
714.1721
20
410.7829
0
LWPOLYLINE
  5
13ed
330
1F
  100
AcDbEntity
8
paths
  100
AcDbPolyline
70
0
38
0.0000
90
7
10
714.1029
20
235.1296
10
709.7192
20
238.6041
10
706.0695
20
241.5030
10
704.2941
20
244.2619
10
704.8090
20
248.0413
10
707.0926
20
252.5723
10
713.1671
20
261.1880
0
LWPOLYLINE
  5
13ee
330
1F
  100
AcDbEntity
8
paths
  100
AcDbPolyline
70
0
38
0.0000
90
4
10
148.1170
20
545.1238
10
126.2454
20
545.4957
10
105.5867
20
561.1716
10
93.4769
20
560.0626
0
LWPOLYLINE
  5
13ef
330
1F
  100
AcDbEntity
8
minor_roads
  100
AcDbPolyline
70
0
38
0.0000
90
5
10
36.6176
20
460.9898
10
40.4090
20
465.7058
10
46.9227
20
471.4234
10
54.2528
20
480.6232
10
66.7902
20
472.0552
0
LWPOLYLINE
  5
13f0
330
1F
  100
AcDbEntity
8
water
  100
AcDbPolyline
70
0
38
0.0000
90
11
10
56.4708
20
447.7752
10
64.7248
20
427.7401
10
67.5758
20
425.1664
10
71.9601
20
425.4244
10
80.2249
20
429.0146
10
83.5847
20
434.4087
10
81.5252
20
439.2851
10
59.8394
20
454.7201
10
56.4739
20
454.7216
10
55.7064
20
451.3788
10
56.4708
20
447.7752
  0
MESH
  5
13f1
330
1F
  100
AcDbEntity
8
buildings
  100
AcDbSubDMesh
71
2
72
0
91
0
92
32
10
100.0818
20
423.9352
30
4.0000
10
96.4941
20
419.2377
30
4.0000
10
100.3689
20
410.0329
30
4.0000
10
98.2905
20
409.1702
30
4.0000
10
110.7860
20
379.4750
30
4.0000
10
113.0438
20
380.4212
30
4.0000
10
120.4353
20
362.8568
30
4.0000
10
137.6004
20
370.0092
30
4.0000
10
126.5620
20
396.2490
30
4.0000
10
124.1331
20
395.2379
30
4.0000
10
115.0891
20
416.7499
30
4.0000
10
112.8232
20
415.8037
30
4.0000
10
110.9509
20
420.2621
30
4.0000
10
124.8368
20
438.3835
30
4.0000
10
111.4769
20
448.5027
30
4.0000
10
95.3977
20
427.4941
30
4.0000
10
100.0818
20
423.9352
30
0.0000
10
96.4941
20
419.2377
30
0.0000
10
100.3689
20
410.0329
30
0.0000
10
98.2905
20
409.1702
30
0.0000
10
110.7860
20
379.4750
30
0.0000
10
113.0438
20
380.4212
30
0.0000
10
120.4353
20
362.8568
30
0.0000
10
137.6004
20
370.0092
30
0.0000
10
126.5620
20
396.2490
30
0.0000
10
124.1331
20
395.2379
30
0.0000
10
115.0891
20
416.7499
30
0.0000
10
112.8232
20
415.8037
30
0.0000
10
110.9509
20
420.2621
30
0.0000
10
124.8368
20
438.3835
30
0.0000
10
111.4769
20
448.5027
30
0.0000
10
95.3977
20
427.4941
30
0.0000
93
192
90
3
90
12
90
2
90
11
90
3
90
28
90
27
90
18
90
3
90
4
90
2
90
3
90
3
90
20
90
19
90
18
90
3
90
1
90
2
90
12
90
3
90
17
90
28
90
18
90
3
90
15
90
0
90
14
90
3
90
31
90
30
90
16
90
3
90
12
90
14
90
0
90
3
90
28
90
16
90
30
90
3
90
13
90
14
90
12
90
3
90
29
90
28
90
30
90
3
90
0
90
1
90
12
90
3
90
16
90
28
90
17
90
3
90
5
90
2
90
4
90
3
90
21
90
20
90
18
90
3
90
5
90
6
90
7
90
3
90
21
90
23
90
22
90
3
90
9
90
7
90
8
90
3
90
25
90
24
90
23
90
3
90
7
90
9
90
5
90
3
90
23
90
21
90
25
90
3
90
9
90
11
90
2
90
3
90
25
90
18
90
27
90
3
90
11
90
9
90
10
90
3
90
27
90
26
90
25
90
3
90
9
90
2
90
5
90
3
90
25
90
21
90
18
90
4
90
1
90
0
90
16
90
17
90
4
90
2
90
1
90
17
90
18
90
4
90
3
90
2
90
18
90
19
90
4
90
4
90
3
90
19
90
20
90
4
90
5
90
4
90
20
90
21
90
4
90
6
90
5
90
21
90
22
90
4
90
7
90
6
90
22
90
23
90
4
90
8
90
7
90
23
90
24
90
4
90
9
90
8
90
24
90
25
90
4
90
10
90
9
90
25
90
26
90
4
90
11
90
10
90
26
90
27
90
4
90
12
90
11
90
27
90
28
90
4
90
13
90
12
90
28
90
29
90
4
90
14
90
13
90
29
90
30
90
4
90
15
90
14
90
30
90
31
90
4
90
0
90
15
90
31
90
16
94
0
95
0
0
LWPOLYLINE
  5
13f2
330
1F
  100
AcDbEntity
8
minor_roads
  100
AcDbPolyline
70
0
38
0.0000
90
6
10
59.0018
20
350.0316
10
44.8033
20
343.9738
10
7.9786
20
328.2681
10
4.6538
20
328.2696
10
3.0897
20
329.6355
10
0.1535
20
336.7152
0
LWPOLYLINE
  5
13f3
330
1F
  100
AcDbEntity
8
minor_roads
  100
AcDbPolyline
70
0
38
0.0000
90
6
10
0.1575
20
345.4343
10
51.9119
20
367.6145
10
67.6429
20
374.9903
10
72.1503
20
377.1056
10
76.7227
20
378.8588
10
90.7906
20
384.8145
0
LWPOLYLINE
  5
13f4
330
1F
  100
AcDbEntity
8
minor_roads
  100
AcDbPolyline
70
0
38
0.0000
90
6
10
92.7859
20
327.5147
10
97.5377
20
329.3792
10
111.7033
20
334.9542
10
157.7542
20
354.2779
10
185.7190
20
366.3290
10
236.0653
20
388.0192
0
LWPOLYLINE
  5
13f5
330
1F
  100
AcDbEntity
8
minor_roads
  100
AcDbPolyline
70
0
38
0.0000
90
17
10
85.1495
20
398.6171
10
88.8777
20
389.5052
10
90.7906
20
384.8145
10
95.3004
20
374.0864
10
107.4215
20
345.1715
10
111.7033
20
334.9542
10
116.3108
20
323.9381
10
120.2589
20
314.5382
10
128.1226
20
295.8034
10
134.4388
20
278.8988
10
138.9894
20
268.1985
10
144.3222
20
257.1729
10
147.8145
20
248.8690
10
151.4228
20
244.7534
10
156.0756
20
243.9898
10
162.7829
20
245.2684
10
198.7193
20
260.6128
0
LWPOLYLINE
  5
13f6
330
1F
  100
AcDbEntity
8
paths
  100
AcDbPolyline
70
0
38
0.0000
90
4
10
42.5254
20
460.4578
10
46.2192
20
465.6474
10
51.2895
20
469.1462
10
97.6264
20
436.6219
  0
MESH
  5
13f7
330
1F
  100
AcDbEntity
8
buildings
  100
AcDbSubDMesh
71
2
72
0
91
0
92
8
10
336.9408
20
403.2245
30
4.0000
10
347.7936
20
418.3293
30
4.0000
10
309.8307
20
445.3327
30
4.0000
10
298.9616
20
430.2186
30
4.0000
10
336.9408
20
403.2245
30
0.0000
10
347.7936
20
418.3293
30
0.0000
10
309.8307
20
445.3327
30
0.0000
10
298.9616
20
430.2186
30
0.0000
93
36
90
3
90
2
90
3
90
0
90
3
90
6
90
4
90
7
90
3
90
0
90
1
90
2
90
3
90
4
90
6
90
5
90
4
90
1
90
0
90
4
90
5
90
4
90
2
90
1
90
5
90
6
90
4
90
3
90
2
90
6
90
7
90
4
90
0
90
3
90
7
90
4
94
0
95
0
  0
MESH
  5
13f8
330
1F
  100
AcDbEntity
8
buildings
  100
AcDbSubDMesh
71
2
72
0
91
0
92
8
10
29.3752
20
267.9599
30
4.0000
10
63.0701
20
281.9582
30
4.0000
10
53.1714
20
305.5602
30
4.0000
10
19.4684
20
291.5526
30
4.0000
10
29.3752
20
267.9599
30
0.0000
10
63.0701
20
281.9582
30
0.0000
10
53.1714
20
305.5602
30
0.0000
10
19.4684
20
291.5526
30
0.0000
93
36
90
3
90
3
90
0
90
2
90
3
90
7
90
6
90
4
90
3
90
1
90
2
90
0
90
3
90
5
90
4
90
6
90
4
90
1
90
0
90
4
90
5
90
4
90
2
90
1
90
5
90
6
90
4
90
3
90
2
90
6
90
7
90
4
90
0
90
3
90
7
90
4
94
0
95
0
0
LWPOLYLINE
  5
13f9
330
1F
  100
AcDbEntity
8
paths
  100
AcDbPolyline
70
0
38
0.0000
90
9
10
231.2135
20
511.6923
10
264.0110
20
488.1084
10
275.5631
20
480.7390
10
278.4063
20
478.9362
10
336.8676
20
441.6343
10
343.4751
20
438.5762
10
345.2343
20
436.1609
10
343.6847
20
433.0876
10
341.3196
20
428.7889
0
LWPOLYLINE
  5
13fa
330
1F
  100
AcDbEntity
8
paths
  100
AcDbPolyline
70
0
38
0.0000
90
8
10
191.9448
20
384.5839
10
219.8511
20
393.6448
10
234.2505
20
393.6385
10
246.9292
20
390.6612
10
254.9701
20
385.5872
10
264.5915
20
379.5188
10
267.4453
20
383.4365
10
277.0343
20
396.5916
0
LWPOLYLINE
  5
13fb
330
1F
  100
AcDbEntity
8
paths
  100
AcDbPolyline
70
0
38
0.0000
90
15
10
125.1337
20
263.1806
10
138.9894
20
268.1985
10
216.2085
20
300.4729
10
226.4294
20
304.7403
10
241.4998
20
310.9280
10
246.4828
20
319.8318
10
272.1080
20
330.2125
10
274.8437
20
324.5185
10
277.1992
20
325.4833
10
292.2614
20
331.6896
10
309.0584
20
354.7320
10
318.8594
20
368.1564
10
341.9097
20
398.4769
10
346.2966
20
404.6785
10
356.0161
20
418.4187
0
LWPOLYLINE
  5
13fc
330
1F
  100
AcDbEntity
8
paths
  100
AcDbPolyline
70
0
38
0.0000
90
2
10
307.4069
20
304.2317
10
342.3705
20
351.5974
0
LWPOLYLINE
  5
13fd
330
1F
  100
AcDbEntity
8
paths
  100
AcDbPolyline
70
0
38
0.0000
90
20
10
269.4364
20
88.2488
10
271.1493
20
91.7863
10
271.6562
20
95.6772
10
270.9000
20
99.5315
10
268.9456
20
102.9313
10
266.0130
20
105.5607
10
262.1836
20
107.1782
10
258.0276
20
107.4215
10
254.0258
20
106.2810
10
250.6428
20
103.8865
10
248.2536
20
100.4979
10
247.1354
20
96.4958
10
247.4270
20
92.3724
10
249.0878
20
88.5734
10
251.9224
20
85.5354
10
255.4014
20
83.6951
10
259.2964
20
83.0341
10
263.1839
20
83.6453
10
266.6807
20
85.4361
10
269.4364
20
88.2488
0
LWPOLYLINE
  5
13fe
330
1F
  100
AcDbEntity
8
paths
  100
AcDbPolyline
70
0
38
0.0000
90
8
10
195.8864
20
267.4398
10
221.6268
20
279.8727
10
229.0523
20
283.4541
10
230.8031
20
280.6395
10
268.4973
20
253.3016
10
272.3262
20
250.5233
10
273.5712
20
246.3066
10
275.0341
20
237.2142
  0
MESH
  5
13ff
330
1F
  100
AcDbEntity
8
buildings
  100
AcDbSubDMesh
71
2
72
0
91
0
92
56
10
207.8338
20
101.8063
30
4.0000
10
205.3383
20
97.6006
30
4.0000
10
208.3203
20
96.1134
30
4.0000
10
204.5855
20
90.4223
30
4.0000
10
204.5843
20
87.7013
30
4.0000
10
206.3270
20
84.9795
30
4.0000
10
209.3091
20
83.7338
30
4.0000
10
212.2917
20
83.7325
30
4.0000
10
216.0330
20
85.4582
30
4.0000
10
219.7681
20
91.6508
30
4.0000
10
217.5278
20
93.3791
30
4.0000
10
219.2727
20
95.6071
30
4.0000
10
226.4852
20
96.6069
30
4.0000
10
238.4259
20
101.2915
30
4.0000
10
246.8872
20
106.7391
30
4.0000
10
253.6051
20
113.4226
30
4.0000
10
259.0848
20
121.0818
30
4.0000
10
251.1254
20
126.7872
30
4.0000
10
253.1235
20
130.2503
30
4.0000
10
244.6669
20
135.6960
30
4.0000
10
247.1541
20
139.4003
30
4.0000
10
243.4227
20
141.6307
30
4.0000
10
228.7411
20
149.3172
30
4.0000
10
224.0198
20
142.6421
30
4.0000
10
222.2763
20
143.6273
30
4.0000
10
218.0430
20
134.7232
30
4.0000
10
220.7722
20
132.9761
30
4.0000
10
201.6094
20
105.5238
30
4.0000
10
207.8338
20
101.8063
30
0.0000
10
205.3383
20
97.6006
30
0.0000
10
208.3203
20
96.1134
30
0.0000
10
204.5855
20
90.4223
30
0.0000
10
204.5843
20
87.7013
30
0.0000
10
206.3270
20
84.9795
30
0.0000
10
209.3091
20
83.7338
30
0.0000
10
212.2917
20
83.7325
30
0.0000
10
216.0330
20
85.4582
30
0.0000
10
219.7681
20
91.6508
30
0.0000
10
217.5278
20
93.3791
30
0.0000
10
219.2727
20
95.6071
30
0.0000
10
226.4852
20
96.6069
30
0.0000
10
238.4259
20
101.2915
30
0.0000
10
246.8872
20
106.7391
30
0.0000
10
253.6051
20
113.4226
30
0.0000
10
259.0848
20
121.0818
30
0.0000
10
251.1254
20
126.7872
30
0.0000
10
253.1235
20
130.2503
30
0.0000
10
244.6669
20
135.6960
30
0.0000
10
247.1541
20
139.4003
30
0.0000
10
243.4227
20
141.6307
30
0.0000
10
228.7411
20
149.3172
30
0.0000
10
224.0198
20
142.6421
30
0.0000
10
222.2763
20
143.6273
30
0.0000
10
218.0430
20
134.7232
30
0.0000
10
220.7722
20
132.9761
30
0.0000
10
201.6094
20
105.5238
30
0.0000
93
348
90
3
90
4
90
5
90
3
90
3
90
32
90
31
90
33
90
3
90
3
90
5
90
6
90
3
90
31
90
34
90
33
90
3
90
3
90
7
90
2
90
3
90
31
90
30
90
35
90
3
90
7
90
8
90
2
90
3
90
35
90
30
90
36
90
3
90
3
90
6
90
7
90
3
90
31
90
35
90
34
90
3
90
10
90
8
90
9
90
3
90
38
90
37
90
36
90
3
90
0
90
1
90
2
90
3
90
28
90
30
90
29
90
3
90
10
90
11
90
2
90
3
90
38
90
30
90
39
90
3
90
11
90
0
90
2
90
3
90
39
90
30
90
28
90
3
90
26
90
27
90
0
90
3
90
54
90
28
90
55
90
3
90
12
90
0
90
11
90
3
90
40
90
39
90
28
90
3
90
10
90
2
90
8
90
3
90
38
90
36
90
30
90
3
90
13
90
26
90
12
90
3
90
41
90
40
90
54
90
3
90
14
90
26
90
13
90
3
90
42
90
41
90
54
90
3
90
15
90
16
90
17
90
3
90
43
90
45
90
44
90
3
90
17
90
26
90
14
90
3
90
45
90
42
90
54
90
3
90
15
90
17
90
14
90
3
90
43
90
42
90
45
90
3
90
19
90
17
90
18
90
3
90
47
90
46
90
45
90
3
90
23
90
24
90
25
90
3
90
51
90
53
90
52
90
3
90
23
90
26
90
19
90
3
90
51
90
47
90
54
90
3
90
23
90
25
90
26
90
3
90
51
90
54
90
53
90
3
90
19
90
20
90
21
90
3
90
47
90
49
90
48
90
3
90
22
90
23
90
21
90
3
90
50
90
49
90
51
90
3
90
21
90
23
90
19
90
3
90
49
90
47
90
51
90
3
90
26
90
17
90
19
90
3
90
54
90
47
90
45
90
3
90
12
90
26
90
0
90
3
90
40
90
28
90
54
90
4
90
1
90
0
90
28
90
29
90
4
90
2
90
1
90
29
90
30
90
4
90
3
90
2
90
30
90
31
90
4
90
4
90
3
90
31
90
32
90
4
90
5
90
4
90
32
90
33
90
4
90
6
90
5
90
33
90
34
90
4
90
7
90
6
90
34
90
35
90
4
90
8
90
7
90
35
90
36
90
4
90
9
90
8
90
36
90
37
90
4
90
10
90
9
90
37
90
38
90
4
90
11
90
10
90
38
90
39
90
4
90
12
90
11
90
39
90
40
90
4
90
13
90
12
90
40
90
41
90
4
90
14
90
13
90
41
90
42
90
4
90
15
90
14
90
42
90
43
90
4
90
16
90
15
90
43
90
44
90
4
90
17
90
16
90
44
90
45
90
4
90
18
90
17
90
45
90
46
90
4
90
19
90
18
90
46
90
47
90
4
90
20
90
19
90
47
90
48
90
4
90
21
90
20
90
48
90
49
90
4
90
22
90
21
90
49
90
50
90
4
90
23
90
22
90
50
90
51
90
4
90
24
90
23
90
51
90
52
90
4
90
25
90
24
90
52
90
53
90
4
90
26
90
25
90
53
90
54
90
4
90
27
90
26
90
54
90
55
90
4
90
0
90
27
90
55
90
28
94
0
95
0
  0
MESH
  5
1400
330
1F
  100
AcDbEntity
8
buildings
  100
AcDbSubDMesh
71
2
72
0
91
0
92
60
10
323.7616
20
131.4457
30
4.0000
10
327.9890
20
126.5034
30
4.0000
10
333.4638
20
123.0371
30
4.0000
10
331.7105
20
120.3076
30
4.0000
10
336.4521
20
117.2967
30
4.0000
10
347.3223
20
134.2402
30
4.0000
10
349.3916
20
132.9206
30
4.0000
10
352.3743
20
133.1794
30
4.0000
10
353.6220
20
135.1569
30
4.0000
10
353.1262
20
138.1289
30
4.0000
10
351.8882
20
139.8567
30
4.0000
10
374.4997
20
172.1927
30
4.0000
10
376.5283
20
170.7803
30
4.0000
10
379.0142
20
171.7822
30
4.0000
10
380.2620
20
174.0012
30
4.0000
10
378.7636
20
176.4721
30
4.0000
10
387.6359
20
190.5562
30
4.0000
10
383.3668
20
193.2140
30
4.0000
10
388.7571
20
201.7834
30
4.0000
10
384.5043
20
204.4412
30
4.0000
10
379.5254
20
204.9355
30
4.0000
10
374.0485
20
203.4519
30
4.0000
10
368.3337
20
198.2631
30
4.0000
10
360.9119
20
203.2253
30
4.0000
10
330.4228
20
158.1607
30
4.0000
10
338.4556
20
152.7803
30
4.0000
10
332.8210
20
144.4525
30
4.0000
10
325.0000
20
149.6935
30
4.0000
10
321.5343
20
144.5688
30
4.0000
10
321.5315
20
137.8916
30
4.0000
10
323.7616
20
131.4457
30
0.0000
10
327.9890
20
126.5034
30
0.0000
10
333.4638
20
123.0371
30
0.0000
10
331.7105
20
120.3076
30
0.0000
10
336.4521
20
117.2967
30
0.0000
10
347.3223
20
134.2402
30
0.0000
10
349.3916
20
132.9206
30
0.0000
10
352.3743
20
133.1794
30
0.0000
10
353.6220
20
135.1569
30
0.0000
10
353.1262
20
138.1289
30
0.0000
10
351.8882
20
139.8567
30
0.0000
10
374.4997
20
172.1927
30
0.0000
10
376.5283
20
170.7803
30
0.0000
10
379.0142
20
171.7822
30
0.0000
10
380.2620
20
174.0012
30
0.0000
10
378.7636
20
176.4721
30
0.0000
10
387.6359
20
190.5562
30
0.0000
10
383.3668
20
193.2140
30
0.0000
10
388.7571
20
201.7834
30
0.0000
10
384.5043
20
204.4412
30
0.0000
10
379.5254
20
204.9355
30
0.0000
10
374.0485
20
203.4519
30
0.0000
10
368.3337
20
198.2631
30
0.0000
10
360.9119
20
203.2253
30
0.0000
10
330.4228
20
158.1607
30
0.0000
10
338.4556
20
152.7803
30
0.0000
10
332.8210
20
144.4525
30
0.0000
10
325.0000
20
149.6935
30
0.0000
10
321.5343
20
144.5688
30
0.0000
10
321.5315
20
137.8916
30
0.0000
93
374
90
3
90
26
90
0
90
1
90
3
90
56
90
31
90
30
90
3
90
4
90
2
90
3
90
3
90
34
90
33
90
32
90
3
90
5
90
2
90
4
90
3
90
35
90
34
90
32
90
3
90
1
90
2
90
5
90
3
90
31
90
35
90
32
90
3
90
6
90
9
90
5
90
3
90
36
90
35
90
39
90
3
90
27
90
28
90
26
90
3
90
57
90
56
90
58
90
3
90
26
90
28
90
29
90
3
90
56
90
59
90
58
90
3
90
5
90
10
90
26
90
3
90
35
90
56
90
40
90
3
90
9
90
10
90
5
90
3
90
39
90
35
90
40
90
3
90
25
90
26
90
10
90
3
90
55
90
40
90
56
90
3
90
10
90
11
90
25
90
3
90
40
90
55
90
41
90
3
90
26
90
29
90
0
90
3
90
56
90
30
90
59
90
3
90
1
90
5
90
26
90
3
90
31
90
56
90
35
90
3
90
24
90
25
90
11
90
3
90
54
90
41
90
55
90
3
90
6
90
7
90
8
90
3
90
36
90
38
90
37
90
3
90
8
90
9
90
6
90
3
90
38
90
36
90
39
90
3
90
11
90
23
90
24
90
3
90
41
90
54
90
53
90
3
90
13
90
15
90
11
90
3
90
43
90
41
90
45
90
3
90
14
90
15
90
13
90
3
90
44
90
43
90
45
90
3
90
13
90
11
90
12
90
3
90
43
90
42
90
41
90
3
90
11
90
15
90
22
90
3
90
41
90
52
90
45
90
3
90
22
90
23
90
11
90
3
90
52
90
41
90
53
90
3
90
17
90
20
90
21
90
3
90
47
90
51
90
50
90
3
90
21
90
22
90
17
90
3
90
51
90
47
90
52
90
3
90
17
90
22
90
15
90
3
90
47
90
45
90
52
90
3
90
18
90
19
90
17
90
3
90
48
90
47
90
49
90
3
90
17
90
19
90
20
90
3
90
47
90
50
90
49
90
3
90
15
90
16
90
17
90
3
90
45
90
47
90
46
90
4
90
1
90
0
90
30
90
31
90
4
90
2
90
1
90
31
90
32
90
4
90
3
90
2
90
32
90
33
90
4
90
4
90
3
90
33
90
34
90
4
90
5
90
4
90
34
90
35
90
4
90
6
90
5
90
35
90
36
90
4
90
7
90
6
90
36
90
37
90
4
90
8
90
7
90
37
90
38
90
4
90
9
90
8
90
38
90
39
90
4
90
10
90
9
90
39
90
40
90
4
90
11
90
10
90
40
90
41
90
4
90
12
90
11
90
41
90
42
90
4
90
13
90
12
90
42
90
43
90
4
90
14
90
13
90
43
90
44
90
4
90
15
90
14
90
44
90
45
90
4
90
16
90
15
90
45
90
46
90
4
90
17
90
16
90
46
90
47
90
4
90
18
90
17
90
47
90
48
90
4
90
19
90
18
90
48
90
49
90
4
90
20
90
19
90
49
90
50
90
4
90
21
90
20
90
50
90
51
90
4
90
22
90
21
90
51
90
52
90
4
90
23
90
22
90
52
90
53
90
4
90
24
90
23
90
53
90
54
90
4
90
25
90
24
90
54
90
55
90
4
90
26
90
25
90
55
90
56
90
4
90
27
90
26
90
56
90
57
90
4
90
28
90
27
90
57
90
58
90
4
90
29
90
28
90
58
90
59
90
4
90
0
90
29
90
59
90
30
94
0
95
0
0
LWPOLYLINE
  5
1401
330
1F
  100
AcDbEntity
8
minor_roads
  100
AcDbPolyline
70
0
38
0.0000
90
4
10
351.4542
20
115.6279
10
362.4779
20
91.2271
10
363.0468
20
87.6144
10
360.1427
20
80.7527
0
LWPOLYLINE
  5
1402
330
1F
  100
AcDbEntity
8
minor_roads
  100
AcDbPolyline
70
0
38
0.0000
90
2
10
382.7815
20
138.7385
10
412.7763
20
74.4155
0
LWPOLYLINE
  5
1403
330
1F
  100
AcDbEntity
8
minor_roads
  100
AcDbPolyline
70
0
38
0.0000
90
14
10
438.7336
20
59.4438
10
435.3248
20
73.1431
10
434.2909
20
75.8088
10
430.5870
20
85.3664
10
397.1711
20
153.3776
10
393.4960
20
153.9642
10
384.2735
20
140.3631
10
382.7815
20
138.7385
10
378.6887
20
134.2641
10
367.2925
20
125.9759
10
364.1786
20
123.7112
10
351.4542
20
115.6279
10
347.1420
20
112.8902
10
328.5901
20
102.9149
0
LWPOLYLINE
  5
1404
330
1F
  100
AcDbEntity
8
minor_roads
  100
AcDbPolyline
70
0
38
0.0000
90
13
10
640.5036
20
165.5360
10
638.5467
20
162.7508
10
560.8942
20
126.2297
10
466.3038
20
81.7390
10
458.2104
20
78.9656
10
434.2909
20
75.8088
10
412.7763
20
74.4155
10
410.4862
20
74.2679
10
400.1618
20
75.9439
10
395.6884
20
77.3295
10
390.9466
20
79.8203
10
387.5988
20
83.4342
10
367.2925
20
125.9759
0
LWPOLYLINE
  5
1405
330
1F
  100
AcDbEntity
8
paths
  100
AcDbPolyline
70
0
38
0.0000
90
7
10
524.6615
20
123.3192
10
479.5930
20
155.1355
10
449.1076
20
176.5911
10
427.4997
20
146.7248
10
416.8945
20
139.5785
10
418.0739
20
134.0803
10
441.0585
20
84.6191
  0
MESH
  5
1406
330
1F
  100
AcDbEntity
8
buildings
  100
AcDbSubDMesh
71
2
72
0
91
0
92
56
10
493.3555
20
249.8819
30
4.0000
10
504.4849
20
244.3424
30
4.0000
10
529.5130
20
229.2413
30
4.0000
10
533.3043
20
234.0131
30
4.0000
10
536.0904
20
231.7553
30
4.0000
10
542.6693
20
238.0397
30
4.0000
10
546.7146
20
246.0803
30
4.0000
10
541.4109
20
249.6114
30
4.0000
10
544.6971
20
254.6527
30
4.0000
10
534.8315
20
261.9468
30
4.0000
10
542.6830
20
271.4996
30
4.0000
10
555.0845
20
287.8577
30
4.0000
10
567.7407
20
309.4906
30
4.0000
10
563.9442
20
311.7674
30
4.0000
10
566.9858
20
316.7995
30
4.0000
10
563.4429
20
321.5743
30
4.0000
10
558.3839
20
325.3561
30
4.0000
10
551.0592
20
328.6280
30
4.0000
10
550.0317
20
326.8639
30
4.0000
10
546.4959
20
329.1406
30
4.0000
10
536.3789
20
319.5794
30
4.0000
10
529.5472
20
312.7751
30
4.0000
10
521.9566
20
303.4729
30
4.0000
10
515.3686
20
294.9226
30
4.0000
10
508.7962
20
284.8585
30
4.0000
10
503.7241
20
276.7997
30
4.0000
10
497.6570
20
266.7448
30
4.0000
10
491.0744
20
251.6473
30
4.0000
10
493.3555
20
249.8819
30
0.0000
10
504.4849
20
244.3424
30
0.0000
10
529.5130
20
229.2413
30
0.0000
10
533.3043
20
234.0131
30
0.0000
10
536.0904
20
231.7553
30
0.0000
10
542.6693
20
238.0397
30
0.0000
10
546.7146
20
246.0803
30
0.0000
10
541.4109
20
249.6114
30
0.0000
10
544.6971
20
254.6527
30
0.0000
10
534.8315
20
261.9468
30
0.0000
10
542.6830
20
271.4996
30
0.0000
10
555.0845
20
287.8577
30
0.0000
10
567.7407
20
309.4906
30
0.0000
10
563.9442
20
311.7674
30
0.0000
10
566.9858
20
316.7995
30
0.0000
10
563.4429
20
321.5743
30
0.0000
10
558.3839
20
325.3561
30
0.0000
10
551.0592
20
328.6280
30
0.0000
10
550.0317
20
326.8639
30
0.0000
10
546.4959
20
329.1406
30
0.0000
10
536.3789
20
319.5794
30
0.0000
10
529.5472
20
312.7751
30
0.0000
10
521.9566
20
303.4729
30
0.0000
10
515.3686
20
294.9226
30
0.0000
10
508.7962
20
284.8585
30
0.0000
10
503.7241
20
276.7997
30
0.0000
10
497.6570
20
266.7448
30
0.0000
10
491.0744
20
251.6473
30
0.0000
93
348
90
3
90
0
90
26
90
27
90
3
90
28
90
55
90
54
90
3
90
1
90
26
90
0
90
3
90
29
90
28
90
54
90
3
90
9
90
1
90
3
90
3
90
37
90
31
90
29
90
3
90
7
90
9
90
3
90
3
90
35
90
31
90
37
90
3
90
24
90
9
90
10
90
3
90
52
90
38
90
37
90
3
90
3
90
1
90
2
90
3
90
31
90
30
90
29
90
3
90
9
90
26
90
1
90
3
90
37
90
29
90
54
90
3
90
9
90
24
90
25
90
3
90
37
90
53
90
52
90
3
90
25
90
26
90
9
90
3
90
53
90
37
90
54
90
3
90
23
90
24
90
10
90
3
90
51
90
38
90
52
90
3
90
11
90
21
90
22
90
3
90
39
90
50
90
49
90
3
90
10
90
22
90
23
90
3
90
38
90
51
90
50
90
3
90
21
90
11
90
20
90
3
90
49
90
48
90
39
90
3
90
5
90
3
90
4
90
3
90
33
90
32
90
31
90
3
90
5
90
7
90
3
90
3
90
33
90
31
90
35
90
3
90
6
90
7
90
5
90
3
90
34
90
33
90
35
90
3
90
8
90
9
90
7
90
3
90
36
90
35
90
37
90
3
90
20
90
11
90
13
90
3
90
48
90
41
90
39
90
3
90
13
90
11
90
12
90
3
90
41
90
40
90
39
90
3
90
20
90
18
90
19
90
3
90
48
90
47
90
46
90
3
90
17
90
18
90
16
90
3
90
45
90
44
90
46
90
3
90
13
90
14
90
15
90
3
90
41
90
43
90
42
90
3
90
15
90
16
90
13
90
3
90
43
90
41
90
44
90
3
90
13
90
16
90
18
90
3
90
41
90
46
90
44
90
3
90
13
90
18
90
20
90
3
90
41
90
48
90
46
90
3
90
11
90
22
90
10
90
3
90
39
90
38
90
50
90
4
90
1
90
0
90
28
90
29
90
4
90
2
90
1
90
29
90
30
90
4
90
3
90
2
90
30
90
31
90
4
90
4
90
3
90
31
90
32
90
4
90
5
90
4
90
32
90
33
90
4
90
6
90
5
90
33
90
34
90
4
90
7
90
6
90
34
90
35
90
4
90
8
90
7
90
35
90
36
90
4
90
9
90
8
90
36
90
37
90
4
90
10
90
9
90
37
90
38
90
4
90
11
90
10
90
38
90
39
90
4
90
12
90
11
90
39
90
40
90
4
90
13
90
12
90
40
90
41
90
4
90
14
90
13
90
41
90
42
90
4
90
15
90
14
90
42
90
43
90
4
90
16
90
15
90
43
90
44
90
4
90
17
90
16
90
44
90
45
90
4
90
18
90
17
90
45
90
46
90
4
90
19
90
18
90
46
90
47
90
4
90
20
90
19
90
47
90
48
90
4
90
21
90
20
90
48
90
49
90
4
90
22
90
21
90
49
90
50
90
4
90
23
90
22
90
50
90
51
90
4
90
24
90
23
90
51
90
52
90
4
90
25
90
24
90
52
90
53
90
4
90
26
90
25
90
53
90
54
90
4
90
27
90
26
90
54
90
55
90
4
90
0
90
27
90
55
90
28
94
0
95
0
0
LWPOLYLINE
  5
1407
330
1F
  100
AcDbEntity
8
paths
  100
AcDbPolyline
70
0
38
0.0000
90
2
10
554.6044
20
249.5039
10
591.9172
20
224.1268
0
LWPOLYLINE
  5
1408
330
1F
  100
AcDbEntity
8
paths
  100
AcDbPolyline
70
0
38
0.0000
90
9
10
504.7079
20
389.8649
10
517.3708
20
407.9966
10
519.4595
20
414.2178
10
522.7053
20
420.2064
10
535.6699
20
438.8488
10
542.6157
20
445.7645
10
551.8785
20
459.3379
10
553.2732
20
462.3276
10
553.2751
20
466.9431
0
LWPOLYLINE
  5
1409
330
1F
  100
AcDbEntity
8
minor_roads
  100
AcDbPolyline
70
0
38
0.0000
90
6
10
617.1758
20
437.3577
10
605.5188
20
447.8935
10
601.4456
20
451.2848
10
592.6151
20
458.6434
10
582.5461
20
466.3926
10
496.8676
20
525.9089
0
LWPOLYLINE
  5
140a
330
1F
  100
AcDbEntity
8
minor_roads
  100
AcDbPolyline
70
0
38
0.0000
90
4
10
489.7982
20
515.7243
10
481.8307
20
520.9467
10
472.2339
20
527.2471
10
457.5862
20
537.2828
0
LWPOLYLINE
  5
140b
330
1F
  100
AcDbEntity
8
paths
  100
AcDbPolyline
70
0
38
0.0000
90
10
10
606.8519
20
419.5407
10
602.6652
20
424.2414
10
599.3175
20
427.9946
10
590.8290
20
434.8980
10
586.8864
20
438.7165
10
584.7449
20
442.7478
10
581.7316
20
447.3552
10
553.2751
20
466.9431
10
496.8109
20
507.0291
10
495.7437
20
507.7353
0
LWPOLYLINE
  5
140c
330
1F
  100
AcDbEntity
8
minor_roads
  100
AcDbPolyline
70
0
38
0.0000
90
3
10
479.9064
20
537.8772
10
472.2339
20
527.2471
10
434.5218
20
471.8398
0
LWPOLYLINE
  5
140d
330
1F
  100
AcDbEntity
8
paths
  100
AcDbPolyline
70
0
38
0.0000
90
6
10
275.5631
20
480.7390
10
298.7294
20
515.7120
10
307.5278
20
509.7741
10
326.2755
20
540.8207
10
327.8575
20
543.3182
10
329.5535
20
545.7320
  0
MESH
  5
140e
330
1F
  100
AcDbEntity
8
buildings
  100
AcDbSubDMesh
71
2
72
0
91
0
92
8
10
328.5769
20
34.0448
30
4.0000
10
356.5509
20
47.0343
30
4.0000
10
349.0359
20
63.0663
30
4.0000
10
321.0538
20
50.0954
30
4.0000
10
328.5769
20
34.0448
30
0.0000
10
356.5509
20
47.0343
30
0.0000
10
349.0359
20
63.0663
30
0.0000
10
321.0538
20
50.0954
30
0.0000
93
36
90
3
90
3
90
0
90
2
90
3
90
7
90
6
90
4
90
3
90
1
90
2
90
0
90
3
90
5
90
4
90
6
90
4
90
1
90
0
90
4
90
5
90
4
90
2
90
1
90
5
90
6
90
4
90
3
90
2
90
6
90
7
90
4
90
0
90
3
90
7
90
4
94
0
95
0
  0
MESH
  5
140f
330
1F
  100
AcDbEntity
8
buildings
  100
AcDbSubDMesh
71
2
72
0
91
0
92
74
10
377.8893
20
228.6915
30
12.0000
10
387.5025
20
222.0939
30
12.0000
10
392.0296
20
212.9074
30
12.0000
10
401.9385
20
211.8074
30
12.0000
10
414.4438
20
202.9148
30
12.0000
10
473.7037
20
161.1928
30
12.0000
10
505.3988
20
207.6968
30
12.0000
10
493.4615
20
210.5991
30
12.0000
10
482.5675
20
214.2533
30
12.0000
10
472.0000
20
219.0032
30
12.0000
10
455.8852
20
229.3367
30
12.0000
10
457.2223
20
230.8313
30
12.0000
10
459.0990
20
236.4861
30
12.0000
10
460.5853
20
243.9799
30
12.0000
10
461.2895
20
252.2540
30
12.0000
10
460.2859
20
268.8869
30
12.0000
10
457.7071
20
279.6141
30
12.0000
10
450.2004
20
295.8225
30
12.0000
10
441.5138
20
296.7641
30
12.0000
10
433.8456
20
297.1109
30
12.0000
10
426.3646
20
296.7983
30
12.0000
10
420.0975
20
295.7515
30
12.0000
10
412.3957
20
293.6560
30
12.0000
10
405.9896
20
291.5134
30
12.0000
10
399.5668
20
288.5908
30
12.0000
10
392.5732
20
284.6748
30
12.0000
10
386.4840
20
280.2383
30
12.0000
10
384.4110
20
272.9120
30
12.0000
10
383.5033
20
265.4552
30
12.0000
10
382.5310
20
259.3635
30
12.0000
10
382.3321
20
251.7021
30
12.0000
10
382.5092
20
246.3993
30
12.0000
10
383.0774
20
241.1706
30
12.0000
10
379.8496
20
239.4540
30
12.0000
10
375.7500
20
237.9605
30
12.0000
10
371.3327
20
237.0430
30
12.0000
10
366.7445
20
236.5713
30
12.0000
10
377.8893
20
228.6915
30
0.0000
10
387.5025
20
222.0939
30
0.0000
10
392.0296
20
212.9074
30
0.0000
10
401.9385
20
211.8074
30
0.0000
10
414.4438
20
202.9148
30
0.0000
10
473.7037
20
161.1928
30
0.0000
10
505.3988
20
207.6968
30
0.0000
10
493.4615
20
210.5991
30
0.0000
10
482.5675
20
214.2533
30
0.0000
10
472.0000
20
219.0032
30
0.0000
10
455.8852
20
229.3367
30
0.0000
10
457.2223
20
230.8313
30
0.0000
10
459.0990
20
236.4861
30
0.0000
10
460.5853
20
243.9799
30
0.0000
10
461.2895
20
252.2540
30
0.0000
10
460.2859
20
268.8869
30
0.0000
10
457.7071
20
279.6141
30
0.0000
10
450.2004
20
295.8225
30
0.0000
10
441.5138
20
296.7641
30
0.0000
10
433.8456
20
297.1109
30
0.0000
10
426.3646
20
296.7983
30
0.0000
10
420.0975
20
295.7515
30
0.0000
10
412.3957
20
293.6560
30
0.0000
10
405.9896
20
291.5134
30
0.0000
10
399.5668
20
288.5908
30
0.0000
10
392.5732
20
284.6748
30
0.0000
10
386.4840
20
280.2383
30
0.0000
10
384.4110
20
272.9120
30
0.0000
10
383.5033
20
265.4552
30
0.0000
10
382.5310
20
259.3635
30
0.0000
10
382.3321
20
251.7021
30
0.0000
10
382.5092
20
246.3993
30
0.0000
10
383.0774
20
241.1706
30
0.0000
10
379.8496
20
239.4540
30
0.0000
10
375.7500
20
237.9605
30
0.0000
10
371.3327
20
237.0430
30
0.0000
10
366.7445
20
236.5713
30
0.0000
93
465
90
3
90
36
90
0
90
35
90
3
90
73
90
72
90
37
90
3
90
34
90
35
90
0
90
3
90
71
90
37
90
72
90
3
90
0
90
33
90
34
90
3
90
37
90
71
90
70
90
3
90
2
90
3
90
1
90
3
90
39
90
38
90
40
90
3
90
0
90
32
90
33
90
3
90
37
90
70
90
69
90
3
90
32
90
0
90
1
90
3
90
69
90
38
90
37
90
3
90
32
90
1
90
3
90
3
90
69
90
40
90
38
90
3
90
32
90
10
90
31
90
3
90
69
90
68
90
47
90
3
90
22
90
23
90
29
90
3
90
59
90
66
90
60
90
3
90
23
90
28
90
29
90
3
90
60
90
66
90
65
90
3
90
14
90
29
90
30
90
3
90
51
90
67
90
66
90
3
90
26
90
27
90
25
90
3
90
63
90
62
90
64
90
3
90
28
90
25
90
27
90
3
90
65
90
64
90
62
90
3
90
28
90
24
90
25
90
3
90
65
90
62
90
61
90
3
90
28
90
23
90
24
90
3
90
65
90
61
90
60
90
3
90
13
90
30
90
31
90
3
90
50
90
68
90
67
90
3
90
10
90
32
90
3
90
3
90
47
90
40
90
69
90
3
90
10
90
13
90
31
90
3
90
47
90
68
90
50
90
3
90
10
90
4
90
9
90
3
90
47
90
46
90
41
90
3
90
11
90
12
90
10
90
3
90
48
90
47
90
49
90
3
90
13
90
10
90
12
90
3
90
50
90
49
90
47
90
3
90
5
90
6
90
7
90
3
90
42
90
44
90
43
90
3
90
8
90
9
90
5
90
3
90
45
90
42
90
46
90
3
90
7
90
8
90
5
90
3
90
44
90
42
90
45
90
3
90
5
90
9
90
4
90
3
90
42
90
41
90
46
90
3
90
15
90
20
90
21
90
3
90
52
90
58
90
57
90
3
90
20
90
16
90
19
90
3
90
57
90
56
90
53
90
3
90
18
90
19
90
16
90
3
90
55
90
53
90
56
90
3
90
15
90
21
90
22
90
3
90
52
90
59
90
58
90
3
90
15
90
22
90
14
90
3
90
52
90
51
90
59
90
3
90
18
90
16
90
17
90
3
90
55
90
54
90
53
90
3
90
20
90
15
90
16
90
3
90
57
90
53
90
52
90
3
90
22
90
29
90
14
90
3
90
59
90
51
90
66
90
3
90
13
90
14
90
30
90
3
90
50
90
67
90
51
90
3
90
10
90
3
90
4
90
3
90
47
90
41
90
40
90
4
90
1
90
0
90
37
90
38
90
4
90
2
90
1
90
38
90
39
90
4
90
3
90
2
90
39
90
40
90
4
90
4
90
3
90
40
90
41
90
4
90
5
90
4
90
41
90
42
90
4
90
6
90
5
90
42
90
43
90
4
90
7
90
6
90
43
90
44
90
4
90
8
90
7
90
44
90
45
90
4
90
9
90
8
90
45
90
46
90
4
90
10
90
9
90
46
90
47
90
4
90
11
90
10
90
47
90
48
90
4
90
12
90
11
90
48
90
49
90
4
90
13
90
12
90
49
90
50
90
4
90
14
90
13
90
50
90
51
90
4
90
15
90
14
90
51
90
52
90
4
90
16
90
15
90
52
90
53
90
4
90
17
90
16
90
53
90
54
90
4
90
18
90
17
90
54
90
55
90
4
90
19
90
18
90
55
90
56
90
4
90
20
90
19
90
56
90
57
90
4
90
21
90
20
90
57
90
58
90
4
90
22
90
21
90
58
90
59
90
4
90
23
90
22
90
59
90
60
90
4
90
24
90
23
90
60
90
61
90
4
90
25
90
24
90
61
90
62
90
4
90
26
90
25
90
62
90
63
90
4
90
27
90
26
90
63
90
64
90
4
90
28
90
27
90
64
90
65
90
4
90
29
90
28
90
65
90
66
90
4
90
30
90
29
90
66
90
67
90
4
90
31
90
30
90
67
90
68
90
4
90
32
90
31
90
68
90
69
90
4
90
33
90
32
90
69
90
70
90
4
90
34
90
33
90
70
90
71
90
4
90
35
90
34
90
71
90
72
90
4
90
36
90
35
90
72
90
73
90
4
90
0
90
36
90
73
90
37
94
0
95
0
0
LWPOLYLINE
  5
1410
330
1F
  100
AcDbEntity
8
paths
  100
AcDbPolyline
70
0
38
0.0000
90
5
10
428.3859
20
336.4795
10
433.7395
20
315.9908
10
442.4627
20
285.8704
10
476.1181
20
304.1605
10
483.1533
20
310.3146
  0
MESH
  5
1411
330
1F
  100
AcDbEntity
8
buildings
  100
AcDbSubDMesh
71
2
72
0
91
0
92
20
10
106.9924
20
479.1230
30
15.0000
10
135.9934
20
457.8992
30
15.0000
10
176.9534
20
427.9408
30
15.0000
10
193.0787
20
387.2301
30
15.0000
10
211.6208
20
394.0477
30
15.0000
10
190.0152
20
444.1125
30
15.0000
10
150.7995
20
474.8873
30
15.0000
10
116.9095
20
496.9861
30
15.0000
10
64.2916
20
497.1212
30
15.0000
10
64.2510
20
479.2257
30
15.0000
10
106.9924
20
479.1230
30
0.0000
10
135.9934
20
457.8992
30
0.0000
10
176.9534
20
427.9408
30
0.0000
10
193.0787
20
387.2301
30
0.0000
10
211.6208
20
394.0477
30
0.0000
10
190.0152
20
444.1125
30
0.0000
10
150.7995
20
474.8873
30
0.0000
10
116.9095
20
496.9861
30
0.0000
10
64.2916
20
497.1212
30
0.0000
10
64.2510
20
479.2257
30
0.0000
93
114
90
3
90
0
90
1
90
7
90
3
90
10
90
17
90
11
90
3
90
0
90
8
90
9
90
3
90
10
90
19
90
18
90
3
90
8
90
0
90
7
90
3
90
18
90
17
90
10
90
3
90
1
90
6
90
7
90
3
90
11
90
17
90
16
90
3
90
3
90
4
90
2
90
3
90
13
90
12
90
14
90
3
90
6
90
2
90
5
90
3
90
16
90
15
90
12
90
3
90
6
90
1
90
2
90
3
90
16
90
12
90
11
90
3
90
5
90
2
90
4
90
3
90
15
90
14
90
12
90
4
90
1
90
0
90
10
90
11
90
4
90
2
90
1
90
11
90
12
90
4
90
3
90
2
90
12
90
13
90
4
90
4
90
3
90
13
90
14
90
4
90
5
90
4
90
14
90
15
90
4
90
6
90
5
90
15
90
16
90
4
90
7
90
6
90
16
90
17
90
4
90
8
90
7
90
17
90
18
90
4
90
9
90
8
90
18
90
19
90
4
90
0
90
9
90
19
90
10
94
0
95
0
0
LWPOLYLINE
  5
1412
330
1F
  100
AcDbEntity
8
paths
  100
AcDbPolyline
70
0
38
0.0000
90
4
10
133.8328
20
455.4113
10
170.0353
20
429.1140
10
187.5664
20
397.8193
10
191.9448
20
384.5839
0
LWPOLYLINE
  5
1413
330
1F
  100
AcDbEntity
8
paths
  100
AcDbPolyline
70
0
38
0.0000
90
5
10
499.2851
20
183.4610
10
479.5930
20
155.1355
10
470.2449
20
152.7155
10
431.4886
20
136.7864
10
418.0739
20
134.0803
0
LWPOLYLINE
  5
1414
330
1F
  100
AcDbEntity
8
minor_roads
  100
AcDbPolyline
70
0
38
0.0000
90
4
10
156.6225
20
430.2436
10
161.4273
20
423.1000
10
172.8893
20
396.3121
10
185.7190
20
366.3290
0
LWPOLYLINE
  5
1415
330
1F
  100
AcDbEntity
8
paths
  100
AcDbPolyline
70
0
38
0.0000
90
15
10
79.1648
20
373.0442
10
93.3291
20
339.4572
10
94.1350
20
337.5437
10
97.5377
20
329.3792
10
101.0788
20
320.8989
10
102.2347
20
318.1123
10
113.8754
20
290.1728
10
125.1337
20
263.1806
10
126.0617
20
260.9792
10
131.1181
20
251.5881
10
133.2677
20
247.6125
10
143.7028
20
238.7019
10
152.4141
20
238.1966
10
168.7801
20
225.5037
10
174.5799
20
219.8641
0
LWPOLYLINE
  5
1416
330
1F
  100
AcDbEntity
8
paths
  100
AcDbPolyline
70
0
38
0.0000
90
5
10
536.4425
20
395.1824
10
541.9172
20
391.6884
10
547.9134
20
387.8691
10
556.6714
20
382.5164
10
561.0789
20
379.8214
0
LWPOLYLINE
  5
1417
330
1F
  100
AcDbEntity
8
paths
  100
AcDbPolyline
70
0
38
0.0000
90
2
10
598.6070
20
363.6381
10
587.9535
20
357.0024
0
LWPOLYLINE
  5
1418
330
1F
  100
AcDbEntity
8
paths
  100
AcDbPolyline
70
0
38
0.0000
90
7
10
550.7855
20
356.8782
10
586.4685
20
332.3840
10
599.2346
20
323.7050
10
629.4596
20
303.1786
10
665.6150
20
277.2449
10
691.9134
20
259.3669
10
696.4665
20
253.5795
0
LWPOLYLINE
  5
1419
330
1F
  100
AcDbEntity
8
paths
  100
AcDbPolyline
70
0
38
0.0000
90
19
10
542.7039
20
362.4349
10
550.5380
20
369.4060
10
561.0789
20
379.8214
10
563.8997
20
382.5970
10
606.8519
20
419.5407
10
650.4811
20
458.3787
10
653.4967
20
459.5290
10
657.4335
20
461.5984
10
666.4742
20
470.2500
10
677.3409
20
480.6282
10
681.2783
20
484.3970
10
674.0604
20
489.4612
10
669.7996
20
492.4439
10
662.2558
20
497.7403
10
656.9197
20
501.5871
10
656.9469
20
508.5243
10
659.5564
20
513.0830
10
663.6192
20
524.5504
10
665.6690
20
535.7958
0
LWPOLYLINE
  5
141a
330
1F
  100
AcDbEntity
8
paths
  100
AcDbPolyline
70
0
38
0.0000
90
6
10
570.4722
20
192.9786
10
591.9172
20
224.1268
10
603.3735
20
240.7732
10
566.6882
20
266.1779
10
555.0788
20
273.7698
10
581.2859
20
312.9119
0
LWPOLYLINE
  5
141b
330
1F
  100
AcDbEntity
8
paths
  100
AcDbPolyline
70
0
38
0.0000
90
5
10
174.5799
20
219.8641
10
179.9647
20
215.7756
10
185.7894
20
211.3526
10
181.5736
20
205.2159
10
175.4251
20
196.2755
0
LWPOLYLINE
  5
141c
330
1F
  100
AcDbEntity
8
minor_roads
  100
AcDbPolyline
70
0
38
0.0000
90
3
10
92.7859
20
327.5147
10
88.7339
20
323.2911
10
72.7179
20
316.5654
0
LWPOLYLINE
  5
141d
330
1F
  100
AcDbEntity
8
paths
  100
AcDbPolyline
70
0
38
0.0000
90
3
10
73.9061
20
385.5372
10
76.7227
20
378.8588
10
79.1648
20
373.0442
0
LWPOLYLINE
  5
141e
330
1F
  100
AcDbEntity
8
minor_roads
  100
AcDbPolyline
70
0
38
0.0000
90
5
10
66.7902
20
472.0552
10
94.9528
20
453.1535
10
98.0577
20
453.4214
10
101.4083
20
456.4938
10
108.1355
20
466.0003
0
LWPOLYLINE
  5
141f
330
1F
  100
AcDbEntity
8
parks
  100
AcDbPolyline
70
0
38
0.0000
90
5
10
117.1929
20
529.4337
10
122.8846
20
537.7428
10
136.2774
20
528.6637
10
130.5776
20
520.3454
10
117.1929
20
529.4337
0
LWPOLYLINE
  5
1420
330
1F
  100
AcDbEntity
8
paths
  100
AcDbPolyline
70
0
38
0.0000
90
5
10
108.8544
20
451.6892
10
97.6264
20
436.6219
10
85.8446
20
422.0378
10
75.1518
20
419.2473
10
62.1433
20
413.4490
0
LWPOLYLINE
  5
1421
330
1F
  100
AcDbEntity
8
paths
  100
AcDbPolyline
70
0
38
0.0000
90
3
10
61.9945
20
499.0074
10
117.4649
20
499.9019
10
121.7543
20
506.6143
0
LWPOLYLINE
  5
1422
330
1F
  100
AcDbEntity
8
paths
  100
AcDbPolyline
70
0
38
0.0000
90
2
10
139.7329
20
511.0360
10
131.2611
20
499.7565
0
LWPOLYLINE
  5
1423
330
1F
  100
AcDbEntity
8
paths
  100
AcDbPolyline
70
0
38
0.0000
90
2
10
171.3546
20
500.8810
10
175.6314
20
497.6659
0
LWPOLYLINE
  5
1424
330
1F
  100
AcDbEntity
8
paths
  100
AcDbPolyline
70
0
38
0.0000
90
2
10
182.1596
20
518.1587
10
188.4336
20
516.7073
  0
MESH
  5
1425
330
1F
  100
AcDbEntity
8
buildings
  100
AcDbSubDMesh
71
2
72
0
91
0
92
8
10
289.5154
20
10.7891
30
4.0000
10
302.2553
20
16.4671
30
4.0000
10
299.8942
20
21.7058
30
4.0000
10
287.1544
20
16.0371
30
4.0000
10
289.5154
20
10.7891
30
0.0000
10
302.2553
20
16.4671
30
0.0000
10
299.8942
20
21.7058
30
0.0000
10
287.1544
20
16.0371
30
0.0000
93
36
90
3
90
3
90
0
90
2
90
3
90
7
90
6
90
4
90
3
90
1
90
2
90
0
90
3
90
5
90
4
90
6
90
4
90
1
90
0
90
4
90
5
90
4
90
2
90
1
90
5
90
6
90
4
90
3
90
2
90
6
90
7
90
4
90
0
90
3
90
7
90
4
94
0
95
0
  0
MESH
  5
1426
330
1F
  100
AcDbEntity
8
buildings
  100
AcDbSubDMesh
71
2
72
0
91
0
92
8
10
317.5794
20
24.3821
30
4.0000
10
320.3191
20
28.0770
30
4.0000
10
316.9464
20
30.5487
30
4.0000
10
314.1985
20
26.8538
30
4.0000
10
317.5794
20
24.3821
30
0.0000
10
320.3191
20
28.0770
30
0.0000
10
316.9464
20
30.5487
30
0.0000
10
314.1985
20
26.8538
30
0.0000
93
36
90
3
90
2
90
3
90
0
90
3
90
6
90
4
90
7
90
3
90
0
90
1
90
2
90
3
90
4
90
6
90
5
90
4
90
1
90
0
90
4
90
5
90
4
90
2
90
1
90
5
90
6
90
4
90
3
90
2
90
6
90
7
90
4
90
0
90
3
90
7
90
4
94
0
95
0
  0
MESH
  5
1427
330
1F
  100
AcDbEntity
8
buildings
  100
AcDbSubDMesh
71
2
72
0
91
0
92
16
10
309.0468
20
23.8007
30
4.0000
10
317.8045
20
36.2318
30
4.0000
10
311.1240
20
40.8780
30
4.0000
10
309.2649
20
38.2414
30
4.0000
10
308.0021
20
39.1242
30
4.0000
10
303.0688
20
32.1241
30
4.0000
10
304.3478
20
31.2321
30
4.0000
10
302.3826
20
28.4469
30
4.0000
10
309.0468
20
23.8007
30
0.0000
10
317.8045
20
36.2318
30
0.0000
10
311.1240
20
40.8780
30
0.0000
10
309.2649
20
38.2414
30
0.0000
10
308.0021
20
39.1242
30
0.0000
10
303.0688
20
32.1241
30
0.0000
10
304.3478
20
31.2321
30
0.0000
10
302.3826
20
28.4469
30
0.0000
93
88
90
3
90
6
90
7
90
0
90
3
90
14
90
8
90
15
90
3
90
4
90
5
90
6
90
3
90
12
90
14
90
13
90
3
90
6
90
3
90
4
90
3
90
14
90
12
90
11
90
3
90
1
90
3
90
6
90
3
90
9
90
14
90
11
90
3
90
2
90
3
90
1
90
3
90
10
90
9
90
11
90
3
90
1
90
6
90
0
90
3
90
9
90
8
90
14
90
4
90
1
90
0
90
8
90
9
90
4
90
2
90
1
90
9
90
10
90
4
90
3
90
2
90
10
90
11
90
4
90
4
90
3
90
11
90
12
90
4
90
5
90
4
90
12
90
13
90
4
90
6
90
5
90
13
90
14
90
4
90
7
90
6
90
14
90
15
90
4
90
0
90
7
90
15
90
8
94
0
95
0
0
LWPOLYLINE
  5
1428
330
1F
  100
AcDbEntity
8
paths
  100
AcDbPolyline
70
0
38
0.0000
90
3
10
248.4238
20
173.3612
10
240.4580
20
164.1244
10
233.3564
20
155.8716
0
LWPOLYLINE
  5
1429
330
1F
  100
AcDbEntity
8
paths
  100
AcDbPolyline
70
0
38
0.0000
90
4
10
276.1967
20
230.7409
10
278.0252
20
219.0853
10
277.0372
20
214.6281
10
248.4238
20
173.3612
0
LWPOLYLINE
  5
142a
330
1F
  100
AcDbEntity
8
paths
  100
AcDbPolyline
70
0
38
0.0000
90
2
10
310.2396
20
239.8551
10
277.6814
20
234.4085
0
LWPOLYLINE
  5
142b
330
1F
  100
AcDbEntity
8
paths
  100
AcDbPolyline
70
0
38
0.0000
90
21
10
271.6984
20
231.0029
10
270.9328
20
231.9412
10
270.5258
20
233.0743
10
270.5182
20
234.2816
10
270.9099
20
235.4237
10
271.6519
20
236.3706
10
272.6626
20
237.0295
10
273.8362
20
237.3169
10
275.0341
20
237.2142
10
275.9711
20
236.8238
10
276.7613
20
236.1920
10
277.3477
20
235.3652
10
277.6814
20
234.4085
10
277.7298
20
233.3684
10
277.4931
20
232.3562
10
276.9630
20
231.4557
10
276.1967
20
230.7409
10
275.0963
20
230.2213
10
273.8983
20
230.0918
10
272.7250
20
230.3710
10
271.6984
20
231.0029
0
LWPOLYLINE
  5
142c
330
1F
  100
AcDbEntity
8
minor_roads
  100
AcDbPolyline
70
0
38
0.0000
90
5
10
567.9365
20
109.4365
10
560.8942
20
126.2297
10
559.2984
20
129.7872
10
555.6834
20
137.8495
10
555.0809
20
139.1870
0
LWPOLYLINE
  5
142d
330
1F
  100
AcDbEntity
8
paths
  100
AcDbPolyline
70
0
38
0.0000
90
3
10
506.5994
20
194.3420
10
516.0007
20
207.2188
10
527.2937
20
222.7136
0
LWPOLYLINE
  5
142e
330
1F
  100
AcDbEntity
8
paths
  100
AcDbPolyline
70
0
38
0.0000
90
3
10
550.0431
20
135.1680
10
555.6834
20
137.8495
10
560.7532
20
140.2713
0
LWPOLYLINE
  5
142f
330
1F
  100
AcDbEntity
8
paths
  100
AcDbPolyline
70
0
38
0.0000
90
3
10
267.4453
20
383.4365
10
299.1685
20
361.7941
10
309.0584
20
354.7320
0
LWPOLYLINE
  5
1430
330
1F
  100
AcDbEntity
8
water
  100
AcDbPolyline
70
0
38
0.0000
90
17
10
260.6478
20
286.6628
10
282.5379
20
290.1173
10
289.2621
20
292.8354
10
290.9994
20
296.5493
10
288.7689
20
302.0016
10
268.8749
20
316.1167
10
263.6436
20
317.1033
10
256.9366
20
316.3633
10
251.7034
20
313.1524
10
250.7079
20
309.9303
10
251.4552
20
304.4880
10
249.7094
20
300.0311
10
246.9698
20
296.5684
10
245.9729
20
290.3839
10
247.9591
20
285.4332
10
254.4294
20
285.1889
10
260.6478
20
286.6628
0
LWPOLYLINE
  5
1431
330
1F
  100
AcDbEntity
8
paths
  100
AcDbPolyline
70
0
38
0.0000
90
5
10
268.4973
20
253.3016
10
274.2628
20
262.6044
10
277.1679
20
271.9177
10
289.6139
20
277.2708
10
295.8807
20
277.3516
0
LWPOLYLINE
  5
1432
330
1F
  100
AcDbEntity
8
paths
  100
AcDbPolyline
70
0
38
0.0000
90
6
10
383.0711
20
322.6521
10
385.2289
20
337.8999
10
390.2752
20
342.5412
10
394.0097
20
347.9816
10
395.2589
20
353.4323
10
395.5170
20
366.5450
  0
MESH
  5
1433
330
1F
  100
AcDbEntity
8
buildings
  100
AcDbSubDMesh
71
2
72
0
91
0
92
12
10
357.8784
20
294.5148
30
4.0000
10
372.1074
20
315.0695
30
4.0000
10
371.4571
20
319.0816
30
4.0000
10
370.8638
20
322.7501
30
4.0000
10
342.2769
20
342.3293
30
4.0000
10
324.8434
20
317.1420
30
4.0000
10
357.8784
20
294.5148
30
0.0000
10
372.1074
20
315.0695
30
0.0000
10
371.4571
20
319.0816
30
0.0000
10
370.8638
20
322.7501
30
0.0000
10
342.2769
20
342.3293
30
0.0000
10
324.8434
20
317.1420
30
0.0000
93
62
90
3
90
4
90
5
90
3
90
3
90
10
90
9
90
11
90
3
90
2
90
5
90
0
90
3
90
8
90
6
90
11
90
3
90
2
90
3
90
5
90
3
90
8
90
11
90
9
90
3
90
1
90
2
90
0
90
3
90
7
90
6
90
8
90
4
90
1
90
0
90
6
90
7
90
4
90
2
90
1
90
7
90
8
90
4
90
3
90
2
90
8
90
9
90
4
90
4
90
3
90
9
90
10
90
4
90
5
90
4
90
10
90
11
90
4
90
0
90
5
90
11
90
6
94
0
95
0
0
LWPOLYLINE
  5
1434
330
1F
  100
AcDbEntity
8
paths
  100
AcDbPolyline
70
0
38
0.0000
90
2
10
346.0021
20
249.1358
10
367.5082
20
250.2317
0
LWPOLYLINE
  5
1435
330
1F
  100
AcDbEntity
8
paths
  100
AcDbPolyline
70
0
38
0.0000
90
4
10
196.8972
20
453.6283
10
201.2434
20
460.0992
10
202.7785
20
467.1100
10
205.2035
20
477.8444
0
LWPOLYLINE
  5
1436
330
1F
  100
AcDbEntity
8
paths
  100
AcDbPolyline
70
0
38
0.0000
90
2
10
275.8948
20
475.1855
10
278.4063
20
478.9362
  0
MESH
  5
1437
330
1F
  100
AcDbEntity
8
buildings
  100
AcDbSubDMesh
71
2
72
0
91
0
92
38
10
375.1400
20
433.3807
30
3.0000
10
391.3442
20
423.4557
30
3.0000
10
401.8543
20
437.6878
30
3.0000
10
406.7260
20
434.2868
30
3.0000
10
411.5775
20
441.0640
30
3.0000
10
416.0459
20
447.4235
30
3.0000
10
410.9134
20
450.8339
30
3.0000
10
413.6693
20
454.5196
30
3.0000
10
399.0951
20
464.8897
30
3.0000
10
384.5289
20
474.8140
30
3.0000
10
383.7788
20
473.7649
30
3.0000
10
379.3145
20
477.0264
30
3.0000
10
371.7314
20
466.2292
30
3.0000
10
369.3524
20
467.4189
30
3.0000
10
364.4360
20
461.5054
30
3.0000
10
366.8147
20
459.5727
30
3.0000
10
359.0849
20
448.9149
30
3.0000
10
360.1275
20
447.8836
30
3.0000
10
358.3336
20
445.0705
30
3.0000
10
375.1400
20
433.3807
30
0.0000
10
391.3442
20
423.4557
30
0.0000
10
401.8543
20
437.6878
30
0.0000
10
406.7260
20
434.2868
30
0.0000
10
411.5775
20
441.0640
30
0.0000
10
416.0459
20
447.4235
30
0.0000
10
410.9134
20
450.8339
30
0.0000
10
413.6693
20
454.5196
30
0.0000
10
399.0951
20
464.8897
30
0.0000
10
384.5289
20
474.8140
30
0.0000
10
383.7788
20
473.7649
30
0.0000
10
379.3145
20
477.0264
30
0.0000
10
371.7314
20
466.2292
30
0.0000
10
369.3524
20
467.4189
30
0.0000
10
364.4360
20
461.5054
30
0.0000
10
366.8147
20
459.5727
30
0.0000
10
359.0849
20
448.9149
30
0.0000
10
360.1275
20
447.8836
30
0.0000
10
358.3336
20
445.0705
30
0.0000
93
231
90
3
90
16
90
17
90
15
90
3
90
35
90
34
90
36
90
3
90
0
90
17
90
18
90
3
90
19
90
37
90
36
90
3
90
15
90
17
90
0
90
3
90
34
90
19
90
36
90
3
90
14
90
15
90
13
90
3
90
33
90
32
90
34
90
3
90
12
90
13
90
15
90
3
90
31
90
34
90
32
90
3
90
10
90
11
90
12
90
3
90
29
90
31
90
30
90
3
90
12
90
15
90
8
90
3
90
31
90
27
90
34
90
3
90
8
90
15
90
0
90
3
90
27
90
19
90
34
90
3
90
8
90
0
90
2
90
3
90
27
90
21
90
19
90
3
90
2
90
4
90
6
90
3
90
21
90
25
90
23
90
3
90
4
90
2
90
3
90
3
90
23
90
22
90
21
90
3
90
6
90
4
90
5
90
3
90
25
90
24
90
23
90
3
90
9
90
10
90
8
90
3
90
28
90
27
90
29
90
3
90
8
90
6
90
7
90
3
90
27
90
26
90
25
90
3
90
10
90
12
90
8
90
3
90
29
90
27
90
31
90
3
90
2
90
6
90
8
90
3
90
21
90
27
90
25
90
3
90
2
90
0
90
1
90
3
90
21
90
20
90
19
90
4
90
1
90
0
90
19
90
20
90
4
90
2
90
1
90
20
90
21
90
4
90
3
90
2
90
21
90
22
90
4
90
4
90
3
90
22
90
23
90
4
90
5
90
4
90
23
90
24
90
4
90
6
90
5
90
24
90
25
90
4
90
7
90
6
90
25
90
26
90
4
90
8
90
7
90
26
90
27
90
4
90
9
90
8
90
27
90
28
90
4
90
10
90
9
90
28
90
29
90
4
90
11
90
10
90
29
90
30
90
4
90
12
90
11
90
30
90
31
90
4
90
13
90
12
90
31
90
32
90
4
90
14
90
13
90
32
90
33
90
4
90
15
90
14
90
33
90
34
90
4
90
16
90
15
90
34
90
35
90
4
90
17
90
16
90
35
90
36
90
4
90
18
90
17
90
36
90
37
90
4
90
0
90
18
90
37
90
19
94
0
95
0
0
LWPOLYLINE
  5
1438
330
1F
  100
AcDbEntity
8
paths
  100
AcDbPolyline
70
0
38
0.0000
90
3
10
443.3656
20
457.5810
10
443.4517
20
448.9722
10
443.5455
20
439.5833
0
LWPOLYLINE
  5
1439
330
1F
  100
AcDbEntity
8
paths
  100
AcDbPolyline
70
0
38
0.0000
90
2
10
499.1506
20
311.8310
10
470.4491
20
330.5370
0
LWPOLYLINE
  5
143a
330
1F
  100
AcDbEntity
8
paths
  100
AcDbPolyline
70
0
38
0.0000
90
4
10
539.8760
20
342.2097
10
543.0151
20
346.2574
10
546.1541
20
350.2865
10
550.7855
20
356.8782
0
LWPOLYLINE
  5
143b
330
1F
  100
AcDbEntity
8
paths
  100
AcDbPolyline
70
0
38
0.0000
90
5
10
523.5418
20
353.7597
10
528.9538
20
356.2185
10
534.3658
20
358.6680
10
537.7728
20
360.2174
10
542.7039
20
362.4349
0
LWPOLYLINE
  5
143c
330
1F
  100
AcDbEntity
8
paths
  100
AcDbPolyline
70
0
38
0.0000
90
8
10
518.7528
20
379.9130
10
521.0254
20
377.5904
10
523.2980
20
375.2492
10
526.6133
20
371.8489
10
534.6459
20
366.0043
10
536.7640
20
364.4619
10
539.0128
20
363.6809
10
542.7039
20
362.4349
0
LWPOLYLINE
  5
143d
330
1F
  100
AcDbEntity
8
paths
  100
AcDbPolyline
70
0
38
0.0000
90
3
10
550.7855
20
356.8782
10
550.4211
20
362.6082
10
550.5380
20
369.4060
0
LWPOLYLINE
  5
143e
330
1F
  100
AcDbEntity
8
paths
  100
AcDbPolyline
70
0
38
0.0000
90
3
10
713.1671
20
261.1880
10
710.3483
20
263.4179
10
705.1914
20
267.0510
0
LWPOLYLINE
  5
143f
330
1F
  100
AcDbEntity
8
minor_roads
  100
AcDbPolyline
70
0
38
0.0000
90
3
10
702.2036
20
295.1723
10
712.7216
20
288.7604
10
714.1236
20
287.7067
0
LWPOLYLINE
  5
1440
330
1F
  100
AcDbEntity
8
paths
  100
AcDbPolyline
70
0
38
0.0000
90
5
10
463.9284
20
464.4353
10
478.1105
20
451.6881
10
485.9633
20
444.7384
10
492.0815
20
440.5383
10
498.3222
20
436.9696
  0
MESH
  5
1441
330
1F
  100
AcDbEntity
8
buildings
  100
AcDbSubDMesh
71
2
72
0
91
0
92
44
10
484.2857
20
447.3951
30
4.0000
10
500.8398
20
435.9192
30
4.0000
10
504.8805
20
433.1129
30
4.0000
10
500.7150
20
429.8922
30
4.0000
10
498.6355
20
426.1969
30
4.0000
10
498.1702
20
424.1262
30
4.0000
10
498.1692
20
421.8231
30
4.0000
10
499.7900
20
419.7515
30
4.0000
10
502.5928
20
418.6731
30
4.0000
10
507.1893
20
419.5163
30
4.0000
10
514.1874
20
414.9908
30
4.0000
10
516.4522
20
413.5318
30
4.0000
10
552.1170
20
464.6312
30
4.0000
10
534.0637
20
476.6184
30
4.0000
10
529.6688
20
470.1752
30
4.0000
10
509.5302
20
484.2343
30
4.0000
10
503.7455
20
486.7626
30
4.0000
10
500.7388
20
487.3768
30
4.0000
10
497.0394
20
488.1491
30
4.0000
10
488.9356
20
479.1722
30
4.0000
10
481.9805
20
469.5077
30
4.0000
10
475.4964
20
455.6918
30
4.0000
10
484.2857
20
447.3951
30
0.0000
10
500.8398
20
435.9192
30
0.0000
10
504.8805
20
433.1129
30
0.0000
10
500.7150
20
429.8922
30
0.0000
10
498.6355
20
426.1969
30
0.0000
10
498.1702
20
424.1262
30
0.0000
10
498.1692
20
421.8231
30
0.0000
10
499.7900
20
419.7515
30
0.0000
10
502.5928
20
418.6731
30
0.0000
10
507.1893
20
419.5163
30
0.0000
10
514.1874
20
414.9908
30
0.0000
10
516.4522
20
413.5318
30
0.0000
10
552.1170
20
464.6312
30
0.0000
10
534.0637
20
476.6184
30
0.0000
10
529.6688
20
470.1752
30
0.0000
10
509.5302
20
484.2343
30
0.0000
10
503.7455
20
486.7626
30
0.0000
10
500.7388
20
487.3768
30
0.0000
10
497.0394
20
488.1491
30
0.0000
10
488.9356
20
479.1722
30
0.0000
10
481.9805
20
469.5077
30
0.0000
10
475.4964
20
455.6918
30
0.0000
93
270
90
3
90
5
90
6
90
7
90
3
90
27
90
29
90
28
90
3
90
3
90
4
90
9
90
3
90
25
90
31
90
26
90
3
90
5
90
8
90
4
90
3
90
27
90
26
90
30
90
3
90
7
90
8
90
5
90
3
90
29
90
27
90
30
90
3
90
21
90
0
90
20
90
3
90
43
90
42
90
22
90
3
90
19
90
20
90
15
90
3
90
41
90
37
90
42
90
3
90
19
90
17
90
18
90
3
90
41
90
40
90
39
90
3
90
16
90
17
90
19
90
3
90
38
90
41
90
39
90
3
90
0
90
15
90
20
90
3
90
22
90
42
90
37
90
3
90
3
90
9
90
2
90
3
90
25
90
24
90
31
90
3
90
10
90
11
90
2
90
3
90
32
90
24
90
33
90
3
90
10
90
2
90
9
90
3
90
32
90
31
90
24
90
3
90
2
90
11
90
12
90
3
90
24
90
34
90
33
90
3
90
15
90
16
90
19
90
3
90
37
90
41
90
38
90
3
90
15
90
1
90
14
90
3
90
37
90
36
90
23
90
3
90
15
90
0
90
1
90
3
90
37
90
23
90
22
90
3
90
14
90
12
90
13
90
3
90
36
90
35
90
34
90
3
90
14
90
1
90
2
90
3
90
36
90
24
90
23
90
3
90
2
90
12
90
14
90
3
90
24
90
36
90
34
90
3
90
4
90
8
90
9
90
3
90
26
90
31
90
30
90
4
90
1
90
0
90
22
90
23
90
4
90
2
90
1
90
23
90
24
90
4
90
3
90
2
90
24
90
25
90
4
90
4
90
3
90
25
90
26
90
4
90
5
90
4
90
26
90
27
90
4
90
6
90
5
90
27
90
28
90
4
90
7
90
6
90
28
90
29
90
4
90
8
90
7
90
29
90
30
90
4
90
9
90
8
90
30
90
31
90
4
90
10
90
9
90
31
90
32
90
4
90
11
90
10
90
32
90
33
90
4
90
12
90
11
90
33
90
34
90
4
90
13
90
12
90
34
90
35
90
4
90
14
90
13
90
35
90
36
90
4
90
15
90
14
90
36
90
37
90
4
90
16
90
15
90
37
90
38
90
4
90
17
90
16
90
38
90
39
90
4
90
18
90
17
90
39
90
40
90
4
90
19
90
18
90
40
90
41
90
4
90
20
90
19
90
41
90
42
90
4
90
21
90
20
90
42
90
43
90
4
90
0
90
21
90
43
90
22
94
0
95
0
0
LWPOLYLINE
  5
1442
330
1F
  100
AcDbEntity
8
paths
  100
AcDbPolyline
70
0
38
0.0000
90
2
10
517.3708
20
407.9966
10
526.5116
20
401.9936
0
LWPOLYLINE
  5
1443
330
1F
  100
AcDbEntity
8
paths
  100
AcDbPolyline
70
0
38
0.0000
90
2
10
526.5116
20
401.9936
10
536.4425
20
395.1824
0
LWPOLYLINE
  5
1444
330
1F
  100
AcDbEntity
8
paths
  100
AcDbPolyline
70
0
38
0.0000
90
3
10
480.4691
20
519.0807
10
481.8307
20
520.9467
10
483.5267
20
523.2956
0
LWPOLYLINE
  5
1445
330
1F
  100
AcDbEntity
8
paths
  100
AcDbPolyline
70
0
38
0.0000
90
8
10
91.4498
20
600.8971
10
92.2543
20
632.2858
10
96.1658
20
632.2840
10
97.0624
20
651.0521
10
98.2715
20
676.1256
10
94.1074
20
675.9603
10
91.7523
20
675.8778
10
86.5972
20
714.2771
0
LWPOLYLINE
  5
1446
330
1F
  100
AcDbEntity
8
paths
  100
AcDbPolyline
70
0
38
0.0000
90
5
10
312.3530
20
645.2649
10
330.6826
20
632.6365
10
337.4442
20
627.9902
10
404.8730
20
581.5560
10
411.6020
20
576.9191
0
LWPOLYLINE
  5
1447
330
1F
  100
AcDbEntity
8
minor_roads
  100
AcDbPolyline
70
0
38
0.0000
90
2
10
321.7818
20
551.2052
10
357.1537
20
602.4898
0
LWPOLYLINE
  5
1448
330
1F
  100
AcDbEntity
8
minor_roads
  100
AcDbPolyline
70
0
38
0.0000
90
2
10
305.5947
20
562.6069
10
341.2111
20
613.8728
0
LWPOLYLINE
  5
1449
330
1F
  100
AcDbEntity
8
paths
  100
AcDbPolyline
70
0
38
0.0000
90
2
10
311.5194
20
696.4536
10
330.6826
20
632.6365
0
LWPOLYLINE
  5
144a
330
1F
  100
AcDbEntity
8
minor_roads
  100
AcDbPolyline
70
0
38
0.0000
90
3
10
528.0378
20
646.2796
10
553.4689
20
682.3573
10
575.6817
20
714.0692
0
LWPOLYLINE
  5
144b
330
1F
  100
AcDbEntity
8
minor_roads
  100
AcDbPolyline
70
0
38
0.0000
90
3
10
588.5010
20
602.4867
10
615.2037
20
639.7249
10
641.4006
20
676.2482
0
LWPOLYLINE
  5
144c
330
1F
  100
AcDbEntity
8
paths
  100
AcDbPolyline
70
0
38
0.0000
90
10
10
553.4689
20
682.3573
10
568.5319
20
671.9593
10
584.1814
20
661.1525
10
587.9045
20
658.6715
10
596.1732
20
652.7897
10
600.1976
20
650.0856
10
603.0082
20
648.1528
10
612.3767
20
641.5369
10
615.2037
20
639.7249
10
623.6599
20
633.8802
0
LWPOLYLINE
  5
144d
330
1F
  100
AcDbEntity
8
paths
  100
AcDbPolyline
70
0
38
0.0000
90
10
10
87.5654
20
588.5382
10
94.7340
20
583.0466
10
98.7682
20
584.1592
10
103.2855
20
590.4443
10
121.0531
20
578.8744
10
182.4303
20
577.9092
10
182.6929
20
563.3662
10
184.0831
20
555.9640
10
191.1975
20
556.9175
10
197.5360
20
553.8872
0
LWPOLYLINE
  5
144e
330
1F
  100
AcDbEntity
8
minor_roads
  100
AcDbPolyline
70
0
38
0.0000
90
10
10
11.7605
20
634.2166
10
26.3470
20
634.1450
10
32.2142
20
634.1423
10
48.7075
20
634.1256
10
54.4284
20
634.9867
10
57.8430
20
635.4959
10
73.6955
20
641.9894
10
75.4560
20
642.7130
10
81.1450
20
645.0321
10
90.3308
20
649.7085
0
LWPOLYLINE
  5
144f
330
1F
  100
AcDbEntity
8
minor_roads
  100
AcDbPolyline
70
0
38
0.0000
90
4
10
52.7610
20
569.6276
10
65.9351
20
581.7130
10
72.9806
20
592.4359
10
73.6955
20
641.9894
0
LWPOLYLINE
  5
1450
330
1F
  100
AcDbEntity
8
minor_roads
  100
AcDbPolyline
70
0
38
0.0000
90
11
10
404.4601
20
568.7312
10
388.7537
20
579.9376
10
373.1370
20
591.0976
10
357.1537
20
602.4898
10
341.2111
20
613.8728
10
332.0382
20
620.4146
10
322.7677
20
627.0492
10
312.2503
20
633.7773
10
304.2729
20
634.4865
10
286.9678
20
641.8119
10
268.3350
20
650.3173
0
LWPOLYLINE
  5
1451
330
1F
  100
AcDbEntity
8
minor_roads
  100
AcDbPolyline
70
0
38
0.0000
90
2
10
54.4284
20
634.9867
10
54.9801
20
683.6673
0
LWPOLYLINE
  5
1452
330
1F
  100
AcDbEntity
8
minor_roads
  100
AcDbPolyline
70
0
38
0.0000
90
2
10
25.2678
20
572.6397
10
11.3333
20
572.9153
  0
MESH
  5
1453
330
1F
  100
AcDbEntity
8
buildings
  100
AcDbSubDMesh
71
2
72
0
91
0
92
8
10
1.6135
20
559.2126
30
4.0000
10
1.8292
20
603.2779
30
4.0000
10
0.2751
20
603.2852
30
4.0000
10
0.2550
20
559.2190
30
4.0000
10
1.6135
20
559.2126
30
0.0000
10
1.8292
20
603.2779
30
0.0000
10
0.2751
20
603.2852
30
0.0000
10
0.2550
20
559.2190
30
0.0000
93
36
90
3
90
2
90
3
90
1
90
3
90
6
90
5
90
7
90
3
90
0
90
1
90
3
90
3
90
4
90
7
90
5
90
4
90
1
90
0
90
4
90
5
90
4
90
2
90
1
90
5
90
6
90
4
90
3
90
2
90
6
90
7
90
4
90
0
90
3
90
7
90
4
94
0
95
0
0
LWPOLYLINE
  5
1454
330
1F
  100
AcDbEntity
8
minor_roads
  100
AcDbPolyline
70
0
38
0.0000
90
2
10
135.5151
20
646.9487
10
134.0313
20
590.3098
0
LWPOLYLINE
  5
1455
330
1F
  100
AcDbEntity
8
minor_roads
  100
AcDbPolyline
70
0
38
0.0000
90
2
10
154.9093
20
646.6523
10
153.1404
20
590.1342
0
LWPOLYLINE
  5
1456
330
1F
  100
AcDbEntity
8
minor_roads
  100
AcDbPolyline
70
0
38
0.0000
90
2
10
322.7677
20
627.0492
10
287.1674
20
575.5884
  0
MESH
  5
1457
330
1F
  100
AcDbEntity
8
buildings
  100
AcDbSubDMesh
71
2
72
0
91
0
92
38
10
267.5108
20
666.5044
30
4.0000
10
265.7089
20
664.0070
30
4.0000
10
270.3034
20
660.7175
30
4.0000
10
271.8689
20
662.8807
30
4.0000
10
281.1231
20
656.2367
30
4.0000
10
287.1650
20
664.5735
30
4.0000
10
294.8633
20
659.0539
30
4.0000
10
297.4408
20
645.7078
30
4.0000
10
317.1871
20
649.4604
30
4.0000
10
313.6014
20
668.0632
30
4.0000
10
299.3153
20
665.3391
30
4.0000
10
290.6965
20
671.5092
30
4.0000
10
302.2503
20
687.4680
30
4.0000
10
286.7315
20
698.6002
30
4.0000
10
281.0729
20
690.7925
30
4.0000
10
277.3256
20
693.4780
30
4.0000
10
273.1916
20
687.7592
30
4.0000
10
277.4359
20
684.7206
30
4.0000
10
265.3521
20
668.0469
30
4.0000
10
267.5108
20
666.5044
30
0.0000
10
265.7089
20
664.0070
30
0.0000
10
270.3034
20
660.7175
30
0.0000
10
271.8689
20
662.8807
30
0.0000
10
281.1231
20
656.2367
30
0.0000
10
287.1650
20
664.5735
30
0.0000
10
294.8633
20
659.0539
30
0.0000
10
297.4408
20
645.7078
30
0.0000
10
317.1871
20
649.4604
30
0.0000
10
313.6014
20
668.0632
30
0.0000
10
299.3153
20
665.3391
30
0.0000
10
290.6965
20
671.5092
30
0.0000
10
302.2503
20
687.4680
30
0.0000
10
286.7315
20
698.6002
30
0.0000
10
281.0729
20
690.7925
30
0.0000
10
277.3256
20
693.4780
30
0.0000
10
273.1916
20
687.7592
30
0.0000
10
277.4359
20
684.7206
30
0.0000
10
265.3521
20
668.0469
30
0.0000
93
231
90
3
90
0
90
1
90
3
90
3
90
19
90
22
90
20
90
3
90
2
90
3
90
1
90
3
90
21
90
20
90
22
90
3
90
0
90
3
90
17
90
3
90
19
90
36
90
22
90
3
90
16
90
14
90
15
90
3
90
35
90
34
90
33
90
3
90
14
90
16
90
17
90
3
90
33
90
36
90
35
90
3
90
11
90
14
90
17
90
3
90
30
90
36
90
33
90
3
90
18
90
0
90
17
90
3
90
37
90
36
90
19
90
3
90
17
90
3
90
5
90
3
90
36
90
24
90
22
90
3
90
11
90
17
90
5
90
3
90
30
90
24
90
36
90
3
90
6
90
7
90
8
90
3
90
25
90
27
90
26
90
3
90
5
90
6
90
10
90
3
90
24
90
29
90
25
90
3
90
10
90
6
90
8
90
3
90
29
90
27
90
25
90
3
90
14
90
12
90
13
90
3
90
33
90
32
90
31
90
3
90
14
90
11
90
12
90
3
90
33
90
31
90
30
90
3
90
9
90
10
90
8
90
3
90
28
90
27
90
29
90
3
90
11
90
5
90
10
90
3
90
30
90
29
90
24
90
3
90
5
90
3
90
4
90
3
90
24
90
23
90
22
90
4
90
1
90
0
90
19
90
20
90
4
90
2
90
1
90
20
90
21
90
4
90
3
90
2
90
21
90
22
90
4
90
4
90
3
90
22
90
23
90
4
90
5
90
4
90
23
90
24
90
4
90
6
90
5
90
24
90
25
90
4
90
7
90
6
90
25
90
26
90
4
90
8
90
7
90
26
90
27
90
4
90
9
90
8
90
27
90
28
90
4
90
10
90
9
90
28
90
29
90
4
90
11
90
10
90
29
90
30
90
4
90
12
90
11
90
30
90
31
90
4
90
13
90
12
90
31
90
32
90
4
90
14
90
13
90
32
90
33
90
4
90
15
90
14
90
33
90
34
90
4
90
16
90
15
90
34
90
35
90
4
90
17
90
16
90
35
90
36
90
4
90
18
90
17
90
36
90
37
90
4
90
0
90
18
90
37
90
19
94
0
95
0
0
LWPOLYLINE
  5
1458
330
1F
  100
AcDbEntity
8
minor_roads
  100
AcDbPolyline
70
0
38
0.0000
90
3
10
304.2729
20
634.4865
10
271.7218
20
586.4512
10
255.1123
20
563.1766
0
LWPOLYLINE
  5
1459
330
1F
  100
AcDbEntity
8
minor_roads
  100
AcDbPolyline
70
0
38
0.0000
90
3
10
221.9803
20
585.3398
10
239.0383
20
609.3106
10
268.3350
20
650.3173
0
LWPOLYLINE
  5
145a
330
1F
  100
AcDbEntity
8
minor_roads
  100
AcDbPolyline
70
0
38
0.0000
90
3
10
238.5585
20
574.2629
10
255.2986
20
598.0110
10
286.9678
20
641.8119
0
LWPOLYLINE
  5
145b
330
1F
  100
AcDbEntity
8
minor_roads
  100
AcDbPolyline
70
0
38
0.0000
90
2
10
212.8229
20
645.7817
10
212.1868
20
588.7338
  0
MESH
  5
145c
330
1F
  100
AcDbEntity
8
buildings
  100
AcDbSubDMesh
71
2
72
0
91
0
92
176
10
191.6881
20
486.4591
30
4.0000
10
190.0817
20
484.2310
30
4.0000
10
194.2364
20
481.2667
30
4.0000
10
196.1200
20
483.8940
30
4.0000
10
198.4010
20
482.2957
30
4.0000
10
200.4558
20
485.1829
30
4.0000
10
202.3947
20
483.8169
30
4.0000
10
205.9009
20
488.7559
30
4.0000
10
203.7095
20
490.2985
30
4.0000
10
208.1698
20
496.5836
30
4.0000
10
210.2064
20
495.1526
30
4.0000
10
213.3783
20
499.6088
30
4.0000
10
211.4883
20
500.9469
30
4.0000
10
215.5653
20
506.6843
30
4.0000
10
217.9115
20
505.0302
30
4.0000
10
222.0211
20
510.8326
30
4.0000
10
219.8867
20
512.3287
30
4.0000
10
225.5456
20
520.3964
30
4.0000
10
227.8592
20
518.8166
30
4.0000
10
231.6754
20
524.3406
30
4.0000
10
229.3943
20
525.9110
30
4.0000
10
231.3513
20
528.7426
30
4.0000
10
228.3860
20
530.7684
30
4.0000
10
233.0583
20
537.5364
30
4.0000
10
236.1051
20
535.4641
30
4.0000
10
234.3275
20
532.8832
30
4.0000
10
239.7694
20
529.1754
30
4.0000
10
241.2616
20
531.3293
30
4.0000
10
246.4591
20
527.7888
30
4.0000
10
244.6570
20
525.1707
30
4.0000
10
250.7425
20
521.0262
30
4.0000
10
252.4059
20
523.4307
30
4.0000
10
255.2165
20
521.5072
30
4.0000
10
258.3966
20
526.1213
30
4.0000
10
260.8731
20
524.4207
30
4.0000
10
263.8738
20
528.7656
30
4.0000
10
261.5683
20
530.3361
30
4.0000
10
263.3459
20
532.9077
30
4.0000
10
261.0079
20
534.5060
30
4.0000
10
262.7202
20
536.9848
30
4.0000
10
256.2274
20
541.4267
30
4.0000
10
254.7434
20
539.2914
30
4.0000
10
250.1325
20
542.4509
30
4.0000
10
251.6002
20
544.5862
30
4.0000
10
245.4333
20
548.8050
30
4.0000
10
243.8677
20
546.5398
30
4.0000
10
232.8211
20
554.1597
30
4.0000
10
234.4845
20
556.5270
30
4.0000
10
228.3339
20
560.8016
30
4.0000
10
226.8743
20
558.7127
30
4.0000
10
221.6443
20
562.3368
30
4.0000
10
223.1691
20
564.5185
30
4.0000
10
217.4259
20
568.5143
30
4.0000
10
215.8440
20
566.2583
30
4.0000
10
213.2290
20
568.0704
30
4.0000
10
209.9510
20
563.3913
30
4.0000
10
207.7515
20
564.9153
30
4.0000
10
204.6611
20
560.5241
30
4.0000
10
207.0317
20
558.8700
30
4.0000
10
205.3846
20
556.5398
30
4.0000
10
208.1463
20
554.6255
30
4.0000
10
206.5562
20
552.3509
30
4.0000
10
212.0633
20
548.5317
30
4.0000
10
213.8898
20
551.1312
30
4.0000
10
219.5923
20
547.1633
30
4.0000
10
217.8065
20
544.6009
30
4.0000
10
223.3054
20
540.7910
30
4.0000
10
224.7731
20
542.8798
30
4.0000
10
227.1845
20
541.1979
30
4.0000
10
222.7650
20
534.9777
30
4.0000
10
220.1175
20
536.8548
30
4.0000
10
218.3970
20
534.4782
30
4.0000
10
216.2137
20
536.0207
30
4.0000
10
211.8351
20
529.9398
30
4.0000
10
214.1242
20
528.3044
30
4.0000
10
208.5959
20
520.6360
30
4.0000
10
206.6326
20
522.0298
30
4.0000
10
202.5312
20
516.3296
30
4.0000
10
204.6655
20
514.7964
30
4.0000
10
200.8169
20
509.4303
30
4.0000
10
198.7558
20
510.9078
30
4.0000
10
194.7441
20
505.3469
30
4.0000
10
196.6666
20
503.9716
30
4.0000
10
193.1115
20
499.0326
30
4.0000
10
191.1401
20
500.4451
30
4.0000
10
186.7859
20
494.4199
30
4.0000
10
188.7655
20
493.0075
30
4.0000
10
186.6373
20
490.0645
30
4.0000
10
191.6881
20
486.4591
30
0.0000
10
190.0817
20
484.2310
30
0.0000
10
194.2364
20
481.2667
30
0.0000
10
196.1200
20
483.8940
30
0.0000
10
198.4010
20
482.2957
30
0.0000
10
200.4558
20
485.1829
30
0.0000
10
202.3947
20
483.8169
30
0.0000
10
205.9009
20
488.7559
30
0.0000
10
203.7095
20
490.2985
30
0.0000
10
208.1698
20
496.5836
30
0.0000
10
210.2064
20
495.1526
30
0.0000
10
213.3783
20
499.6088
30
0.0000
10
211.4883
20
500.9469
30
0.0000
10
215.5653
20
506.6843
30
0.0000
10
217.9115
20
505.0302
30
0.0000
10
222.0211
20
510.8326
30
0.0000
10
219.8867
20
512.3287
30
0.0000
10
225.5456
20
520.3964
30
0.0000
10
227.8592
20
518.8166
30
0.0000
10
231.6754
20
524.3406
30
0.0000
10
229.3943
20
525.9110
30
0.0000
10
231.3513
20
528.7426
30
0.0000
10
228.3860
20
530.7684
30
0.0000
10
233.0583
20
537.5364
30
0.0000
10
236.1051
20
535.4641
30
0.0000
10
234.3275
20
532.8832
30
0.0000
10
239.7694
20
529.1754
30
0.0000
10
241.2616
20
531.3293
30
0.0000
10
246.4591
20
527.7888
30
0.0000
10
244.6570
20
525.1707
30
0.0000
10
250.7425
20
521.0262
30
0.0000
10
252.4059
20
523.4307
30
0.0000
10
255.2165
20
521.5072
30
0.0000
10
258.3966
20
526.1213
30
0.0000
10
260.8731
20
524.4207
30
0.0000
10
263.8738
20
528.7656
30
0.0000
10
261.5683
20
530.3361
30
0.0000
10
263.3459
20
532.9077
30
0.0000
10
261.0079
20
534.5060
30
0.0000
10
262.7202
20
536.9848
30
0.0000
10
256.2274
20
541.4267
30
0.0000
10
254.7434
20
539.2914
30
0.0000
10
250.1325
20
542.4509
30
0.0000
10
251.6002
20
544.5862
30
0.0000
10
245.4333
20
548.8050
30
0.0000
10
243.8677
20
546.5398
30
0.0000
10
232.8211
20
554.1597
30
0.0000
10
234.4845
20
556.5270
30
0.0000
10
228.3339
20
560.8016
30
0.0000
10
226.8743
20
558.7127
30
0.0000
10
221.6443
20
562.3368
30
0.0000
10
223.1691
20
564.5185
30
0.0000
10
217.4259
20
568.5143
30
0.0000
10
215.8440
20
566.2583
30
0.0000
10
213.2290
20
568.0704
30
0.0000
10
209.9510
20
563.3913
30
0.0000
10
207.7515
20
564.9153
30
0.0000
10
204.6611
20
560.5241
30
0.0000
10
207.0317
20
558.8700
30
0.0000
10
205.3846
20
556.5398
30
0.0000
10
208.1463
20
554.6255
30
0.0000
10
206.5562
20
552.3509
30
0.0000
10
212.0633
20
548.5317
30
0.0000
10
213.8898
20
551.1312
30
0.0000
10
219.5923
20
547.1633
30
0.0000
10
217.8065
20
544.6009
30
0.0000
10
223.3054
20
540.7910
30
0.0000
10
224.7731
20
542.8798
30
0.0000
10
227.1845
20
541.1979
30
0.0000
10
222.7650
20
534.9777
30
0.0000
10
220.1175
20
536.8548
30
0.0000
10
218.3970
20
534.4782
30
0.0000
10
216.2137
20
536.0207
30
0.0000
10
211.8351
20
529.9398
30
0.0000
10
214.1242
20
528.3044
30
0.0000
10
208.5959
20
520.6360
30
0.0000
10
206.6326
20
522.0298
30
0.0000
10
202.5312
20
516.3296
30
0.0000
10
204.6655
20
514.7964
30
0.0000
10
200.8169
20
509.4303
30
0.0000
10
198.7558
20
510.9078
30
0.0000
10
194.7441
20
505.3469
30
0.0000
10
196.6666
20
503.9716
30
0.0000
10
193.1115
20
499.0326
30
0.0000
10
191.1401
20
500.4451
30
0.0000
10
186.7859
20
494.4199
30
0.0000
10
188.7655
20
493.0075
30
0.0000
10
186.6373
20
490.0645
30
0.0000
93
1128
90
3
90
0
90
2
90
3
90
3
90
88
90
91
90
90
90
3
90
2
90
0
90
1
90
3
90
90
90
89
90
88
90
3
90
87
90
0
90
86
90
3
90
175
90
174
90
88
90
3
90
8
90
83
90
0
90
3
90
96
90
88
90
171
90
3
90
85
90
86
90
84
90
3
90
173
90
172
90
174
90
3
90
84
90
86
90
83
90
3
90
172
90
171
90
174
90
3
90
9
90
82
90
83
90
3
90
97
90
171
90
170
90
3
90
80
90
81
90
82
90
3
90
168
90
170
90
169
90
3
90
86
90
0
90
83
90
3
90
174
90
171
90
88
90
3
90
5
90
0
90
3
90
3
90
93
90
91
90
88
90
3
90
5
90
8
90
0
90
3
90
93
90
88
90
96
90
3
90
7
90
8
90
5
90
3
90
95
90
93
90
96
90
3
90
7
90
5
90
6
90
3
90
95
90
94
90
93
90
3
90
5
90
3
90
4
90
3
90
93
90
92
90
91
90
3
90
9
90
10
90
12
90
3
90
97
90
100
90
98
90
3
90
12
90
10
90
11
90
3
90
100
90
99
90
98
90
3
90
79
90
9
90
12
90
3
90
167
90
100
90
97
90
3
90
13
90
16
90
78
90
3
90
101
90
166
90
104
90
3
90
9
90
79
90
82
90
3
90
97
90
170
90
167
90
3
90
8
90
9
90
83
90
3
90
96
90
171
90
97
90
3
90
13
90
79
90
12
90
3
90
101
90
100
90
167
90
3
90
79
90
80
90
82
90
3
90
167
90
170
90
168
90
3
90
76
90
77
90
75
90
3
90
164
90
163
90
165
90
3
90
75
90
77
90
78
90
3
90
163
90
166
90
165
90
3
90
79
90
13
90
78
90
3
90
167
90
166
90
101
90
3
90
55
90
57
90
58
90
3
90
143
90
146
90
145
90
3
90
60
90
58
90
59
90
3
90
148
90
147
90
146
90
3
90
55
90
58
90
60
90
3
90
143
90
148
90
146
90
3
90
57
90
55
90
56
90
3
90
145
90
144
90
143
90
3
90
60
90
61
90
62
90
3
90
148
90
150
90
149
90
3
90
74
90
71
90
73
90
3
90
162
90
161
90
159
90
3
90
71
90
72
90
73
90
3
90
159
90
161
90
160
90
3
90
75
90
78
90
16
90
3
90
163
90
104
90
166
90
3
90
54
90
55
90
53
90
3
90
142
90
141
90
143
90
3
90
60
90
62
90
63
90
3
90
148
90
151
90
150
90
3
90
55
90
60
90
63
90
3
90
143
90
151
90
148
90
3
90
55
90
63
90
50
90
3
90
143
90
138
90
151
90
3
90
52
90
53
90
50
90
3
90
140
90
138
90
141
90
3
90
55
90
50
90
53
90
3
90
143
90
141
90
138
90
3
90
75
90
17
90
74
90
3
90
163
90
162
90
105
90
3
90
14
90
16
90
13
90
3
90
102
90
101
90
104
90
3
90
15
90
16
90
14
90
3
90
103
90
102
90
104
90
3
90
20
90
17
90
18
90
3
90
108
90
106
90
105
90
3
90
20
90
18
90
19
90
3
90
108
90
107
90
106
90
3
90
22
90
74
90
17
90
3
90
110
90
105
90
162
90
3
90
69
90
74
90
22
90
3
90
157
90
110
90
162
90
3
90
22
90
17
90
20
90
3
90
110
90
108
90
105
90
3
90
22
90
20
90
21
90
3
90
110
90
109
90
108
90
3
90
71
90
74
90
69
90
3
90
159
90
157
90
162
90
3
90
25
90
26
90
27
90
3
90
113
90
115
90
114
90
3
90
17
90
75
90
16
90
3
90
105
90
104
90
163
90
3
90
29
90
30
90
31
90
3
90
117
90
119
90
118
90
3
90
33
90
31
90
32
90
3
90
121
90
120
90
119
90
3
90
29
90
31
90
28
90
3
90
117
90
116
90
119
90
3
90
28
90
42
90
27
90
3
90
116
90
115
90
130
90
3
90
33
90
28
90
31
90
3
90
121
90
119
90
116
90
3
90
33
90
41
90
28
90
3
90
121
90
116
90
129
90
3
90
36
90
33
90
34
90
3
90
124
90
122
90
121
90
3
90
38
90
33
90
36
90
3
90
126
90
124
90
121
90
3
90
34
90
35
90
36
90
3
90
122
90
124
90
123
90
3
90
25
90
27
90
24
90
3
90
113
90
112
90
115
90
3
90
38
90
36
90
37
90
3
90
126
90
125
90
124
90
3
90
69
90
70
90
71
90
3
90
157
90
159
90
158
90
3
90
67
90
68
90
46
90
3
90
155
90
134
90
156
90
3
90
67
90
65
90
66
90
3
90
155
90
154
90
153
90
3
90
22
90
68
90
69
90
3
90
110
90
157
90
156
90
3
90
65
90
67
90
64
90
3
90
153
90
152
90
155
90
3
90
50
90
63
90
49
90
3
90
138
90
137
90
151
90
3
90
50
90
51
90
52
90
3
90
138
90
140
90
139
90
3
90
49
90
63
90
64
90
3
90
137
90
152
90
151
90
3
90
48
90
49
90
47
90
3
90
136
90
135
90
137
90
3
90
46
90
49
90
64
90
3
90
134
90
152
90
137
90
3
90
47
90
49
90
46
90
3
90
135
90
134
90
137
90
3
90
64
90
67
90
46
90
3
90
152
90
134
90
155
90
3
90
68
90
23
90
46
90
3
90
156
90
134
90
111
90
3
90
45
90
23
90
24
90
3
90
133
90
112
90
111
90
3
90
68
90
22
90
23
90
3
90
156
90
111
90
110
90
3
90
41
90
38
90
39
90
3
90
129
90
127
90
126
90
3
90
42
90
28
90
41
90
3
90
130
90
129
90
116
90
3
90
41
90
39
90
40
90
3
90
129
90
128
90
127
90
3
90
27
90
42
90
45
90
3
90
115
90
133
90
130
90
3
90
44
90
45
90
42
90
3
90
132
90
130
90
133
90
3
90
42
90
43
90
44
90
3
90
130
90
132
90
131
90
3
90
24
90
27
90
45
90
3
90
112
90
133
90
115
90
3
90
45
90
46
90
23
90
3
90
133
90
111
90
134
90
3
90
38
90
41
90
33
90
3
90
126
90
121
90
129
90
4
90
1
90
0
90
88
90
89
90
4
90
2
90
1
90
89
90
90
90
4
90
3
90
2
90
90
90
91
90
4
90
4
90
3
90
91
90
92
90
4
90
5
90
4
90
92
90
93
90
4
90
6
90
5
90
93
90
94
90
4
90
7
90
6
90
94
90
95
90
4
90
8
90
7
90
95
90
96
90
4
90
9
90
8
90
96
90
97
90
4
90
10
90
9
90
97
90
98
90
4
90
11
90
10
90
98
90
99
90
4
90
12
90
11
90
99
90
100
90
4
90
13
90
12
90
100
90
101
90
4
90
14
90
13
90
101
90
102
90
4
90
15
90
14
90
102
90
103
90
4
90
16
90
15
90
103
90
104
90
4
90
17
90
16
90
104
90
105
90
4
90
18
90
17
90
105
90
106
90
4
90
19
90
18
90
106
90
107
90
4
90
20
90
19
90
107
90
108
90
4
90
21
90
20
90
108
90
109
90
4
90
22
90
21
90
109
90
110
90
4
90
23
90
22
90
110
90
111
90
4
90
24
90
23
90
111
90
112
90
4
90
25
90
24
90
112
90
113
90
4
90
26
90
25
90
113
90
114
90
4
90
27
90
26
90
114
90
115
90
4
90
28
90
27
90
115
90
116
90
4
90
29
90
28
90
116
90
117
90
4
90
30
90
29
90
117
90
118
90
4
90
31
90
30
90
118
90
119
90
4
90
32
90
31
90
119
90
120
90
4
90
33
90
32
90
120
90
121
90
4
90
34
90
33
90
121
90
122
90
4
90
35
90
34
90
122
90
123
90
4
90
36
90
35
90
123
90
124
90
4
90
37
90
36
90
124
90
125
90
4
90
38
90
37
90
125
90
126
90
4
90
39
90
38
90
126
90
127
90
4
90
40
90
39
90
127
90
128
90
4
90
41
90
40
90
128
90
129
90
4
90
42
90
41
90
129
90
130
90
4
90
43
90
42
90
130
90
131
90
4
90
44
90
43
90
131
90
132
90
4
90
45
90
44
90
132
90
133
90
4
90
46
90
45
90
133
90
134
90
4
90
47
90
46
90
134
90
135
90
4
90
48
90
47
90
135
90
136
90
4
90
49
90
48
90
136
90
137
90
4
90
50
90
49
90
137
90
138
90
4
90
51
90
50
90
138
90
139
90
4
90
52
90
51
90
139
90
140
90
4
90
53
90
52
90
140
90
141
90
4
90
54
90
53
90
141
90
142
90
4
90
55
90
54
90
142
90
143
90
4
90
56
90
55
90
143
90
144
90
4
90
57
90
56
90
144
90
145
90
4
90
58
90
57
90
145
90
146
90
4
90
59
90
58
90
146
90
147
90
4
90
60
90
59
90
147
90
148
90
4
90
61
90
60
90
148
90
149
90
4
90
62
90
61
90
149
90
150
90
4
90
63
90
62
90
150
90
151
90
4
90
64
90
63
90
151
90
152
90
4
90
65
90
64
90
152
90
153
90
4
90
66
90
65
90
153
90
154
90
4
90
67
90
66
90
154
90
155
90
4
90
68
90
67
90
155
90
156
90
4
90
69
90
68
90
156
90
157
90
4
90
70
90
69
90
157
90
158
90
4
90
71
90
70
90
158
90
159
90
4
90
72
90
71
90
159
90
160
90
4
90
73
90
72
90
160
90
161
90
4
90
74
90
73
90
161
90
162
90
4
90
75
90
74
90
162
90
163
90
4
90
76
90
75
90
163
90
164
90
4
90
77
90
76
90
164
90
165
90
4
90
78
90
77
90
165
90
166
90
4
90
79
90
78
90
166
90
167
90
4
90
80
90
79
90
167
90
168
90
4
90
81
90
80
90
168
90
169
90
4
90
82
90
81
90
169
90
170
90
4
90
83
90
82
90
170
90
171
90
4
90
84
90
83
90
171
90
172
90
4
90
85
90
84
90
172
90
173
90
4
90
86
90
85
90
173
90
174
90
4
90
87
90
86
90
174
90
175
90
4
90
0
90
87
90
175
90
88
94
0
95
0
0
LWPOLYLINE
  5
145d
330
1F
  100
AcDbEntity
8
major_roads
  100
AcDbPolyline
70
0
38
0.0000
90
7
10
168.5566
20
714.2423
10
153.7388
20
708.5672
10
128.0105
20
703.1552
10
107.7281
20
703.1642
10
97.8606
20
704.8588
10
79.9029
20
710.0489
10
70.3888
20
714.2840
0
LWPOLYLINE
  5
145e
330
1F
  100
AcDbEntity
8
minor_roads
  100
AcDbPolyline
70
0
38
0.0000
90
34
10
36.6176
20
460.9898
10
53.1103
20
422.8605
10
72.1503
20
377.1056
10
92.7859
20
327.5147
10
96.3921
20
318.8486
10
103.8080
20
301.0241
10
109.1155
20
288.2990
10
125.4045
20
249.1669
10
128.9142
20
243.4726
10
135.3006
20
237.5541
10
175.5369
20
209.4347
10
181.5736
20
205.2159
10
231.9447
20
170.0344
10
240.4580
20
164.1244
10
285.7134
20
132.6972
10
328.5901
20
102.9149
10
344.8919
20
91.5968
10
360.1427
20
80.7527
10
377.8213
20
68.1710
10
382.3513
20
65.6710
10
387.8752
20
62.6226
10
398.7529
20
58.7269
10
401.9635
20
58.2520
10
413.8200
20
56.4918
10
426.3784
20
57.3223
10
438.7336
20
59.4438
10
466.8588
20
64.2519
10
475.2292
20
66.7372
10
483.8851
20
70.0676
10
567.9365
20
109.4365
10
581.0348
20
115.5790
10
632.7274
20
140.5487
10
668.3544
20
157.3341
10
714.0808
20
178.8727
0
LWPOLYLINE
  5
145f
330
1F
  100
AcDbEntity
8
minor_roads
  100
AcDbPolyline
70
0
38
0.0000
90
23
10
714.1002
20
228.2883
10
713.5617
20
228.7216
10
706.3029
20
233.8692
10
695.0194
20
241.8603
10
676.4527
20
255.0176
10
599.6119
20
309.4777
10
592.9156
20
314.9502
10
589.4861
20
318.2298
10
573.5271
20
330.8290
10
546.1541
20
350.2865
10
534.3658
20
358.6680
10
531.9788
20
360.3684
10
517.5265
20
370.3668
10
474.0474
20
400.4272
10
438.3078
20
425.1447
10
436.2882
20
428.4052
10
435.2800
20
433.7083
10
437.0508
20
439.7532
10
443.4517
20
448.9722
10
451.1897
20
460.1130
10
487.8984
20
512.9948
10
489.7982
20
515.7243
10
496.8676
20
525.9089
0
LWPOLYLINE
  5
1460
330
1F
  100
AcDbEntity
8
paths
  100
AcDbPolyline
70
0
38
0.0000
90
6
10
375.3422
20
506.6434
10
378.5548
20
511.2389
10
422.5856
20
574.1842
10
422.8886
20
577.7409
10
423.9615
20
590.5839
10
428.3158
20
597.1850
0
LWPOLYLINE
  5
1461
330
1F
  100
AcDbEntity
8
paths
  100
AcDbPolyline
70
0
38
0.0000
90
11
10
491.2726
20
533.9721
10
491.2739
20
537.1946
10
488.7249
20
541.1146
10
485.0258
20
542.2677
10
482.2466
20
541.3494
10
476.2261
20
545.0388
10
470.7518
20
549.4244
10
474.4618
20
554.8741
10
423.9615
20
590.5839
10
415.6602
20
596.3730
10
404.8730
20
581.5560
0
LWPOLYLINE
  5
1462
330
1F
  100
AcDbEntity
8
paths
  100
AcDbPolyline
70
0
38
0.0000
90
16
10
46.2169
20
694.8153
10
40.0464
20
690.7319
10
35.2523
20
684.9392
10
33.5376
20
677.4363
10
32.2142
20
634.1423
10
31.2713
20
603.5338
10
30.7502
20
586.4094
10
30.4162
20
568.6626
10
29.3837
20
502.2632
10
30.1537
20
493.0133
10
36.3391
20
475.7930
10
40.4090
20
465.7058
10
42.5254
20
460.4578
10
46.9128
20
449.5811
10
62.1433
20
413.4490
10
73.9061
20
385.5372
0
LWPOLYLINE
  5
1463
330
1F
  100
AcDbEntity
8
paths
  100
AcDbPolyline
70
0
38
0.0000
90
3
10
87.5654
20
588.5382
10
56.1898
20
547.4123
10
55.9807
20
499.5023
0
LWPOLYLINE
  5
1464
330
1F
  100
AcDbEntity
8
paths
  100
AcDbPolyline
70
0
38
0.0000
90
11
10
463.9040
20
386.2321
10
474.9327
20
354.1605
10
481.4116
20
335.3337
10
489.0863
20
331.1608
10
494.6502
20
326.3852
10
497.1746
20
322.1122
10
498.6886
20
317.8304
10
499.1506
20
311.8310
10
499.4424
20
308.0141
10
497.4187
20
301.4678
10
492.3629
20
293.1769
0
LWPOLYLINE
  5
1465
330
1F
  100
AcDbEntity
8
minor_roads
  100
AcDbPolyline
70
0
38
0.0000
90
4
10
592.9156
20
314.9502
10
599.2346
20
323.7050
10
605.2276
20
331.9678
10
612.3071
20
327.0244
0
LWPOLYLINE
  5
1466
330
1F
  100
AcDbEntity
8
minor_roads
  100
AcDbPolyline
70
0
38
0.0000
90
19
10
612.3071
20
327.0244
10
682.1500
20
278.2413
10
684.5536
20
277.1446
10
687.1288
20
277.3200
10
690.2586
20
278.7860
10
692.4761
20
280.9861
10
702.2036
20
295.1723
10
692.7288
20
301.9554
10
691.0173
20
301.4638
10
689.5582
20
300.3872
10
688.0993
20
299.7748
10
685.5566
20
299.4229
10
682.7537
20
300.5106
10
628.2919
20
337.9113
10
625.7416
20
338.8781
10
622.5798
20
338.8794
10
620.3871
20
337.4315
10
618.5609
20
335.5006
10
612.3071
20
327.0244
0
LWPOLYLINE
  5
1467
330
1F
  100
AcDbEntity
8
paths
  100
AcDbPolyline
70
0
38
0.0000
90
3
10
362.8318
20
714.1597
10
378.4999
20
708.9528
10
388.9063
20
714.1486
0
LWPOLYLINE
  5
1468
330
1F
  100
AcDbEntity
8
paths
  100
AcDbPolyline
70
0
38
0.0000
90
2
10
421.6708
20
714.1347
10
430.2396
20
696.0782
  0
MESH
  5
1469
330
1F
  100
AcDbEntity
8
buildings
  100
AcDbSubDMesh
71
2
72
0
91
0
92
6
10
706.2271
20
310.4659
30
4.0000
10
714.1304
20
304.9364
30
4.0000
10
714.1370
20
321.6532
30
4.0000
10
706.2271
20
310.4659
30
0.0000
10
714.1304
20
304.9364
30
0.0000
10
714.1370
20
321.6532
30
0.0000
93
23
90
3
90
0
90
1
90
2
90
3
90
3
90
5
90
4
90
4
90
1
90
0
90
3
90
4
90
4
90
2
90
1
90
4
90
5
90
4
90
0
90
2
90
5
90
3
94
0
95
0
  0
MESH
  5
146a
330
1F
  100
AcDbEntity
8
buildings
  100
AcDbSubDMesh
71
2
72
0
91
0
92
20
10
235.5004
20
400.5751
30
4.0000
10
237.2046
20
403.0818
30
4.0000
10
251.7790
20
393.2872
30
4.0000
10
250.7434
20
391.7740
30
4.0000
10
261.7821
20
384.3398
30
4.0000
10
269.3738
20
395.5177
30
4.0000
10
244.2331
20
412.4304
30
4.0000
10
241.9499
20
409.0789
30
4.0000
10
230.5202
20
416.7640
30
4.0000
10
224.5431
20
407.9442
30
4.0000
10
235.5004
20
400.5751
30
0.0000
10
237.2046
20
403.0818
30
0.0000
10
251.7790
20
393.2872
30
0.0000
10
250.7434
20
391.7740
30
0.0000
10
261.7821
20
384.3398
30
0.0000
10
269.3738
20
395.5177
30
0.0000
10
244.2331
20
412.4304
30
0.0000
10
241.9499
20
409.0789
30
0.0000
10
230.5202
20
416.7640
30
0.0000
10
224.5431
20
407.9442
30
0.0000
93
114
90
3
90
0
90
1
90
9
90
3
90
10
90
19
90
11
90
3
90
7
90
1
90
2
90
3
90
17
90
12
90
11
90
3
90
1
90
8
90
9
90
3
90
11
90
19
90
18
90
3
90
8
90
1
90
7
90
3
90
18
90
17
90
11
90
3
90
3
90
4
90
2
90
3
90
13
90
12
90
14
90
3
90
6
90
2
90
5
90
3
90
16
90
15
90
12
90
3
90
6
90
7
90
2
90
3
90
16
90
12
90
17
90
3
90
5
90
2
90
4
90
3
90
15
90
14
90
12
90
4
90
1
90
0
90
10
90
11
90
4
90
2
90
1
90
11
90
12
90
4
90
3
90
2
90
12
90
13
90
4
90
4
90
3
90
13
90
14
90
4
90
5
90
4
90
14
90
15
90
4
90
6
90
5
90
15
90
16
90
4
90
7
90
6
90
16
90
17
90
4
90
8
90
7
90
17
90
18
90
4
90
9
90
8
90
18
90
19
90
4
90
0
90
9
90
19
90
10
94
0
95
0
  0
MESH
  5
146b
330
1F
  100
AcDbEntity
8
buildings
  100
AcDbSubDMesh
71
2
72
0
91
0
92
62
10
304.9128
20
246.0516
30
4.0000
10
312.1253
20
247.2929
30
4.0000
10
309.6381
20
243.3286
30
4.0000
10
310.2396
20
239.8551
30
4.0000
10
310.8818
20
236.1587
30
4.0000
10
314.6130
20
233.4268
30
4.0000
10
306.9034
20
232.1950
30
4.0000
10
292.6742
20
211.6125
30
4.0000
10
294.7679
20
210.1815
30
4.0000
10
287.5188
20
199.6999
30
4.0000
10
293.1971
20
195.8156
30
4.0000
10
302.8953
20
197.2973
30
4.0000
10
304.8932
20
200.5189
30
4.0000
10
311.6087
20
201.7512
30
4.0000
10
314.3461
20
200.2641
30
4.0000
10
319.8146
20
201.0047
30
4.0000
10
342.3922
20
230.3225
30
4.0000
10
339.1091
20
232.8220
30
4.0000
10
348.9105
20
247.1936
30
4.0000
10
346.0021
20
249.1358
30
4.0000
10
334.5151
20
256.8393
30
4.0000
10
336.9450
20
260.3208
30
4.0000
10
314.3621
20
275.4399
30
4.0000
10
304.9931
20
281.3039
30
4.0000
10
299.9565
20
280.2566
30
4.0000
10
297.2653
20
275.8002
30
4.0000
10
295.0150
20
272.9687
30
4.0000
10
288.9129
20
276.7789
30
4.0000
10
280.9131
20
282.8651
30
4.0000
10
269.1033
20
278.9884
30
4.0000
10
265.1403
20
273.2509
30
4.0000
10
304.9128
20
246.0516
30
0.0000
10
312.1253
20
247.2929
30
0.0000
10
309.6381
20
243.3286
30
0.0000
10
310.2396
20
239.8551
30
0.0000
10
310.8818
20
236.1587
30
0.0000
10
314.6130
20
233.4268
30
0.0000
10
306.9034
20
232.1950
30
0.0000
10
292.6742
20
211.6125
30
0.0000
10
294.7679
20
210.1815
30
0.0000
10
287.5188
20
199.6999
30
0.0000
10
293.1971
20
195.8156
30
0.0000
10
302.8953
20
197.2973
30
0.0000
10
304.8932
20
200.5189
30
0.0000
10
311.6087
20
201.7512
30
0.0000
10
314.3461
20
200.2641
30
0.0000
10
319.8146
20
201.0047
30
0.0000
10
342.3922
20
230.3225
30
0.0000
10
339.1091
20
232.8220
30
0.0000
10
348.9105
20
247.1936
30
0.0000
10
346.0021
20
249.1358
30
0.0000
10
334.5151
20
256.8393
30
0.0000
10
336.9450
20
260.3208
30
0.0000
10
314.3621
20
275.4399
30
0.0000
10
304.9931
20
281.3039
30
0.0000
10
299.9565
20
280.2566
30
0.0000
10
297.2653
20
275.8002
30
0.0000
10
295.0150
20
272.9687
30
0.0000
10
288.9129
20
276.7789
30
0.0000
10
280.9131
20
282.8651
30
0.0000
10
269.1033
20
278.9884
30
0.0000
10
265.1403
20
273.2509
30
0.0000
93
387
90
3
90
8
90
9
90
10
90
3
90
39
90
41
90
40
90
3
90
11
90
12
90
8
90
3
90
42
90
39
90
43
90
3
90
8
90
6
90
7
90
3
90
39
90
38
90
37
90
3
90
1
90
26
90
0
90
3
90
32
90
31
90
57
90
3
90
11
90
8
90
10
90
3
90
42
90
41
90
39
90
3
90
30
90
27
90
29
90
3
90
61
90
60
90
58
90
3
90
27
90
30
90
26
90
3
90
58
90
57
90
61
90
3
90
28
90
29
90
27
90
3
90
59
90
58
90
60
90
3
90
25
90
26
90
22
90
3
90
56
90
53
90
57
90
3
90
23
90
24
90
25
90
3
90
54
90
56
90
55
90
3
90
25
90
22
90
23
90
3
90
56
90
54
90
53
90
3
90
30
90
0
90
26
90
3
90
61
90
57
90
31
90
3
90
13
90
8
90
12
90
3
90
44
90
43
90
39
90
3
90
6
90
13
90
5
90
3
90
37
90
36
90
44
90
3
90
15
90
13
90
14
90
3
90
46
90
45
90
44
90
3
90
13
90
6
90
8
90
3
90
44
90
39
90
37
90
3
90
15
90
16
90
17
90
3
90
46
90
48
90
47
90
3
90
4
90
5
90
3
90
3
90
35
90
34
90
36
90
3
90
17
90
5
90
15
90
3
90
48
90
46
90
36
90
3
90
15
90
5
90
13
90
3
90
46
90
44
90
36
90
3
90
1
90
5
90
17
90
3
90
32
90
48
90
36
90
3
90
2
90
3
90
1
90
3
90
33
90
32
90
34
90
3
90
22
90
26
90
1
90
3
90
53
90
32
90
57
90
3
90
22
90
1
90
20
90
3
90
53
90
51
90
32
90
3
90
5
90
1
90
3
90
3
90
36
90
34
90
32
90
3
90
20
90
17
90
19
90
3
90
51
90
50
90
48
90
3
90
20
90
21
90
22
90
3
90
51
90
53
90
52
90
3
90
1
90
17
90
20
90
3
90
32
90
51
90
48
90
3
90
17
90
18
90
19
90
3
90
48
90
50
90
49
90
4
90
1
90
0
90
31
90
32
90
4
90
2
90
1
90
32
90
33
90
4
90
3
90
2
90
33
90
34
90
4
90
4
90
3
90
34
90
35
90
4
90
5
90
4
90
35
90
36
90
4
90
6
90
5
90
36
90
37
90
4
90
7
90
6
90
37
90
38
90
4
90
8
90
7
90
38
90
39
90
4
90
9
90
8
90
39
90
40
90
4
90
10
90
9
90
40
90
41
90
4
90
11
90
10
90
41
90
42
90
4
90
12
90
11
90
42
90
43
90
4
90
13
90
12
90
43
90
44
90
4
90
14
90
13
90
44
90
45
90
4
90
15
90
14
90
45
90
46
90
4
90
16
90
15
90
46
90
47
90
4
90
17
90
16
90
47
90
48
90
4
90
18
90
17
90
48
90
49
90
4
90
19
90
18
90
49
90
50
90
4
90
20
90
19
90
50
90
51
90
4
90
21
90
20
90
51
90
52
90
4
90
22
90
21
90
52
90
53
90
4
90
23
90
22
90
53
90
54
90
4
90
24
90
23
90
54
90
55
90
4
90
25
90
24
90
55
90
56
90
4
90
26
90
25
90
56
90
57
90
4
90
27
90
26
90
57
90
58
90
4
90
28
90
27
90
58
90
59
90
4
90
29
90
28
90
59
90
60
90
4
90
30
90
29
90
60
90
61
90
4
90
0
90
30
90
61
90
31
94
0
95
0
0
LWPOLYLINE
  5
146c
330
1F
  100
AcDbEntity
8
paths
  100
AcDbPolyline
70
0
38
0.0000
90
3
10
439.9914
20
378.4041
10
452.1707
20
369.7902
10
474.9327
20
354.1605
0
LWPOLYLINE
  5
146d
330
1F
  100
AcDbEntity
8
paths
  100
AcDbPolyline
70
0
38
0.0000
90
2
10
150.7995
20
474.8873
10
155.2522
20
482.4726
0
LWPOLYLINE
  5
146e
330
1F
  100
AcDbEntity
8
paths
  100
AcDbPolyline
70
0
38
0.0000
90
2
10
151.2200
20
541.1477
10
153.7579
20
530.9312
0
LWPOLYLINE
  5
146f
330
1F
  100
AcDbEntity
8
paths
  100
AcDbPolyline
70
0
38
0.0000
90
3
10
279.5977
20
124.1468
10
285.7134
20
132.6972
10
292.6362
20
142.3524
0
LWPOLYLINE
  5
1470
330
1F
  100
AcDbEntity
8
paths
  100
AcDbPolyline
70
0
38
0.0000
90
3
10
297.2653
20
275.8002
10
295.8807
20
277.3516
10
312.3438
20
300.8492
0
LWPOLYLINE
  5
1471
330
1F
  100
AcDbEntity
8
paths
  100
AcDbPolyline
70
0
38
0.0000
90
2
10
486.3842
20
418.0947
10
498.3222
20
436.9696
0
LWPOLYLINE
  5
1472
330
1F
  100
AcDbEntity
8
minor_roads
  100
AcDbPolyline
70
0
38
0.0000
90
2
10
11.7605
20
634.2166
10
0.2894
20
634.6817
0
LWPOLYLINE
  5
1473
330
1F
  100
AcDbEntity
8
paths
  100
AcDbPolyline
70
0
38
0.0000
90
4
10
22.5860
20
714.2631
10
32.6786
20
705.9469
10
40.0261
20
699.9072
10
46.2169
20
694.8153
0
LWPOLYLINE
  5
1474
330
1F
  100
AcDbEntity
8
paths
  100
AcDbPolyline
70
0
38
0.0000
90
3
10
182.4303
20
577.9092
10
213.0867
20
578.1651
10
224.6300
20
569.6163
0
LWPOLYLINE
  5
1475
330
1F
  100
AcDbEntity
8
minor_roads
  100
AcDbPolyline
70
0
38
0.0000
90
2
10
174.0264
20
646.3931
10
172.5429
20
589.9585
0
LWPOLYLINE
  5
1476
330
1F
  100
AcDbEntity
8
minor_roads
  100
AcDbPolyline
70
0
38
0.0000
90
3
10
107.7281
20
703.1642
10
109.4518
20
712.7195
10
109.5001
20
714.2674
0
LWPOLYLINE
  5
1477
330
1F
  100
AcDbEntity
8
minor_roads
  100
AcDbPolyline
70
0
38
0.0000
90
5
10
242.7633
20
667.8059
10
232.2215
20
674.2927
10
214.6901
20
685.4258
10
208.6431
20
684.3419
10
193.8854
20
665.3942
0
LWPOLYLINE
  5
1478
330
1F
  100
AcDbEntity
8
paths
  100
AcDbPolyline
70
0
38
0.0000
90
2
10
431.8327
20
608.4297
10
425.6764
20
599.1084
  0
MESH
  5
1479
330
1F
  100
AcDbEntity
8
buildings
  100
AcDbSubDMesh
71
2
72
0
91
0
92
8
10
690.6616
20
658.5375
30
4.0000
10
694.0438
20
659.6505
30
4.0000
10
678.9240
20
670.8934
30
4.0000
10
677.1220
20
668.2010
30
4.0000
10
690.6616
20
658.5375
30
0.0000
10
694.0438
20
659.6505
30
0.0000
10
678.9240
20
670.8934
30
0.0000
10
677.1220
20
668.2010
30
0.0000
93
36
90
3
90
2
90
3
90
0
90
3
90
6
90
4
90
7
90
3
90
0
90
1
90
2
90
3
90
4
90
6
90
5
90
4
90
1
90
0
90
4
90
5
90
4
90
2
90
1
90
5
90
6
90
4
90
3
90
2
90
6
90
7
90
4
90
0
90
3
90
7
90
4
94
0
95
0
0
LWPOLYLINE
  5
147a
330
1F
  100
AcDbEntity
8
major_roads
  100
AcDbPolyline
70
0
38
0.0000
90
11
10
40.9121
20
714.2965
10
47.9105
20
709.7847
10
53.2061
20
707.2842
10
58.7462
20
704.6628
10
81.0043
20
694.8182
10
98.4331
20
691.3093
10
108.2113
20
690.3670
10
132.4625
20
690.8483
10
159.1761
20
694.7833
10
182.4364
20
702.6389
10
207.6484
20
714.2256
0
LWPOLYLINE
  5
147b
330
1F
  100
AcDbEntity
8
paths
  100
AcDbPolyline
70
0
38
0.0000
90
2
10
158.4726
20
541.2374
10
157.0196
20
535.5453
0
LWPOLYLINE
  5
147c
330
1F
  100
AcDbEntity
8
minor_roads
  100
AcDbPolyline
70
0
38
0.0000
90
9
10
110.7770
20
651.1109
10
111.3329
20
655.2154
10
111.4929
20
666.6380
10
193.8854
20
665.3942
10
227.7193
20
664.8779
10
237.4908
20
667.3439
10
242.7633
20
667.8059
10
246.3322
20
667.1822
10
247.0425
20
651.3573
0
LWPOLYLINE
  5
147d
330
1F
  100
AcDbEntity
8
paths
  100
AcDbPolyline
70
0
38
0.0000
90
2
10
94.1074
20
675.9603
10
94.3645
20
667.8250
0
LWPOLYLINE
  5
147e
330
1F
  100
AcDbEntity
8
minor_roads
  100
AcDbPolyline
70
0
38
0.0000
90
3
10
714.1067
20
244.6872
10
709.7192
20
238.6041
10
706.3029
20
233.8692
0
LWPOLYLINE
  5
147f
330
1F
  100
AcDbEntity
8
parks
  100
AcDbPolyline
70
0
38
0.0000
90
4
10
714.2033
20
490.2209
10
714.2026
20
488.3231
10
713.2894
20
488.9999
10
714.2033
20
490.2209
0
LWPOLYLINE
  5
1480
330
1F
  100
AcDbEntity
8
paths
  100
AcDbPolyline
70
0
38
0.0000
90
21
10
594.3557
20
591.6375
10
596.8344
20
595.1933
10
599.2316
20
598.7120
10
607.6054
20
610.7256
10
623.6599
20
633.8802
10
646.1797
20
665.3995
10
664.5254
20
651.6107
10
670.0336
20
650.4477
10
673.5633
20
653.7338
10
678.5534
20
661.2354
10
680.5506
20
662.8969
10
682.8891
20
662.3945
10
692.0623
20
656.2524
10
693.7315
20
653.0943
10
694.0638
20
648.4415
10
695.0653
20
646.4630
10
700.6058
20
644.5199
10
703.6846
20
640.7576
10
706.3400
20
637.9705
10
711.3110
20
638.3865
10
714.2615
20
638.0435
0
LWPOLYLINE
  5
1481
330
1F
  100
AcDbEntity
8
minor_roads
  100
AcDbPolyline
70
0
38
0.0000
90
14
10
66.7902
20
472.0552
10
108.1355
20
466.0003
10
114.2698
20
461.8186
10
130.5304
20
450.9366
10
143.3365
20
441.4956
10
156.6225
20
430.2436
10
153.8248
20
424.3570
10
145.0345
20
411.5174
10
141.7076
20
406.7641
10
140.3368
20
402.8736
10
140.5306
20
398.7967
10
142.0927
20
393.1589
10
150.5421
20
372.1673
10
157.7542
20
354.2779
0
LWPOLYLINE
  5
1482
330
1F
  100
AcDbEntity
8
paths
  100
AcDbPolyline
70
0
38
0.0000
90
6
10
117.6749
20
349.3273
10
95.9638
20
399.6802
10
96.8375
20
403.6267
10
96.8410
20
411.2975
10
93.7634
20
417.4373
10
85.8446
20
422.0378
0
LWPOLYLINE
  5
1483
330
1F
  100
AcDbEntity
8
paths
  100
AcDbPolyline
70
0
38
0.0000
90
17
10
161.8426
20
477.7892
10
205.2035
20
477.8444
10
209.1731
20
480.2479
10
215.3380
20
490.0055
10
219.9698
20
497.3400
10
227.6825
20
505.8804
10
229.1259
20
508.2571
10
231.2135
20
511.6923
10
234.0677
20
516.3901
10
236.2783
20
521.4318
10
239.3593
20
523.1764
10
244.6470
20
520.9824
10
255.8740
20
515.7120
10
259.1640
20
510.6865
10
263.5651
20
493.3741
10
264.0110
20
488.1084
10
262.4287
20
484.7009
0
LWPOLYLINE
  5
1484
330
1F
  100
AcDbEntity
8
paths
  100
AcDbPolyline
70
0
38
0.0000
90
16
10
217.3775
20
439.3921
10
221.2657
20
441.9071
10
228.9665
20
441.9037
10
245.0506
20
437.0769
10
252.0995
20
437.0739
10
263.9905
20
440.7927
10
278.1381
20
442.7832
10
282.7018
20
443.4220
10
298.7722
20
444.5016
10
302.7420
20
447.3602
10
307.3635
20
449.7542
10
311.3320
20
449.7525
10
318.1508
20
445.1527
10
326.9165
20
438.9547
10
341.3196
20
428.7889
10
356.0161
20
418.4187
0
LWPOLYLINE
  5
1485
330
1F
  100
AcDbEntity
8
paths
  100
AcDbPolyline
70
0
38
0.0000
90
6
10
229.1259
20
508.2571
10
262.4287
20
484.7009
10
275.8948
20
475.1855
10
277.4578
20
452.6088
10
278.1381
20
442.7832
10
341.9097
20
398.4769
0
LWPOLYLINE
  5
1486
330
1F
  100
AcDbEntity
8
minor_roads
  100
AcDbPolyline
70
0
38
0.0000
90
11
10
175.5369
20
209.4347
10
179.9647
20
215.7756
10
199.4208
20
243.6271
10
203.3920
20
249.3181
10
220.1000
20
273.2241
10
221.6268
20
279.8727
10
221.4168
20
284.1818
10
220.0415
20
288.4728
10
216.2085
20
300.4729
10
215.6958
20
302.0797
10
212.8313
20
311.0334
0
LWPOLYLINE
  5
1487
330
1F
  100
AcDbEntity
8
paths
  100
AcDbPolyline
70
0
38
0.0000
90
5
10
102.2347
20
318.1123
10
116.3108
20
323.9381
10
249.4910
20
378.9867
10
252.5977
20
383.1922
10
254.9701
20
385.5872
0
LWPOLYLINE
  5
1488
330
1F
  100
AcDbEntity
8
paths
  100
AcDbPolyline
70
0
38
0.0000
90
2
10
58.5603
20
310.6747
10
19.3475
20
294.4408
0
LWPOLYLINE
  5
1489
330
1F
  100
AcDbEntity
8
paths
  100
AcDbPolyline
70
0
38
0.0000
90
11
10
346.2966
20
404.6785
10
392.2837
20
371.0040
10
395.5170
20
366.5450
10
399.4921
20
362.5780
10
410.1808
20
355.6549
10
416.4022
20
345.0004
10
428.3859
20
336.4795
10
450.2275
20
321.6859
10
476.1181
20
304.1605
10
492.3629
20
293.1769
10
498.6767
20
288.8931
0
LWPOLYLINE
  5
148a
330
1F
  100
AcDbEntity
8
paths
  100
AcDbPolyline
70
0
38
0.0000
90
6
10
277.1992
20
325.4833
10
284.1971
20
320.5584
10
307.4069
20
304.2317
10
312.3438
20
300.8492
10
335.1463
20
284.7084
10
373.4603
20
257.7422
  0
MESH
  5
148b
330
1F
  100
AcDbEntity
8
buildings
  100
AcDbSubDMesh
71
2
72
0
91
0
92
16
10
456.7449
20
101.9043
30
4.0000
10
458.9130
20
102.8600
30
4.0000
10
461.2334
20
97.6585
30
4.0000
10
468.7973
20
100.9985
30
4.0000
10
466.5990
20
105.9400
30
4.0000
10
474.1059
20
109.2522
30
4.0000
10
458.9868
20
143.1177
30
4.0000
10
441.7562
20
135.5098
30
4.0000
10
456.7449
20
101.9043
30
0.0000
10
458.9130
20
102.8600
30
0.0000
10
461.2334
20
97.6585
30
0.0000
10
468.7973
20
100.9985
30
0.0000
10
466.5990
20
105.9400
30
0.0000
10
474.1059
20
109.2522
30
0.0000
10
458.9868
20
143.1177
30
0.0000
10
441.7562
20
135.5098
30
0.0000
93
88
90
3
90
0
90
1
90
7
90
3
90
8
90
15
90
9
90
3
90
4
90
6
90
7
90
3
90
12
90
15
90
14
90
3
90
7
90
1
90
4
90
3
90
15
90
12
90
9
90
3
90
2
90
3
90
4
90
3
90
10
90
12
90
11
90
3
90
4
90
5
90
6
90
3
90
12
90
14
90
13
90
3
90
2
90
4
90
1
90
3
90
10
90
9
90
12
90
4
90
1
90
0
90
8
90
9
90
4
90
2
90
1
90
9
90
10
90
4
90
3
90
2
90
10
90
11
90
4
90
4
90
3
90
11
90
12
90
4
90
5
90
4
90
12
90
13
90
4
90
6
90
5
90
13
90
14
90
4
90
7
90
6
90
14
90
15
90
4
90
0
90
7
90
15
90
8
94
0
95
0
0
LWPOLYLINE
  5
148c
330
1F
  100
AcDbEntity
8
minor_roads
  100
AcDbPolyline
70
0
38
0.0000
90
5
10
636.5397
20
177.3410
10
635.0003
20
179.4590
10
633.9578
20
180.8803
10
631.1801
20
183.8903
10
591.2686
20
212.2401
0
LWPOLYLINE
  5
148d
330
1F
  100
AcDbEntity
8
minor_roads
  100
AcDbPolyline
70
0
38
0.0000
90
12
10
676.4527
20
255.0176
10
664.4174
20
237.0990
10
655.7253
20
224.1476
10
652.4401
20
221.6322
10
649.6533
20
222.1441
10
646.1173
20
223.9099
10
573.0403
20
275.7777
10
571.2649
20
278.5366
10
570.2556
20
281.5645
10
571.0148
20
284.8331
10
579.4294
20
296.4009
10
592.9156
20
314.9502
0
LWPOLYLINE
  5
148e
330
1F
  100
AcDbEntity
8
paths
  100
AcDbPolyline
70
0
38
0.0000
90
3
10
532.5566
20
219.0897
10
554.6044
20
249.5039
10
566.6882
20
266.1779
0
LWPOLYLINE
  5
148f
330
1F
  100
AcDbEntity
8
minor_roads
  100
AcDbPolyline
70
0
38
0.0000
90
2
10
579.4294
20
296.4009
10
664.4174
20
237.0990
  0
MESH
  5
1490
330
1F
  100
AcDbEntity
8
buildings
  100
AcDbSubDMesh
71
2
72
0
91
0
92
48
10
622.3902
20
353.7660
30
4.0000
10
623.6509
20
347.7199
30
4.0000
10
646.0138
20
331.9514
30
4.0000
10
661.7585
20
354.0660
30
4.0000
10
686.2152
20
336.8109
30
4.0000
10
694.4259
20
348.3510
30
4.0000
10
688.8372
20
352.2908
30
4.0000
10
698.9314
20
366.4583
30
4.0000
10
684.7315
20
376.4750
30
4.0000
10
691.2136
20
385.5919
30
4.0000
10
688.9244
20
387.1994
30
4.0000
10
686.6508
20
387.2003
30
4.0000
10
678.3410
20
392.9985
30
4.0000
10
684.5949
20
401.8834
30
4.0000
10
651.7145
20
424.8068
30
4.0000
10
646.2515
20
417.0546
30
4.0000
10
637.7219
20
423.0108
30
4.0000
10
631.1826
20
413.7267
30
4.0000
10
623.7283
20
418.9302
30
4.0000
10
601.2730
20
387.0580
30
4.0000
10
609.9819
20
380.9810
30
4.0000
10
603.9319
20
372.3933
30
4.0000
10
601.9109
20
372.3941
30
4.0000
10
599.7909
20
369.3582
30
4.0000
10
622.3902
20
353.7660
30
0.0000
10
623.6509
20
347.7199
30
0.0000
10
646.0138
20
331.9514
30
0.0000
10
661.7585
20
354.0660
30
0.0000
10
686.2152
20
336.8109
30
0.0000
10
694.4259
20
348.3510
30
0.0000
10
688.8372
20
352.2908
30
0.0000
10
698.9314
20
366.4583
30
0.0000
10
684.7315
20
376.4750
30
0.0000
10
691.2136
20
385.5919
30
0.0000
10
688.9244
20
387.1994
30
0.0000
10
686.6508
20
387.2003
30
0.0000
10
678.3410
20
392.9985
30
0.0000
10
684.5949
20
401.8834
30
0.0000
10
651.7145
20
424.8068
30
0.0000
10
646.2515
20
417.0546
30
0.0000
10
637.7219
20
423.0108
30
0.0000
10
631.1826
20
413.7267
30
0.0000
10
623.7283
20
418.9302
30
0.0000
10
601.2730
20
387.0580
30
0.0000
10
609.9819
20
380.9810
30
0.0000
10
603.9319
20
372.3933
30
0.0000
10
601.9109
20
372.3941
30
0.0000
10
599.7909
20
369.3582
30
0.0000
93
296
90
3
90
23
90
21
90
22
90
3
90
47
90
46
90
45
90
3
90
21
90
23
90
0
90
3
90
45
90
24
90
47
90
3
90
3
90
0
90
1
90
3
90
27
90
25
90
24
90
3
90
21
90
0
90
20
90
3
90
45
90
44
90
24
90
3
90
20
90
0
90
3
90
3
90
44
90
27
90
24
90
3
90
18
90
19
90
17
90
3
90
42
90
41
90
43
90
3
90
17
90
19
90
20
90
3
90
41
90
44
90
43
90
3
90
17
90
15
90
16
90
3
90
41
90
40
90
39
90
3
90
3
90
17
90
20
90
3
90
27
90
44
90
41
90
3
90
17
90
3
90
15
90
3
90
41
90
39
90
27
90
3
90
3
90
1
90
2
90
3
90
27
90
26
90
25
90
3
90
8
90
3
90
6
90
3
90
32
90
30
90
27
90
3
90
6
90
3
90
4
90
3
90
30
90
28
90
27
90
3
90
3
90
8
90
12
90
3
90
27
90
36
90
32
90
3
90
5
90
6
90
4
90
3
90
29
90
28
90
30
90
3
90
6
90
7
90
8
90
3
90
30
90
32
90
31
90
3
90
15
90
13
90
14
90
3
90
39
90
38
90
37
90
3
90
15
90
12
90
13
90
3
90
39
90
37
90
36
90
3
90
11
90
9
90
10
90
3
90
35
90
34
90
33
90
3
90
9
90
11
90
8
90
3
90
33
90
32
90
35
90
3
90
12
90
8
90
11
90
3
90
36
90
35
90
32
90
3
90
12
90
15
90
3
90
3
90
36
90
27
90
39
90
4
90
1
90
0
90
24
90
25
90
4
90
2
90
1
90
25
90
26
90
4
90
3
90
2
90
26
90
27
90
4
90
4
90
3
90
27
90
28
90
4
90
5
90
4
90
28
90
29
90
4
90
6
90
5
90
29
90
30
90
4
90
7
90
6
90
30
90
31
90
4
90
8
90
7
90
31
90
32
90
4
90
9
90
8
90
32
90
33
90
4
90
10
90
9
90
33
90
34
90
4
90
11
90
10
90
34
90
35
90
4
90
12
90
11
90
35
90
36
90
4
90
13
90
12
90
36
90
37
90
4
90
14
90
13
90
37
90
38
90
4
90
15
90
14
90
38
90
39
90
4
90
16
90
15
90
39
90
40
90
4
90
17
90
16
90
40
90
41
90
4
90
18
90
17
90
41
90
42
90
4
90
19
90
18
90
42
90
43
90
4
90
20
90
19
90
43
90
44
90
4
90
21
90
20
90
44
90
45
90
4
90
22
90
21
90
45
90
46
90
4
90
23
90
22
90
46
90
47
90
4
90
0
90
23
90
47
90
24
94
0
95
0
0
LWPOLYLINE
  5
1491
330
1F
  100
AcDbEntity
8
paths
  100
AcDbPolyline
70
0
38
0.0000
90
14
10
518.7528
20
379.9130
10
536.4425
20
395.1824
10
586.8864
20
438.7165
10
593.2041
20
444.1652
10
601.4456
20
451.2848
10
620.6269
20
467.8352
10
623.4075
20
472.2081
10
624.1014
20
475.4303
10
623.8666
20
479.1172
10
622.9478
20
484.1882
10
623.4130
20
486.0267
10
633.5617
20
493.8978
10
642.3979
20
500.7478
10
646.1057
20
500.7463
0
LWPOLYLINE
  5
1492
330
1F
  100
AcDbEntity
8
minor_roads
  100
AcDbPolyline
70
0
38
0.0000
90
14
10
236.0653
20
388.0192
10
245.2813
20
386.6965
10
252.5977
20
383.1922
10
256.4184
20
380.4696
10
264.7362
20
375.0425
10
285.7875
20
361.3077
10
291.9139
20
357.3211
10
293.8928
20
354.2463
10
293.8913
20
350.7452
10
291.4689
20
345.9265
10
286.6184
20
341.7681
10
283.0973
20
340.0145
10
212.8313
20
311.0334
10
134.4388
20
278.8988
0
LWPOLYLINE
  5
1493
330
1F
  100
AcDbEntity
8
paths
  100
AcDbPolyline
70
0
38
0.0000
90
9
10
154.2040
20
213.1496
10
175.4251
20
196.2755
10
179.6856
20
192.6890
10
233.3564
20
155.8716
10
279.5977
20
124.1468
10
323.9980
20
93.5931
10
327.4797
20
98.0399
10
358.5763
20
76.4908
10
377.2130
20
36.3922
  0
MESH
  5
1494
330
1F
  100
AcDbEntity
8
buildings
  100
AcDbSubDMesh
71
2
72
0
91
0
92
8
10
17.5880
20
296.1039
30
4.0000
10
51.3480
20
310.1115
30
4.0000
10
41.6203
20
333.3048
30
4.0000
10
7.8686
20
319.2972
30
4.0000
10
17.5880
20
296.1039
30
0.0000
10
51.3480
20
310.1115
30
0.0000
10
41.6203
20
333.3048
30
0.0000
10
7.8686
20
319.2972
30
0.0000
93
36
90
3
90
3
90
0
90
2
90
3
90
7
90
6
90
4
90
3
90
1
90
2
90
0
90
3
90
5
90
4
90
6
90
4
90
1
90
0
90
4
90
5
90
4
90
2
90
1
90
5
90
6
90
4
90
3
90
2
90
6
90
7
90
4
90
0
90
3
90
7
90
4
94
0
95
0
0
LWPOLYLINE
  5
1495
330
1F
  100
AcDbEntity
8
minor_roads
  100
AcDbPolyline
70
0
38
0.0000
90
3
10
36.6176
20
460.9898
10
32.8590
20
456.7475
10
15.4332
20
449.6790
0
LWPOLYLINE
  5
1496
330
1F
  100
AcDbEntity
8
minor_roads
  100
AcDbPolyline
70
0
38
0.0000
90
2
10
15.4332
20
449.6790
10
0.2022
20
443.4954
0
LWPOLYLINE
  5
1497
330
1F
  100
AcDbEntity
8
minor_roads
  100
AcDbPolyline
70
0
38
0.0000
90
2
10
0.2220
20
486.8801
10
15.4332
20
449.6790
0
LWPOLYLINE
  5
1498
330
1F
  100
AcDbEntity
8
paths
  100
AcDbPolyline
70
0
38
0.0000
90
3
10
108.8544
20
451.6892
10
123.3550
20
441.2445
10
138.2468
20
430.9947
0
LWPOLYLINE
  5
1499
330
1F
  100
AcDbEntity
8
paths
  100
AcDbPolyline
70
0
38
0.0000
90
4
10
123.3550
20
441.2445
10
130.5304
20
450.9366
10
133.8328
20
455.4113
10
135.9934
20
457.8992
0
LWPOLYLINE
  5
149a
330
1F
  100
AcDbEntity
8
paths
  100
AcDbPolyline
70
0
38
0.0000
90
4
10
189.7321
20
541.6600
10
158.4726
20
541.2374
10
151.2200
20
541.1477
10
148.1170
20
545.1238
0
LWPOLYLINE
  5
149b
330
1F
  100
AcDbEntity
8
paths
  100
AcDbPolyline
70
0
38
0.0000
90
2
10
266.0130
20
105.5607
10
279.5977
20
124.1468
0
LWPOLYLINE
  5
149c
330
1F
  100
AcDbEntity
8
paths
  100
AcDbPolyline
70
0
38
0.0000
90
2
10
270.5258
20
233.0743
10
263.0606
20
231.6381
0
LWPOLYLINE
  5
149d
330
1F
  100
AcDbEntity
8
minor_roads
  100
AcDbPolyline
70
0
38
0.0000
90
4
10
191.9790
20
276.8675
10
195.8864
20
267.4398
10
198.7193
20
260.6128
10
203.3920
20
249.3181
0
LWPOLYLINE
  5
149e
330
1F
  100
AcDbEntity
8
paths
  100
AcDbPolyline
70
0
38
0.0000
90
2
10
292.2614
20
331.6896
10
284.1971
20
320.5584
0
LWPOLYLINE
  5
149f
330
1F
  100
AcDbEntity
8
paths
  100
AcDbPolyline
70
0
38
0.0000
90
2
10
299.1685
20
361.7941
10
318.8594
20
368.1564
0
LWPOLYLINE
  5
14a0
330
1F
  100
AcDbEntity
8
paths
  100
AcDbPolyline
70
0
38
0.0000
90
3
10
696.4665
20
253.5795
10
701.1510
20
250.4759
10
704.8090
20
248.0413
0
LWPOLYLINE
  5
14a1
330
1F
  100
AcDbEntity
8
paths
  100
AcDbPolyline
70
0
38
0.0000
90
4
10
488.0601
20
529.5437
10
489.2994
20
531.2519
10
490.2779
20
532.6073
10
491.2726
20
533.9721
0
LWPOLYLINE
  5
14a2
330
1F
  100
AcDbEntity
8
major_roads
  100
AcDbPolyline
70
0
38
0.0000
90
2
10
435.3219
20
631.5335
10
319.4066
20
714.1781
0
LWPOLYLINE
  5
14a3
330
1F
  100
AcDbEntity
8
paths
  100
AcDbPolyline
70
0
38
0.0000
90
3
10
57.1283
20
714.2896
10
53.2061
20
707.2842
10
46.2169
20
694.8153
0
LWPOLYLINE
  5
14a4
330
1F
  100
AcDbEntity
8
paths
  100
AcDbPolyline
70
0
38
0.0000
90
4
10
292.5089
20
565.6772
10
295.7701
20
569.5297
10
332.0382
20
620.4146
10
337.4442
20
627.9902
0
LWPOLYLINE
  5
14a5
330
1F
  100
AcDbEntity
8
paths
  100
AcDbPolyline
70
0
38
0.0000
90
22
10
431.8327
20
608.4297
10
424.5659
20
613.3268
10
422.6833
20
612.8633
10
420.3349
20
609.1310
10
420.8068
20
607.2642
10
431.1366
20
600.2855
10
441.2221
20
593.4835
10
443.0965
20
593.7148
10
445.4367
20
597.2150
10
445.4377
20
599.5459
10
435.3521
20
606.3201
10
460.7105
20
642.9734
10
470.3315
20
636.1994
10
472.6864
20
635.9570
10
475.2630
20
639.6985
10
475.2641
20
642.2616
10
464.7793
20
649.1474
10
455.3211
20
655.3549
10
452.7460
20
655.3559
10
450.3894
20
651.3822
10
450.6249
20
649.5155
10
457.6716
20
644.6092
0
LWPOLYLINE
  5
14a6
330
1F
  100
AcDbEntity
8
minor_roads
  100
AcDbPolyline
70
0
38
0.0000
90
5
10
434.0618
20
714.1294
10
438.8726
20
704.2190
10
442.5306
20
702.1373
10
449.8405
20
703.1744
10
473.0427
20
714.1128
0
LWPOLYLINE
  5
14a7
330
1F
  100
AcDbEntity
8
minor_roads
  100
AcDbPolyline
70
0
38
0.0000
90
2
10
500.6768
20
714.1011
10
534.4444
20
689.8873
0
LWPOLYLINE
  5
14a8
330
1F
  100
AcDbEntity
8
minor_roads
  100
AcDbPolyline
70
0
38
0.0000
90
2
10
533.7686
20
714.0870
10
545.9406
20
705.4749
0
LWPOLYLINE
  5
14a9
330
1F
  100
AcDbEntity
8
minor_roads
  100
AcDbPolyline
70
0
38
0.0000
90
3
10
543.2227
20
635.0086
10
568.5319
20
671.9593
10
594.0691
20
709.2351
0
LWPOLYLINE
  5
14aa
330
1F
  100
AcDbEntity
8
minor_roads
  100
AcDbPolyline
70
0
38
0.0000
90
3
10
574.4646
20
612.7171
10
600.1976
20
650.0856
10
625.7185
20
687.1664
0
LWPOLYLINE
  5
14ab
330
1F
  100
AcDbEntity
8
paths
  100
AcDbPolyline
70
0
38
0.0000
90
7
10
454.2800
20
660.2215
10
464.2355
20
654.4039
10
475.5266
20
646.4498
10
478.4832
20
642.9568
10
479.4016
20
637.2636
10
480.8823
20
631.3753
10
484.3919
20
625.1239
0
LWPOLYLINE
  5
14ac
330
1F
  100
AcDbEntity
8
minor_roads
  100
AcDbPolyline
70
0
38
0.0000
90
12
10
115.0127
20
647.2551
10
135.5151
20
646.9487
10
154.9093
20
646.6523
10
174.0264
20
646.3931
10
194.3088
20
646.0963
10
212.8229
20
645.7817
10
219.9368
20
645.6578
10
234.7511
20
644.7227
10
241.8188
20
650.8024
10
247.0425
20
651.3573
10
254.9880
20
652.1990
10
268.3350
20
650.3173
0
LWPOLYLINE
  5
14ad
330
1F
  100
AcDbEntity
8
minor_roads
  100
AcDbPolyline
70
0
38
0.0000
90
2
10
75.4560
20
642.7130
10
75.0647
20
678.7270
0
LWPOLYLINE
  5
14ae
330
1F
  100
AcDbEntity
8
paths
  100
AcDbPolyline
70
0
38
0.0000
90
2
10
88.0661
20
596.7475
10
91.4498
20
600.8971
0
LWPOLYLINE
  5
14af
330
1F
  100
AcDbEntity
8
paths
  100
AcDbPolyline
70
0
38
0.0000
90
2
10
0.3222
20
706.5071
10
2.7342
20
711.4025
0
LWPOLYLINE
  5
14b0
330
1F
  100
AcDbEntity
8
paths
  100
AcDbPolyline
70
0
38
0.0000
90
4
10
0.3244
20
711.3558
10
2.7342
20
711.4025
10
9.9052
20
711.5385
10
22.5860
20
714.2631
0
LWPOLYLINE
  5
14b1
330
1F
  100
AcDbEntity
8
minor_roads
  100
AcDbPolyline
70
0
38
0.0000
90
2
10
194.3088
20
646.0963
10
193.4040
20
589.7728
0
LWPOLYLINE
  5
14b2
330
1F
  100
AcDbEntity
8
paths
  100
AcDbPolyline
70
0
38
0.0000
90
2
10
435.3521
20
606.3201
10
431.1366
20
600.2855
0
LWPOLYLINE
  5
14b3
330
1F
  100
AcDbEntity
8
minor_roads
  100
AcDbPolyline
70
0
38
0.0000
90
12
10
714.1161
20
268.7114
10
710.3483
20
263.4179
10
701.1510
20
250.4759
10
695.0194
20
241.8603
10
668.9680
20
204.5381
10
662.8854
20
196.2382
10
659.0861
20
191.6985
10
655.4258
20
188.4032
10
653.7627
20
186.9087
10
647.9427
20
183.1313
10
636.5397
20
177.3410
10
640.5036
20
165.5360
  0
ENDSEC
  0
SECTION
  2
OBJECTS
  0
DICTIONARY
  5
C
330
0
100
AcDbDictionary
281
1
  3
ACAD_COLOR
350
4D3
  3
ACAD_GROUP
350
4D4
  3
ACAD_LAYOUT
350
4D5
  3
ACAD_MATERIAL
350
4D6
  3
ACAD_MLEADERSTYLE
350
4D7
  3
ACAD_MLINESTYLE
350
4D8
  3
ACAD_PLOTSETTINGS
350
4D9
  3
ACAD_PLOTSTYLENAME
350
4DB
  3
ACAD_SCALELIST
350
4DC
  3
ACAD_TABLESTYLE
350
4DD
  3
ACAD_VISUALSTYLE
350
4DE
  0
DICTIONARY
  5
4D3
330
C
100
AcDbDictionary
281
1
  0
DICTIONARY
  5
4D4
330
C
100
AcDbDictionary
281
1
  0
DICTIONARY
  5
4D5
330
C
100
AcDbDictionary
281
1
  3
Model
350
4DF
  3
Layout1
350
4E0
  0
DICTIONARY
  5
4D6
330
C
100
AcDbDictionary
281
1
  0
DICTIONARY
  5
4D7
330
C
100
AcDbDictionary
281
1
  0
DICTIONARY
  5
4D8
330
C
100
AcDbDictionary
281
1
  0
DICTIONARY
  5
4D9
330
C
100
AcDbDictionary
281
1
  0
ACDBPLACEHOLDER
  5
4DA
330
4DB
  0
ACDBDICTIONARYWDFLT
  5
4DB
330
C
100
AcDbDictionary
281
1
  3
Normal
350
4DA
100
AcDbDictionaryWithDefault
340
4DA
  0
DICTIONARY
  5
4DC
330
C
100
AcDbDictionary
281
1
  0
DICTIONARY
  5
4DD
330
C
100
AcDbDictionary
281
1
  0
DICTIONARY
  5
4DE
330
C
100
AcDbDictionary
281
1
  0
LAYOUT
  5
4DF
330
4D5
100
AcDbPlotSettings
  1

  2
DWFx ePlot (XPS Compatible).pc3
  4
ANSI_A_(8.50_x_11.00_Inches)
  6

 40
5.8
 41
17.8
 42
5.8
 43
17.8
 44
215.9
 45
279.4
 46
0.0
 47
0.0
 48
0.0
 49
0.0
140
0.0
141
0.0
142
1.0
143
14.53
 70
11952
 72
0
 73
1
 74
0
  7

 75
0
147
0.069
148
114.98
149
300.29
100
AcDbLayout
  1
Model
 70
1
 71
0
 10
0.0
 20
0.0
 11
12.0
 21
9.0
 12
0.0
 22
0.0
 32
0.0
 14
0.0
 24
0.0
 34
0.0
 15
0.0
 25
0.0
 35
0.0
146
0.0
 13
0.0
 23
0.0
 33
0.0
 16
1.0
 26
0.0
 36
0.0
 17
0.0
 27
1.0
 37
0.0
 76
0
330
1F
  0
LAYOUT
  5
4E0
330
4D5
100
AcDbPlotSettings
  1

  2
DWFx ePlot (XPS Compatible).pc3
  4
ANSI_A_(8.50_x_11.00_Inches)
  6

 40
5.8
 41
17.8
 42
5.8
 43
17.8
 44
215.9
 45
279.4
 46
0.0
 47
0.0
 48
0.0
 49
0.0
140
0.0
141
0.0
142
1.0
143
1.0
 70
688
 72
0
 73
1
 74
5
  7
acad.ctb
 75
16
147
1.0
148
0.0
149
0.0
100
AcDbLayout
  1
Layout1
 70
1
 71
1
 10
-0.7
 20
-0.23
 11
10.3
 21
8.27
 12
0.0
 22
0.0
 32
0.0
 14
0.63
 24
0.8
 34
0.0
 15
9.0
 25
7.2
 35
0.0
146
0.0
 13
0.0
 23
0.0
 33
0.0
 16
1.0
 26
0.0
 36
0.0
 17
0.0
 27
1.0
 37
0.0
 76
0
330
58
  0
ENDSEC
  0
EOF
